<?xml version="1.0" standalone="no"?>
<!DOCTYPE svg PUBLIC "-//W3C//DTD SVG 1.1//EN" "http://www.w3.org/Graphics/SVG/1.1/DTD/svg11.dtd" >
<svg>
<metadata>
Created by FontForge 20090622 at Tue Nov 27 16:36:13 2018
 By deploy user
Copyright &#194;&#169; 1991, 1992, 1995, 2002 Adobe Systems Incorporated.  All Rights Reserved. &#194;&#169; 1981, 2002 Heidelberger Druckmaschinen AG. All rights reserved.
</metadata>
<defs>
<font id="CaeciliaLTStd-LightItalic" horiz-adv-x="278" >
  <font-face 
    font-family="Caecilia LT Std Light"
    font-weight="300"
    font-style="italic"
    font-stretch="normal"
    units-per-em="1000"
    panose-1="0 0 4 0 0 0 0 0 0 0"
    ascent="769"
    descent="-231"
    x-height="514"
    cap-height="700"
    bbox="-166 -267 1033 909"
    underline-thickness="50"
    underline-position="-50"
    slope="-5"
    unicode-range="U+0020-U+FB02"
  />
<missing-glyph horiz-adv-x="535" 
d="M35 0v700h500v-700h-500zM285 395l170 255h-340zM315 350l170 -255v510zM115 50h340l-170 255zM85 605v-510l170 255z" />
    <glyph glyph-name="f_i" unicode="fi" horiz-adv-x="556" 
d="M54 470l4 44h79q9 138 59.5 200.5t170.5 62.5q58 0 111 -20l-5 -44q-56 20 -106 20q-55 0 -90 -14.5t-53 -47t-25 -66.5t-10 -91h277l-42 -470h85l-4 -44h-133l42 470h-228l-27 -358q-5 -65 -9.5 -104.5t-13.5 -88.5t-22.5 -77.5t-35 -55t-53 -38t-73.5 -11.5
q-35 0 -88 17l4 44q46 -17 80 -17q83 0 115.5 72t45.5 259l25 358h-80z" />
    <glyph glyph-name="f_l" unicode="fl" horiz-adv-x="556" 
d="M54 470l4 44h79q9 138 59.5 200.5t170.5 62.5q31 0 68 -8h53l-64 -725h85l-4 -44h-133l64 721q-30 12 -69 12q-55 0 -90 -14.5t-53 -47t-25 -66.5t-10 -91h148l-4 -44h-147l-27 -358q-5 -65 -9.5 -104.5t-13.5 -88.5t-22.5 -77.5t-35 -55t-53 -38t-73.5 -11.5
q-35 0 -88 17l4 44q46 -17 80 -17q83 0 115.5 72t45.5 259l25 358h-80z" />
    <glyph glyph-name=".notdef" horiz-adv-x="535" 
d="M35 0v700h500v-700h-500zM285 395l170 255h-340zM315 350l170 -255v510zM115 50h340l-170 255zM85 605v-510l170 255z" />
    <glyph glyph-name=".null" horiz-adv-x="0" 
 />
    <glyph glyph-name="nonmarkingreturn" horiz-adv-x="333" 
 />
    <glyph glyph-name="space" unicode=" " 
 />
    <glyph glyph-name="exclam" unicode="!" horiz-adv-x="296" 
d="M78 35q0 22 12 37t32 15q19 0 30.5 -14t11.5 -33q0 -20 -13 -33t-30 -13q-20 0 -31.5 11.5t-11.5 29.5zM117 236l40 533h56l-52 -533h-44z" />
    <glyph glyph-name="quotedbl" unicode="&#x22;" horiz-adv-x="389" 
d="M259 564l-14 139q-3 27 -3 40q0 11 9 22.5t27 11.5t27 -11.5t9 -22.5q0 -13 -3 -40l-14 -139q-2 -24 -19 -24t-19 24zM122 564l-14 139q-3 27 -3 40q0 11 9 22.5t27 11.5t27 -11.5t9 -22.5q0 -13 -3 -40l-14 -139q-2 -24 -19 -24t-19 24z" />
    <glyph glyph-name="numbersign" unicode="#" horiz-adv-x="556" 
d="M338 272l22 156h-142l-22 -156h142zM110 0l31 224h-115l7 48h115l22 156h-115l7 48h115l31 224h48l-31 -224h142l31 224h48l-31 -224h115l-7 -48h-115l-22 -156h115l-7 -48h-115l-31 -224h-48l31 224h-142l-31 -224h-48z" />
    <glyph glyph-name="dollar" unicode="$" horiz-adv-x="556" 
d="M215 -144l12 134q-60 3 -115.5 14t-77.5 22l11 134h44l-3 -100q27 -10 74 -18t71 -8l28 309q-110 33 -150.5 74.5t-40.5 101.5q0 42 15 76t38.5 54t54.5 34t59 19.5t57 7.5l11 124h44l-11 -124q95 -5 157 -30l-6 -124h-41v92q-58 18 -114 18l-25 -282l62.5 -22.5t53 -25
t46 -33.5t27 -44t11.5 -60q0 -96 -69.5 -148.5t-166.5 -60.5l-12 -134h-44zM264 396l24 270q-68 -2 -116 -40t-48 -102q0 -50 31 -74.5t109 -53.5zM302 329l-27 -295q71 8 123.5 48t52.5 114q0 52 -33.5 77.5t-115.5 55.5z" />
    <glyph glyph-name="percent" unicode="%" horiz-adv-x="796" 
d="M112 540q0 -46 22 -74t67 -28q38 0 68.5 31.5t30.5 96.5q0 45 -20.5 72.5t-63.5 27.5t-73.5 -29t-30.5 -97zM60 540q0 73 42.5 121.5t116.5 48.5q61 0 97 -37.5t36 -104.5q0 -78 -44.5 -126t-111.5 -48q-66 0 -101 41t-35 105zM452 136q0 73 42.5 121.5t116.5 48.5
q61 0 97 -37.5t36 -104.5q0 -78 -44.5 -126t-111.5 -48q-66 0 -101 41t-35 105zM504 136q0 -46 22 -74t67 -28q38 0 68.5 31.5t30.5 96.5q0 45 -20.5 72.5t-63.5 27.5t-73.5 -29t-30.5 -97zM37 -19l681 767l32 -29l-681 -767z" />
    <glyph glyph-name="ampersand" unicode="&#x26;" horiz-adv-x="741" 
d="M679 411l-4 -44h-67q-9 -137 -73 -223l55 -59q23 -25 39 -33t41 -8h30l-4 -44h-40q-35 0 -52 10.5t-56 51.5q-9 8 -13 13l-29 30l-13 -13t-20 -18.5l-24.5 -19t-33.5 -20.5t-38.5 -16.5t-48 -13t-55.5 -4.5q-101 0 -161 50.5t-60 132.5q0 39 14 72.5t40 60t51.5 46
t58.5 42.5q7 5 11 7q-80 85 -80 155q0 60 43.5 104t117.5 44q59 0 99 -31.5t40 -87.5q0 -32 -15 -61.5t-42 -53.5t-47.5 -39t-49.5 -32l214 -234q23 35 37.5 88.5t15.5 103.5h-80l4 44h195zM399 591q0 40 -27 59.5t-65 19.5q-48 0 -80 -26t-32 -74q0 -57 72 -135
q4 2 24.5 16t27 19l23.5 18.5t23.5 22l16.5 22.5t13.5 28t3.5 30zM478 137l-225 246q-149 -92 -149 -195q0 -71 52.5 -107.5t120.5 -36.5q120 0 201 93z" />
    <glyph glyph-name="quotesingle" unicode="'" 
d="M135 564l-14 139q-3 27 -3 40q0 11 9 22.5t27 11.5t27 -11.5t9 -22.5q0 -13 -3 -40l-14 -139q-2 -24 -19 -24t-19 24z" />
    <glyph glyph-name="parenleft" unicode="(" horiz-adv-x="333" 
d="M348 785l30 -26q-47 -60 -81.5 -114.5t-68 -126.5t-51 -157t-17.5 -179q0 -238 113 -422l-31 -27q-68 105 -103 214.5t-35 243.5q0 164 65 316.5t179 277.5z" />
    <glyph glyph-name="parenright" unicode=")" horiz-adv-x="333" 
d="M-65 -267l-30 26q47 60 81.5 114.5t68 126.5t51 157t17.5 179q0 238 -113 422l31 27q68 -105 103 -214.5t35 -243.5q0 -164 -65 -316.5t-179 -277.5z" />
    <glyph glyph-name="asterisk" unicode="*" horiz-adv-x="333" 
d="M148 494l25 114l-101 -66l-24 46l111 42l-102 60l31 44l87 -82l2 117h52l-27 -117l95 68l26 -46l-112 -44l104 -56l-30 -43l-85 77v-114h-52z" />
    <glyph glyph-name="plus" unicode="+" horiz-adv-x="600" 
d="M276 0v229h-229v48h229v229h48v-229h229v-48h-229v-229h-48z" />
    <glyph glyph-name="comma" unicode="," 
d="M46 -153l-17 31q84 35 84 90q0 19 -15.5 38.5t-15.5 37.5q0 20 13 30t30 10q26 0 40 -20t14 -54q0 -64 -37 -100.5t-96 -62.5z" />
    <glyph glyph-name="hyphen" unicode="-" horiz-adv-x="352" 
d="M65 236l4 48h208l-4 -48h-208z" />
    <glyph glyph-name="period" unicode="." 
d="M73 35q0 22 12 37t32 15q19 0 30.5 -14t11.5 -33q0 -20 -13 -33t-30 -13q-20 0 -31.5 11.5t-11.5 29.5z" />
    <glyph glyph-name="slash" unicode="/" horiz-adv-x="389" 
d="M-16 -57l397 834l40 -20l-397 -834z" />
    <glyph glyph-name="zero" unicode="0" horiz-adv-x="556" 
d="M49 283q0 116 26 210t86 155.5t145 61.5q52 0 91.5 -23t61 -56.5t35 -79t17.5 -82.5t4 -76q0 -74 -13.5 -141.5t-42.5 -128t-82 -97t-123 -36.5q-105 0 -155 83t-50 210zM101 289q0 -251 163 -251q56 0 97 34.5t62 90.5t30.5 113.5t9.5 116.5q0 136 -43 202.5t-117 66.5
q-57 0 -98.5 -36.5t-63 -96t-31 -119.5t-9.5 -121z" />
    <glyph glyph-name="one" unicode="1" horiz-adv-x="556" 
d="M111 0l4 44h129l53 609l-2 2q-3 -6 -20 -18l-170 -101l-21 36l219 128h50l-57 -656h145l-4 -44h-326z" />
    <glyph glyph-name="two" unicode="2" horiz-adv-x="556" 
d="M43 0l4 40l60 58l62.5 60l56.5 56.5t56 59l47 54t42.5 55.5l30 50t22 50.5t6.5 45.5q0 61 -35.5 97t-94.5 36q-133 0 -172 -149h-52q17 80 72 138.5t157 58.5q89 0 135 -53t46 -120q0 -29 -6 -53t-25 -62.5t-63.5 -91.5t-113.5 -122l-163 -162v-2q22 4 32 4h339l-4 -48
h-439z" />
    <glyph glyph-name="three" unicode="3" horiz-adv-x="556" 
d="M38 22l5 52q93 -36 173 -36q90 0 143.5 43t53.5 117q0 39 -15.5 67t-36.5 42t-56.5 22t-62.5 9.5t-67 1.5l4 48h19q96 0 156 50t60 112q0 48 -32.5 80t-93.5 32q-58 0 -99 -32t-52 -89h-52q-1 2 3 18.5t16.5 42t34 49.5t62.5 41.5t94 17.5q87 0 129 -45.5t42 -107.5
q0 -76 -48.5 -122.5t-124.5 -60.5v-2q79 -10 127.5 -50t48.5 -115q0 -91 -66.5 -154t-194.5 -63q-72 0 -170 32z" />
    <glyph glyph-name="four" unicode="4" horiz-adv-x="556" 
d="M351 271l33 361h-2l-303 -364q19 3 40 3h232zM330 44l16 183h-323l5 47l354 426h58l-37 -429h126l-4 -44h-127l-16 -183h84l-4 -44h-203l4 44h67z" />
    <glyph glyph-name="five" unicode="5" horiz-adv-x="556" 
d="M102 390l31 310h337l-4 -48h-290l-23 -218q63 -1 116 -11.5t98.5 -34t71 -66t25.5 -100.5q0 -41 -15.5 -80.5t-46.5 -74.5t-84.5 -56t-121.5 -21q-77 0 -144 23l4 52q54 -27 144 -27q98 0 155 51t57 129q0 49 -21 82t-65 51.5t-95.5 26.5t-128.5 12z" />
    <glyph glyph-name="six" unicode="6" horiz-adv-x="556" 
d="M524 692l-11 -42q-39 16 -95 16q-255 0 -305 -332l2 -2q25 41 74 71.5t114 30.5q83 0 139 -57.5t56 -147.5q0 -96 -59 -167.5t-159 -71.5q-114 0 -167.5 75.5t-53.5 205.5q0 32 5 69t17 90t38 100t63.5 88.5t98 66.5t136.5 25q63 0 107 -18zM446 224q0 73 -42.5 117.5
t-112.5 44.5q-33 0 -62 -10t-53 -29.5t-36 -31.5t-29 -32q0 -48 8 -88.5t26 -78.5t53.5 -60t85.5 -22q67 0 114.5 52.5t47.5 137.5z" />
    <glyph glyph-name="seven" unicode="7" horiz-adv-x="556" 
d="M100 652l4 48h413l-4 -36l-317 -555q-21 -37 -69 -109h-61q61 84 86 127l264 458q26 47 44 67h-360z" />
    <glyph glyph-name="eight" unicode="8" horiz-adv-x="556" 
d="M37 165q0 132 193 203q-36 21 -55 34t-40.5 33.5t-30.5 44.5t-9 55q0 62 36 103.5t81 56.5t94 15q78 0 133.5 -38t55.5 -112q0 -39 -15 -70t-45 -54.5t-53 -36.5t-59 -29q88 -39 130 -82t42 -109q0 -84 -66 -136.5t-179 -52.5q-97 0 -155 46t-58 129zM147 538
q0 -26 10 -47t33 -40t40 -30t51 -30q36 17 58.5 30t49.5 34t40.5 47.5t13.5 57.5q0 53 -41.5 79.5t-97.5 26.5q-74 0 -115.5 -36t-41.5 -92zM89 163q0 -58 46 -93.5t127 -35.5q82 0 131.5 37.5t49.5 105.5q0 26 -11 49t-23 37.5t-42 33t-43 25l-52 25.5q-44 -19 -70.5 -33.5
t-55.5 -36.5t-43 -50.5t-14 -63.5z" />
    <glyph glyph-name="nine" unicode="9" horiz-adv-x="556" 
d="M34 6l12 45q64 -17 110 -17q246 0 285 341l-2 2q-60 -96 -174 -96q-85 0 -141 53t-56 151q0 107 65.5 166t152.5 59q91 0 149 -71.5t58 -215.5q0 -68 -11 -129.5t-37 -117.5t-64 -97t-95.5 -65t-128.5 -24q-59 0 -123 16zM120 488q0 -73 43 -116t116 -43q89 0 162 96
q0 62 -15 114t-53 89.5t-95 37.5q-69 0 -113.5 -49.5t-44.5 -128.5z" />
    <glyph glyph-name="colon" unicode=":" 
d="M73 35q0 22 12 37t32 15q19 0 30.5 -14t11.5 -33q0 -20 -13 -33t-30 -13q-20 0 -31.5 11.5t-11.5 29.5zM114 444q0 22 12 37t32 15q19 0 30.5 -14t11.5 -33q0 -20 -13 -33t-30 -13q-20 0 -31.5 11.5t-11.5 29.5z" />
    <glyph glyph-name="semicolon" unicode=";" 
d="M46 -153l-17 31q84 35 84 90q0 19 -15.5 38.5t-15.5 37.5q0 20 13 30t30 10q26 0 40 -20t14 -54q0 -64 -37 -100.5t-96 -62.5zM114 444q0 22 12 37t32 15q19 0 30.5 -14t11.5 -33q0 -20 -13 -33t-30 -13q-20 0 -31.5 11.5t-11.5 29.5z" />
    <glyph glyph-name="less" unicode="&#x3c;" horiz-adv-x="600" 
d="M553 -8l-506 233v56l506 233v-56l-445 -205l445 -205v-56z" />
    <glyph glyph-name="equal" unicode="=" horiz-adv-x="600" 
d="M47 327v48h506v-48h-506zM47 131v48h506v-48h-506z" />
    <glyph glyph-name="greater" unicode="&#x3e;" horiz-adv-x="600" 
d="M47 514l506 -233v-56l-506 -233v56l445 205l-445 205v56z" />
    <glyph glyph-name="question" unicode="?" horiz-adv-x="481" 
d="M194 244l-40 -31q-44 47 -44 91q0 9 2 18t4 15.5t7 14.5t8.5 13t11.5 12.5t11 11t13 10.5l13 9l14 9.5t13 8.5l68 45q91 60 91 139q0 56 -38.5 87.5t-100.5 31.5q-64 0 -107 -19l-10 45q66 22 124 22q89 0 136.5 -46.5t47.5 -113.5q0 -59 -30.5 -102t-64.5 -66l-68 -46
l-55 -38t-26 -25.5t-12 -31.5q0 -14 5 -25t15 -23.5t12 -15.5zM101 35q0 22 12 37t32 15q19 0 30.5 -14t11.5 -33q0 -20 -13 -33t-30 -13q-20 0 -31.5 11.5t-11.5 29.5z" />
    <glyph glyph-name="at" unicode="@" horiz-adv-x="800" 
d="M246 282q0 -101 85 -101q73 0 127 81.5t54 158.5q0 49 -20 72t-64 23q-74 0 -128 -78t-54 -156zM625 547l-100 -288q-13 -39 -13 -58q0 -24 27 -24q65 0 121 78.5t56 158.5q0 113 -87.5 184.5t-208.5 71.5q-144 0 -240 -94t-96 -226q0 -134 97 -227t239 -93
q81 0 156.5 37t116.5 100h58q-50 -83 -140 -132t-191 -49q-163 0 -273.5 106.5t-110.5 257.5q0 152 112.5 258t271.5 106q145 0 244.5 -86t99.5 -217q0 -109 -75.5 -193.5t-158.5 -84.5q-30 0 -48.5 17t-17.5 50h-2q-70 -67 -139 -67q-58 0 -93.5 39t-35.5 105
q0 108 69 197.5t170 89.5q80 0 110 -82h2l24 65h56z" />
    <glyph glyph-name="A" unicode="A" horiz-adv-x="759" 
d="M9 0l4 44h70l301 661h56l184 -661h84l-4 -44h-206l4 44h65l-65 240h-260l-107 -240h84l-4 -44h-206zM490 328l-69 259q-12 47 -15 70h-2q-10 -30 -27 -70l-115 -259h228z" />
    <glyph glyph-name="B" unicode="B" horiz-adv-x="574" 
d="M182 341l-26 -297h119q30 0 59 6.5t60.5 22.5t51 51t19.5 84q0 69 -52.5 102t-138.5 33h-52q-26 0 -40 -2zM32 0l4 44h68l54 612h-83l4 44h217q77 0 120 -21q86 -42 86 -137q0 -61 -39 -110t-113 -63v-2q71 1 121 -42t50 -119q0 -98 -87 -162q-60 -44 -196 -44h-206z
M210 656l-24 -271q15 -2 46 -2h36q75 0 126.5 39.5t51.5 118.5q0 38 -14.5 63t-41 35.5t-49 13.5t-54.5 3h-77z" />
    <glyph glyph-name="C" unicode="C" horiz-adv-x="648" 
d="M597 685l-4 -132h-48l4 99q-60 18 -123 18q-69 0 -124 -22.5t-89 -58.5t-56.5 -84.5t-31 -96.5t-8.5 -99q0 -133 72.5 -206t199.5 -73q70 0 124 21l10 95h44l-10 -131q-35 -12 -89.5 -20.5t-85.5 -8.5q-88 0 -152.5 28t-100 76.5t-52 104.5t-16.5 121q0 43 8 90t33 104
t64 100.5t107 73.5t156 30q69 0 168 -29z" />
    <glyph glyph-name="D" unicode="D" horiz-adv-x="722" 
d="M210 656l-54 -612h142q184 0 265 146q55 98 55 215q0 104 -50 168q-34 44 -79.5 63.5t-124.5 19.5h-154zM32 0l4 44h68l54 612h-83l4 44h262q100 0 150 -16t83 -43q100 -81 100 -243q0 -142 -76 -251q-102 -147 -302 -147h-264z" />
    <glyph glyph-name="E" unicode="E" horiz-adv-x="556" 
d="M32 0l4 44h68l54 612h-83l4 44h434l-12 -142h-44l4 98h-251l-24 -271h257l-3 -44h-258l-26 -297h281l14 98h44l-13 -142h-450z" />
    <glyph glyph-name="F" unicode="F" horiz-adv-x="519" 
d="M104 44l54 612h-83l4 44h431l-12 -146h-44l4 102h-248l-25 -286h246l-4 -44h-246l-25 -282h90l-4 -44h-210l4 44h68z" />
    <glyph glyph-name="G" unicode="G" horiz-adv-x="704" 
d="M587 241l-18 -220q-112 -35 -189 -35q-87 0 -151.5 28t-99.5 75.5t-51.5 102t-16.5 116.5q0 181 97.5 293.5t266.5 112.5q97 0 182 -29l-8 -130h-44v95q-51 20 -129 20q-69 0 -124 -22.5t-89 -58.5t-56.5 -84.5t-31 -96.5t-8.5 -99q0 -130 73 -204.5t199 -74.5
q72 0 132 25l18 186h-87l4 44h204l-4 -44h-69z" />
    <glyph glyph-name="H" unicode="H" horiz-adv-x="741" 
d="M181 326l-25 -282h83l-4 -44h-203l4 44h68l54 612h-83l4 44h203l-4 -44h-68l-25 -286h375l25 286h-83l4 44h203l-4 -44h-68l-54 -612h83l-4 -44h-203l4 44h68l25 282h-375z" />
    <glyph glyph-name="I" unicode="I" horiz-adv-x="314" 
d="M32 0l4 44h68l54 612h-83l4 44h203l-4 -44h-68l-54 -612h83l-4 -44h-203z" />
    <glyph glyph-name="J" unicode="J" horiz-adv-x="296" 
d="M75 656l4 44h203l-4 -44h-68l-35 -393q-5 -62 -13 -105.5t-26 -95.5t-45.5 -90t-74 -76.5t-110.5 -67.5l-16 38q126 64 172 145.5t61 249.5l35 395h-83z" />
    <glyph glyph-name="K" unicode="K" horiz-adv-x="630" 
d="M32 0l4 44h68l54 612h-83l4 44h203l-4 -44h-68l-25 -284l316 284h-84l4 44h205l-4 -44h-60l-323 -290l296 -322h70l-4 -44h-206l4 44h70l-286 311l-27 -311h83l-4 -44h-203z" />
    <glyph glyph-name="L" unicode="L" horiz-adv-x="500" 
d="M32 0l4 44h68l54 612h-83l4 44h203l-4 -44h-68l-54 -612h250l14 100h44l-16 -144h-416z" />
    <glyph glyph-name="M" unicode="M" horiz-adv-x="870" 
d="M24 0l4 44h71l62 612h-90l4 44h153l163 -562q16 -53 22 -90h2q13 43 34 90l257 562h140l-4 -44h-71l-42 -612h83l-4 -44h-202l4 44h71l40 586h-2q-13 -38 -48 -111l-241 -519h-48l-155 519q-14 46 -23 90h-2l-55 -565h83l-4 -44h-202z" />
    <glyph glyph-name="N" unicode="N" horiz-adv-x="759" 
d="M24 0l4 44h71l51 612h-80l4 44h120l343 -572l8.5 -15t8.5 -16t6 -11h2l50 570h-89l4 44h208l-4 -44h-71l-57 -656h-48l-343 573q-11 20 -17 35h-2l-46 -564h89l-4 -44h-208z" />
    <glyph glyph-name="O" unicode="O" horiz-adv-x="722" 
d="M117 302q0 -117 45 -183q60 -89 175 -89q59 0 115 31t88 83q36 59 50.5 118.5t14.5 146.5q0 116 -53.5 188.5t-160.5 72.5q-62 0 -110.5 -23.5t-78.5 -60t-50 -86.5t-27.5 -98.5t-7.5 -99.5zM61 302q0 192 93 302t240 110q128 0 197.5 -84t69.5 -226q0 -80 -18.5 -152
t-55.5 -133t-102.5 -97t-150.5 -36q-136 0 -204.5 88t-68.5 228z" />
    <glyph glyph-name="P" unicode="P" horiz-adv-x="537" 
d="M210 656l-28 -319q34 -4 66 -4q58 0 100.5 16.5t64.5 44t32 57.5t10 63q0 142 -167 142h-78zM32 0l4 44h68l54 612h-83l4 44h202q83 0 134 -23q92 -41 92 -157q0 -104 -65 -165.5t-194 -61.5q-42 0 -70 4l-22 -253h91l-4 -44h-211z" />
    <glyph glyph-name="Q" unicode="Q" horiz-adv-x="722" 
d="M117 302q0 -117 45 -183q60 -89 175 -89q59 0 115 31t88 83q36 59 50.5 118.5t14.5 146.5q0 116 -53.5 188.5t-160.5 72.5q-62 0 -110.5 -23.5t-78.5 -60t-50 -86.5t-27.5 -98.5t-7.5 -99.5zM775 -122l-4 -43q-38 -17 -62 -17q-36 0 -132 54l-105 60q-1 0 -15.5 8.5
l-19 11l-18.5 10t-21.5 10l-20 7t-23 6t-21.5 1.5q-136 0 -204 88.5t-68 227.5q0 192 93 302t240 110q128 0 197.5 -84t69.5 -226q0 -153 -61.5 -264.5t-174.5 -141.5v-2q37 -4 92 -36l83 -49q82 -49 114 -49q24 0 61 16z" />
    <glyph glyph-name="R" unicode="R" horiz-adv-x="611" 
d="M210 656l-26 -295q42 -3 79 -3q92 0 142 48t50 124q0 26 -6.5 46.5t-15 34t-25.5 22.5t-29 13.5t-34.5 6.5t-34.5 2.5t-35 0.5h-65zM32 0l4 44h68l54 612h-83l4 44h208q92 0 137 -22q83 -39 83 -148q0 -88 -57 -143.5t-145 -55.5v-2q39 -3 63 -23.5t53 -80.5l38 -78
q35 -71 49 -87t38 -16h42l-4 -44h-68q-31 0 -49.5 20.5t-51.5 89.5l-52 109q-29 61 -54.5 80t-78.5 19h-50l-24 -274h83l-4 -44h-203z" />
    <glyph glyph-name="S" unicode="S" horiz-adv-x="537" 
d="M423 561v90q-45 15 -119 19q-94 0 -138.5 -41.5t-44.5 -104.5q0 -50 27.5 -74.5t78.5 -42.5l116 -42q67 -25 104 -63.5t37 -105.5q0 -83 -64.5 -146.5t-190.5 -63.5q-82 0 -195 34l11 135h40l-3 -100q69 -25 141 -25q105 0 155 48t50 115q0 29 -10.5 51t-34.5 38t-39 23
t-48 19l-78 29q-73 27 -113 62.5t-40 99.5q0 92 64.5 145.5t175.5 53.5q83 0 166 -28l-8 -125h-40z" />
    <glyph glyph-name="T" unicode="T" horiz-adv-x="593" 
d="M164 0l4 44h68l54 612h-208l-15 -99h-44l16 143h563l-12 -143h-44l4 99h-208l-54 -612h85l-4 -44h-205z" />
    <glyph glyph-name="U" unicode="U" horiz-adv-x="722" 
d="M61 656l4 44h202l-4 -44h-67l-30 -324q-10 -107 -10 -153q0 -149 175 -149q33 0 61 5t48.5 12t37 20.5t27.5 24.5t19.5 30t13 31t8 34t4.5 32l3 31l35 406h-89l4 44h202l-4 -44h-69l-35 -412q-12 -131 -57 -180q-73 -78 -212 -78q-224 0 -224 195q0 19 10 137l30 338h-83
z" />
    <glyph glyph-name="V" unicode="V" horiz-adv-x="685" 
d="M282 0l-169 656h-82l4 44h202l-4 -44h-68l137 -537q6 -23 14 -71h2q14 48 24 71l227 537h-82l4 44h202l-4 -44h-68l-287 -656h-52z" />
    <glyph glyph-name="W" unicode="W" horiz-adv-x="1019" 
d="M280 0l-163 656h-82l4 44h202l-4 -44h-68l136 -550q1 -4 12 -62h2q19 59 21 62l176 418l-33 132h-82l4 44h202l-4 -44h-68l134 -533q7 -27 15 -79h2q12 44 24 79l194 533h-85l4 44h204l-4 -44h-71l-242 -656h-62l-111 450h-2l-193 -450h-62z" />
    <glyph glyph-name="X" unicode="X" horiz-adv-x="704" 
d="M20 0l4 44h67l237 320l-161 292h-83l4 44h202l-4 -44h-67q10 -12 17 -24l124 -225l166 225q14 18 21 24h-89l4 44h205l-4 -44h-67l-214 -290l177 -322h82l-4 -44h-202l4 44h68q-4 4 -16 24l-140 254l-187 -254q-10 -16 -20 -24h88l-4 -44h-208z" />
    <glyph glyph-name="Y" unicode="Y" horiz-adv-x="667" 
d="M209 0l4 44h69l22 253l-200 359h-82l4 44h202l-4 -44h-65q4 -4 16 -24l161 -292l208 292q10 16 20 24h-85l4 44h205l-4 -44h-71l-257 -357l-22 -255h84l-4 -44h-205z" />
    <glyph glyph-name="Z" unicode="Z" horiz-adv-x="611" 
d="M28 0l3 36l458 589q13 17 30 31l-2 2q-7 -2 -26 -2h-342l-13 -98h-44l11 142h480l-3 -36l-462 -596q-3 -3 -23 -26q28 2 41 2h354l16 100h44l-15 -144h-507z" />
    <glyph glyph-name="bracketleft" unicode="[" horiz-adv-x="296" 
d="M63 -251l89 1020h158l-4 -44h-109l-82 -932h99l-4 -44h-147z" />
    <glyph glyph-name="backslash" unicode="\" horiz-adv-x="389" 
d="M68 777l290 -834l-40 -20l-290 834z" />
    <glyph glyph-name="bracketright" unicode="]" horiz-adv-x="296" 
d="M217 769l-89 -1020h-158l4 44h109l82 932h-99l4 44h147z" />
    <glyph glyph-name="asciicircum" unicode="^" horiz-adv-x="600" 
d="M93 335l183 365h48l183 -365h-56l-151 299l-151 -299h-56z" />
    <glyph glyph-name="underscore" unicode="_" horiz-adv-x="500" 
d="M0 -125v50h500v-50h-500z" />
    <glyph glyph-name="grave" unicode="`" 
d="M91 745l124 -120l-34 -29l-130 121z" />
    <glyph glyph-name="a" unicode="a" horiz-adv-x="537" 
d="M347 0l25 228q1 8 11 56h-2q-14 -52 -15 -56q-14 -42 -31.5 -79.5t-42 -75.5t-58.5 -60.5t-71 -22.5q-111 0 -111 186q0 68 15 128t45 110.5t83 80t122 29.5q49 0 97 -19h29q-11 -54 -20 -165l-24 -296h82l-4 -44h-130zM384 434l5 31q-48 19 -84 19q-96 0 -151 -90
q-50 -86 -50 -217q0 -139 66 -139q59 0 121 101t93 295z" />
    <glyph glyph-name="b" unicode="b" horiz-adv-x="537" 
d="M81 21l64 704h-96l4 44h146l-41 -433l-15 -93h2l15 60q6 25 23 59.5t43.5 72t64.5 63.5t78 26q41 0 68.5 -28.5t37.5 -67t10 -85.5q0 -36 -6 -76.5t-24 -91.5t-45.5 -90.5t-77.5 -67t-114 -27.5q-72 0 -137 31zM139 72l-3 -27q51 -15 86 -15q57 0 100 30.5t66 79.5
t34 100t11 101q0 61 -17 100t-54 39q-64 0 -133.5 -113.5t-89.5 -294.5z" />
    <glyph glyph-name="c" unicode="c" horiz-adv-x="407" 
d="M354 80l-4 -52q-21 -14 -60.5 -26t-75.5 -12q-89 0 -136 61t-47 168q0 130 62 217.5t182 87.5q45 0 107 -17l-12 -121h-44l4 87q-18 7 -51 7q-99 0 -147.5 -74.5t-48.5 -182.5q0 -185 137 -185q62 0 134 42z" />
    <glyph glyph-name="d" unicode="d" horiz-adv-x="537" 
d="M381 399l8 64q-34 17 -82 17q-58 0 -100.5 -30t-63 -77.5t-30 -93.5t-9.5 -91q0 -150 69 -150q39 0 76.5 41.5t64 101t44 118t23.5 100.5zM348 0l22 205q1 12 3.5 26t6 31.5t5.5 26.5h-2q-1 -5 -6 -25.5t-8 -30.5q-13 -37 -23.5 -63.5t-30 -63t-39.5 -59.5t-50 -40
t-63 -17q-50 0 -80.5 49.5t-30.5 131.5q0 168 81 269q68 84 184 84q43 0 75 -13l20 214h-97l4 44h145l-64 -725h82l-4 -44h-130z" />
    <glyph glyph-name="e" unicode="e" horiz-adv-x="444" 
d="M372 81l-4 -51q-70 -40 -147 -40q-97 0 -136.5 56t-39.5 159q0 58 14 112.5t42 102t76.5 76t110.5 28.5q58 0 90.5 -29.5t32.5 -80.5q0 -50 -31 -90t-81 -63.5t-100 -37t-102 -19.5q0 -24 1 -39t7.5 -43t19.5 -44.5t39.5 -30t63.5 -13.5q60 0 144 47zM359 410
q0 27 -18.5 48.5t-62.5 21.5q-76 0 -124.5 -65.5t-56.5 -166.5q112 9 187 53t75 109z" />
    <glyph glyph-name="f" unicode="f" horiz-adv-x="333" 
d="M54 470l4 44h79q9 138 59.5 200.5t170.5 62.5q17 0 45.5 -4.5t35.5 -8.5l-4 -44q-36 13 -77 13q-55 0 -90 -14.5t-53 -47t-25 -66.5t-10 -91h148l-4 -44h-147l-27 -358q-5 -65 -9.5 -104.5t-13.5 -88.5t-22.5 -77.5t-35 -55t-53 -38t-73.5 -11.5q-35 0 -88 17l4 44
q46 -17 80 -17q83 0 115.5 72t45.5 259l25 358h-80z" />
    <glyph glyph-name="g" unicode="g" horiz-adv-x="537" 
d="M39 -216l4 53q66 -44 139 -44q30 0 54.5 5t42.5 18t31 25t22.5 35t15 39t10 47t6.5 48.5t5 52.5l8 83q5 62 25 148h-2q-2 -4 -7.5 -22.5t-9.5 -27.5q-50 -122 -87 -172q-58 -78 -128 -78q-34 0 -58 17.5t-36 46.5t-17 58t-5 61q0 35 6 75t24 90t46.5 89t78.5 66t115 27
q55 0 104 -19h34q-9 -50 -14 -110q-2 -18 -10 -124.5t-15.5 -197t-11.5 -114.5q-5 -32 -10 -53t-21 -54t-38 -52.5t-62.5 -35t-94.5 -15.5q-69 0 -144 35zM394 399l10 67q-40 18 -80 18q-58 0 -102.5 -27t-69 -72.5t-36.5 -98t-12 -110.5q0 -67 19 -102.5t52 -35.5
q44 0 92 60t81.5 143t45.5 158z" />
    <glyph glyph-name="h" unicode="h" horiz-adv-x="556" 
d="M47 725l4 44h146l-42 -430q-2 -21 -5 -41t-7 -43t-6 -36h2q2 7 5.5 21.5t5.5 21.5q11 38 28.5 78t45.5 84t68.5 72t85.5 28q86 0 86 -121q0 -73 -38 -359h83l-4 -44h-135q46 312 46 400q0 76 -50 76q-19 0 -42 -11.5t-53 -45t-57 -84t-52 -138t-39 -197.5h-48
q15 114 25 222l44 503h-97z" />
    <glyph glyph-name="i" unicode="i" 
d="M92 0l42 470h-85l4 44h133l-42 -470h85l-4 -44h-133zM129 725q0 24 14 38t33 14t30 -12.5t11 -32.5q0 -22 -13 -35.5t-35 -13.5q-18 0 -29 12.5t-11 29.5z" />
    <glyph glyph-name="j" unicode="j" 
d="M-97 -263l-12 40q107 37 149.5 101t56.5 217l34 375h-84l3 44h136l-37 -412q-11 -121 -39 -191.5t-75.5 -108.5t-131.5 -65zM129 725q0 24 14 38t33 14t30 -12.5t11 -32.5q0 -22 -13 -35.5t-35 -13.5q-18 0 -29 12.5t-11 29.5z" />
    <glyph glyph-name="k" unicode="k" horiz-adv-x="519" 
d="M404 417q0 28 -15 43.5t-41 15.5q-66 0 -117 -63.5t-76 -159.5q97 15 173 61.5t76 102.5zM463 44l-4 -44h-106l-201 238q-15 -66 -29 -238h-48q15 114 25 222l44 503h-97l4 44h146l-25 -286q-4 -48 -28 -174h2q11 37 17 51q71 164 191 164q44 0 73 -27.5t29 -72.5
q0 -61 -66.5 -115t-167.5 -75l162 -190h79z" />
    <glyph glyph-name="l" unicode="l" horiz-adv-x="259" 
d="M75 0l64 725h-92l4 44h140l-64 -725h85l-4 -44h-133z" />
    <glyph glyph-name="m" unicode="m" horiz-adv-x="852" 
d="M37 470l4 44h135l-13 -146q-6 -73 -19 -140h2q4 12 7 29q6 27 21 64t42 86.5t69.5 83t91.5 33.5q52 0 69 -33.5t17 -91.5q0 -43 -15 -123h2q8 30 24 67t42.5 80.5t66.5 72t84 28.5q25 0 42 -10t25.5 -22.5t13.5 -33t5.5 -33t0.5 -31.5q0 -63 -41 -350h81l-4 -44h-133
l17 110.5t23 163t9 116.5q0 18 -1 29t-5.5 26.5t-16 23t-29.5 7.5q-48 0 -104.5 -74.5t-86.5 -175.5q-23 -76 -45 -226h-48l9.5 64l10.5 72l9 65.5t8.5 71.5t5 61t2.5 61q0 81 -48 81q-30 0 -65 -28.5t-69.5 -83t-62.5 -150t-39 -214.5h-48q6 35 21 211l19 259h-86z" />
    <glyph glyph-name="n" unicode="n" horiz-adv-x="556" 
d="M31 470l4 44h140l-20 -175q-2 -21 -5 -41t-7 -43t-6 -36h2q2 7 5.5 21.5t5.5 21.5q11 38 28.5 78t45.5 84t68.5 72t85.5 28q86 0 86 -121q0 -73 -38 -359h83l-4 -44h-135q46 312 46 400q0 76 -50 76q-19 0 -42 -11.5t-53 -45t-57 -84t-52 -138t-39 -197.5h-48
q15 114 25 222l22 248h-91z" />
    <glyph glyph-name="o" unicode="o" horiz-adv-x="481" 
d="M31 220q0 78 22 144t76.5 113t134.5 47q77 0 124.5 -58t47.5 -172q0 -132 -60 -218t-167 -86q-78 0 -128 55t-50 175zM83 217q0 -79 31 -131t97 -52q47 0 82.5 24.5t54 64t27.5 81.5t9 86q0 95 -35.5 142.5t-93.5 47.5q-45 0 -79.5 -24t-54 -63.5t-29 -84t-9.5 -91.5z
" />
    <glyph glyph-name="p" unicode="p" horiz-adv-x="537" 
d="M433 347q0 133 -74 133q-63 0 -131.5 -117t-83.5 -237q-1 -12 -4.5 -37t-5.5 -37q59 -18 89 -18q57 0 99.5 28.5t65.5 75.5t34 99.5t11 109.5zM-11 -251l4 44h69l60 677h-84l4 44h133l-10 -112q-5 -60 -24 -165h2q2 6 6.5 25.5t7.5 30.5q32 99 87 165t127 66q34 0 58 -18
t35.5 -48.5t16 -60.5t4.5 -63q0 -83 -27 -158.5t-87 -128.5t-142 -53q-59 0 -98 13l-21 -214h86l-4 -44h-203z" />
    <glyph glyph-name="q" unicode="q" horiz-adv-x="537" 
d="M273 -251l4 44h69l28 318q6 67 28 183h-2q-2 -4 -7.5 -22.5t-9.5 -27.5q-50 -122 -87 -172q-58 -78 -128 -78q-34 0 -58 17.5t-36 46.5t-17 58t-5 61q0 35 6 75t24 90t46.5 89t78.5 66t115 27q55 0 104 -19h34q-7 -36 -15 -132l-51 -580h85l-4 -44h-202zM394 399l10 67
q-40 18 -80 18q-58 0 -102.5 -27t-69 -72.5t-36.5 -98t-12 -110.5q0 -67 19 -102.5t52 -35.5q44 0 92 60t81.5 143t45.5 158z" />
    <glyph glyph-name="r" unicode="r" horiz-adv-x="389" 
d="M49 470l4 44h131l-14 -138q-6 -52 -17 -112h2q3 9 6.5 26l5.5 26q30 99 57 139q48 69 129 69q21 0 38 -5l-8 -47q-18 4 -34 4q-39 0 -71 -25t-53 -69t-36 -91t-24.5 -105t-14.5 -96t-9 -78q-1 -8 -1 -12h-48q21 215 25 269l16 201h-84z" />
    <glyph glyph-name="s" unicode="s" horiz-adv-x="444" 
d="M37 20v124h48v-88q10 -7 40.5 -14.5t60.5 -7.5q65 0 101 26.5t36 73.5q0 34 -21 55t-80 44q-99 39 -131.5 64.5t-32.5 82.5q0 68 50 106t137 38q59 0 130 -23v-119h-48v87q-43 15 -87 15q-54 0 -92 -24.5t-38 -75.5q0 -32 23.5 -51.5t79.5 -40.5q45 -17 65.5 -26.5
t47.5 -27.5t38 -41t11 -55q0 -65 -48 -108.5t-140 -43.5q-87 0 -150 30z" />
    <glyph glyph-name="t" unicode="t" horiz-adv-x="352" 
d="M42 470l4 44h88l12 136h48l-12 -136h154l-4 -44h-154l-21 -240q-8 -100 -8 -114q0 -82 64 -82q54 0 105 32l-3 -47q-56 -29 -112 -29q-60 0 -81 31.5t-21 83.5q0 17 7 115l22 250h-88z" />
    <glyph glyph-name="u" unicode="u" horiz-adv-x="574" 
d="M530 44l-4 -44h-140l20 171q3 23 10 64t9 55h-2q-5 -26 -17 -63q-9 -30 -26.5 -65.5t-45.5 -76.5t-68 -68t-83 -27q-86 0 -86 121q0 73 38 359h-83l4 44h135q-46 -312 -46 -400q0 -76 50 -76q19 0 42 11.5t53 45t57 84t52 138t39 197.5h48q-15 -114 -25 -222l-22 -248h91
z" />
    <glyph glyph-name="v" unicode="v" horiz-adv-x="556" 
d="M31 470l4 44h136q-1 -16 -7 -106.5t-6 -145.5q0 -123 16.5 -173.5t58.5 -50.5q58 0 109 80q64 101 86 298l6 54h-88l4 44h136l-6 -68q-13 -160 -62 -285q-31 -79 -85 -125t-105 -46q-25 0 -44 9t-31 21t-20.5 36t-13 42.5t-6.5 53.5t-2.5 55.5t-0.5 60.5q0 58 8 202h-87z
" />
    <glyph glyph-name="w" unicode="w" horiz-adv-x="815" 
d="M31 470l4 44h137q-3 -16 -12 -124.5t-9 -168.5q0 -29 0.5 -44t2.5 -40.5t7 -39.5t13 -29.5t21.5 -22.5t32.5 -7q46 0 88 60t57 131q13 60 34 285h48q-17 -223 -17 -279q0 -95 16.5 -146t64.5 -51q43 0 77 39t52 92.5t29.5 119t15 109.5t3.5 72h-84l3 44h133
q-2 -34 -3 -56.5t-5.5 -67t-9.5 -76.5t-14.5 -76.5t-21.5 -76.5t-30 -66.5t-39.5 -55.5t-51 -35t-63.5 -14q-58 0 -85 46t-27 119v40h-2q-20 -90 -67.5 -147.5t-112.5 -57.5q-28 0 -49 10t-33.5 30.5t-20 39t-10.5 49t-3.5 47.5t-0.5 46q0 61 16 258h-84z" />
    <glyph glyph-name="x" unicode="x" horiz-adv-x="537" 
d="M31 0l4 40l207 227l-114 203h-78l4 44h110l115 -211l150 167h-87l4 44h144l-4 -44l-186 -205l120 -221h82l-4 -44h-111l-122 227l-168 -183h80l-4 -44h-142z" />
    <glyph glyph-name="y" unicode="y" horiz-adv-x="519" 
d="M22 470l4 44h116l102 -404q6 -26 14 -71h2q7 22 23 66l138 365h-87l4 44h140l-4 -32q-13 -40 -35.5 -100l-66.5 -171.5l-72 -183.5q-64 -166 -118 -228t-138 -62q-30 0 -49 7l7 44q22 -7 44 -7q28 0 50 9t37.5 21.5t33 41t29.5 54l33 72.5l-132 491h-75z" />
    <glyph glyph-name="z" unicode="z" horiz-adv-x="481" 
d="M31 0l4 42l308 396q13 18 29 32h-269l-11 -80h-40l11 124h374l-4 -33l-308 -400q-16 -21 -32 -37h284l12 80h40l-12 -124h-386z" />
    <glyph glyph-name="braceleft" unicode="{" horiz-adv-x="296" 
d="M305 769l-4 -44h-41q-56 0 -64 -77l-19 -224q-13 -150 -83 -164v-2q57 -20 57 -107q0 -10 -11 -155q-12 -132 -12 -152q0 -51 50 -51h42l-4 -44h-51q-89 0 -89 106q0 50 12 148q11 108 11 148q0 83 -55 86l4 44q34 2 52.5 36t25.5 117l17 199q11 136 111 136h51z" />
    <glyph glyph-name="bar" unicode="|" horiz-adv-x="222" 
d="M87 -250v1000h48v-1000h-48z" />
    <glyph glyph-name="braceright" unicode="}" horiz-adv-x="296" 
d="M-39 -251l4 44h41q56 0 64 77l19 224q13 150 83 164v2q-57 20 -57 107q0 10 11 155q12 132 12 152q0 51 -50 51h-42l4 44h51q89 0 89 -106q0 -50 -12 -148q-11 -108 -11 -148q0 -83 55 -86l-4 -44q-34 -2 -52.5 -36t-25.5 -117l-17 -199q-11 -136 -111 -136h-51z" />
    <glyph glyph-name="asciitilde" unicode="~" horiz-adv-x="600" 
d="M105 195l-36 30q45 86 125 86q39 0 115 -34t98 -34q19 0 37 12.5t25.5 22l25.5 33.5l36 -30q-20 -27 -33 -42t-38 -29.5t-54 -14.5q-38 0 -104 34q-64 34 -113 34t-84 -68z" />
    <glyph glyph-name="uni00A0" unicode="&#xa0;" 
 />
    <glyph glyph-name="exclamdown" unicode="&#xa1;" horiz-adv-x="296" 
d="M212 491q0 -22 -12 -37t-32 -15q-19 0 -30.5 14t-11.5 33q0 20 13 33t30 13q20 0 31.5 -11.5t11.5 -29.5zM173 290l-40 -533h-56l52 533h44z" />
    <glyph glyph-name="cent" unicode="&#xa2;" horiz-adv-x="556" 
d="M258 37l39 443q-75 -10 -115 -85.5t-40 -178.5q0 -71 28.5 -119.5t87.5 -59.5zM243 -131l11 121q-78 8 -121 68t-43 158q0 79 20 140t52.5 95.5t67.5 52t71 20.5l9 107h40l-9 -107q68 0 132 -20l-12 -118h-44l4 82q-42 12 -84 12l-39 -446q35 0 75 13t68 32l-7 -54
q-63 -35 -140 -35l-11 -121h-40z" />
    <glyph glyph-name="sterling" unicode="&#xa3;" horiz-adv-x="556" 
d="M481 142l-15 -142h-453l4 44h65q57 75 57 285v16h-101l4 44h97v42q0 279 235 279q74 0 152 -27l-12 -127h-44l4 96q-37 14 -99 14q-100 0 -142 -57t-42 -174v-46h155l-4 -44h-151v-28q0 -92 -15.5 -169t-45.5 -102v-2h291l16 98h44z" />
    <glyph glyph-name="currency" unicode="&#xa4;" horiz-adv-x="556" 
d="M30 140l53 56q-53 66 -53 154t53 154l-53 56l38 38l53 -56q66 56 157 56t157 -56l53 56l38 -38l-53 -56q53 -66 53 -154t-53 -154l53 -56l-38 -38l-53 56q-66 -56 -157 -56t-157 56l-53 -56zM78 350q0 -82 59 -141t141 -59t141 59t59 141t-59 141t-141 59t-141 -59
t-59 -141z" />
    <glyph glyph-name="yen" unicode="&#xa5;" horiz-adv-x="556" 
d="M108 179l4 40h140l8 79h-140l4 40h116l-143 318h-67l4 44h168l-4 -44h-53l141 -314l196 314h-71l4 44h171l-4 -44h-60l-195 -318h121l-4 -40h-140l-8 -79h140l-4 -40h-140l-13 -135h70l-4 -44h-171l4 44h57l13 135h-140z" />
    <glyph glyph-name="brokenbar" unicode="&#xa6;" horiz-adv-x="222" 
d="M87 -175v350h48v-350h-48zM87 325v350h48v-350h-48z" />
    <glyph glyph-name="section" unicode="&#xa7;" horiz-adv-x="556" 
d="M473 693l-12 -122h-44l4 88q-41 15 -100 15q-62 0 -108 -27.5t-46 -85.5q0 -32 14.5 -55.5t31 -35.5t54.5 -34l99 -57q45 -26 70.5 -57t25.5 -80q0 -57 -38 -98.5t-85 -49.5v-2q96 -49 96 -130q0 -77 -59.5 -123t-153.5 -46q-20 0 -40 1.5t-34 3.5t-32 6t-25.5 6t-24 7
t-20.5 6l12 122h44l-4 -85q46 -23 127 -23q64 0 111 28.5t47 91.5q0 35 -20.5 57.5t-60.5 45.5l-105 60q-114 64 -114 147q0 59 37 99.5t87 50.5v2q-36 16 -64 49t-28 83q0 75 53.5 119t150.5 44q78 0 154 -21zM328 345l-94 53q-99 -45 -99 -124q0 -82 173 -161
q39 13 70.5 43.5t31.5 76.5q0 31 -16 57.5t-66 54.5z" />
    <glyph glyph-name="dieresis" unicode="&#xa8;" 
d="M83 632q-38 0 -38 36q0 17 10.5 31.5t33.5 14.5q15 0 24.5 -10.5t9.5 -26.5q0 -13 -9.5 -29t-30.5 -16zM281 632q-38 0 -38 36q0 17 10.5 31.5t33.5 14.5q15 0 24.5 -10.5t9.5 -26.5q0 -13 -9.5 -29t-30.5 -16z" />
    <glyph glyph-name="copyright" unicode="&#xa9;" horiz-adv-x="800" 
d="M36 350q0 151 106.5 257.5t257.5 106.5t257.5 -106.5t106.5 -257.5t-106.5 -257.5t-257.5 -106.5t-257.5 106.5t-106.5 257.5zM543 275h52q-16 -74 -65 -114.5t-121 -40.5q-97 0 -156.5 65.5t-59.5 164.5q0 101 58 165t158 64q73 0 124.5 -40t61.5 -111h-52
q-9 45 -44.5 74t-89.5 29q-78 0 -121 -50.5t-43 -130.5q0 -74 45 -128t119 -54q54 0 89.5 30t44.5 77zM84 350q0 -131 92.5 -223.5t223.5 -92.5t223.5 92.5t92.5 223.5t-92.5 223.5t-223.5 92.5t-223.5 -92.5t-92.5 -223.5z" />
    <glyph glyph-name="ordfeminine" unicode="&#xaa;" horiz-adv-x="349" 
d="M243 398l19 139h-2q-12 -29 -23 -49.5t-28.5 -45.5t-39 -38.5t-45.5 -13.5q-44 0 -61.5 33.5t-17.5 78.5q0 83 43.5 145.5t131.5 62.5q20 0 67 -10h33q-5 -20 -12 -100l-17 -170h47l-3 -32h-92zM93 502q0 -76 43 -76q33 0 77 68t54 155l2 18q-24 11 -47 11
q-37 0 -64.5 -20t-40.5 -51t-18.5 -57t-5.5 -48z" />
    <glyph glyph-name="guillemotleft" unicode="&#xab;" horiz-adv-x="463" 
d="M355 98l-128 151l4 36l152 137l32 -32l-138 -125l115 -135zM179 98l-128 151l4 36l152 137l32 -32l-138 -125l115 -135z" />
    <glyph glyph-name="logicalnot" unicode="&#xac;" horiz-adv-x="600" 
d="M505 111v216h-458v48h506v-264h-48z" />
    <glyph glyph-name="uni00AD" unicode="&#xad;" horiz-adv-x="352" 
d="M65 236l4 48h208l-4 -48h-208z" />
    <glyph glyph-name="registered" unicode="&#xae;" horiz-adv-x="800" 
d="M261 131v439h169q143 0 143 -122q0 -103 -110 -122l130 -195h-54l-130 195h-100v-195h-48zM309 526v-156h110q106 -2 106 79q0 77 -106 77h-110zM36 350q0 151 106.5 257.5t257.5 106.5t257.5 -106.5t106.5 -257.5t-106.5 -257.5t-257.5 -106.5t-257.5 106.5
t-106.5 257.5zM84 350q0 -131 92.5 -223.5t223.5 -92.5t223.5 92.5t92.5 223.5t-92.5 223.5t-223.5 92.5t-223.5 -92.5t-92.5 -223.5z" />
    <glyph glyph-name="macron" unicode="&#xaf;" 
d="M65 646l4 44h224l-4 -44h-224z" />
    <glyph glyph-name="degree" unicode="&#xb0;" horiz-adv-x="400" 
d="M67 567q0 59 42 101t101 42t101 -42t42 -101t-42 -101t-101 -42t-101 42t-42 101zM111 567q0 -41 29 -70t70 -29t70 29t29 70t-29 70t-70 29t-70 -29t-29 -70z" />
    <glyph glyph-name="plusminus" unicode="&#xb1;" horiz-adv-x="600" 
d="M276 322v184h48v-184h229v-48h-229v-184h-48v184h-229v48h229zM47 0v48h506v-48h-506z" />
    <glyph glyph-name="two.superior" unicode="&#xb2;" horiz-adv-x="361" 
d="M28 284l3 37l87.5 81l70 69.5t61.5 75t18 53.5q0 32 -20.5 53t-52.5 21q-44 0 -66 -19.5t-36 -58.5h-44q9 47 46 82.5t105 35.5q57 0 86.5 -33t29.5 -73q0 -37 -26.5 -82.5t-111.5 -121.5l-90 -80h228l-3 -40h-285z" />
    <glyph glyph-name="three.superior" unicode="&#xb3;" horiz-adv-x="361" 
d="M30 295l3 44q33 -23 112 -23q57 0 88.5 24.5t31.5 64.5q0 27 -12 44t-36 24t-45 9t-54 2l3 40h13q59 0 95.5 27.5t36.5 62.5q0 25 -18.5 42.5t-55.5 17.5q-71 0 -88 -61h-44q0 2 2 11t11 25t22.5 30t40.5 24.5t61 10.5q58 0 86 -27t28 -64q0 -47 -32 -75.5t-84 -37.5v-2
q118 -11 118 -98q0 -55 -44 -94.5t-129 -39.5q-50 0 -110 19z" />
    <glyph glyph-name="acute" unicode="&#xb4;" 
d="M306 718l-149 -122l-33 28l142 121z" />
    <glyph glyph-name="mu" unicode="&#xb5;" horiz-adv-x="574" 
d="M530 44l-4 -44h-140l20 171q3 23 10 64t9 55h-2q-5 -26 -17 -63q-9 -30 -26.5 -65.5t-45.5 -76.5t-68 -68t-83 -27q-41 0 -55 29h-2l-32 -270h-48q33 309 89 721h-83l4 44h135q-46 -312 -46 -400q0 -76 50 -76q19 0 42 11.5t53 45t57 84t52 138t39 197.5h48
q-15 -114 -25 -222l-22 -248h91z" />
    <glyph glyph-name="paragraph" unicode="&#xb6;" horiz-adv-x="600" 
d="M193 -193l45 513q-66 0 -108 52.5t-40 129.5q1 93 60 145.5t146 52.5h176l-78 -893h-48l74 849h-105l-74 -849h-48z" />
    <glyph glyph-name="periodcentered" unicode="&#xb7;" 
d="M83 292q0 23 16.5 39.5t39.5 16.5t39.5 -16.5t16.5 -39.5t-16.5 -39.5t-39.5 -16.5t-39.5 16.5t-16.5 39.5z" />
    <glyph glyph-name="cedilla" unicode="&#xb8;" 
d="M57 -198l3 43q42 -14 77 -14q54 0 54 38q0 18 -16 26.5t-36 8.5q-6 0 -21 -3l8 99h44l-8 -64q85 0 85 -63q0 -34 -29 -60t-80 -26q-36 0 -81 15z" />
    <glyph glyph-name="one.superior" unicode="&#xb9;" horiz-adv-x="361" 
d="M72 284l4 40h76l35 334l-119 -65l-13 36l142 77h40l-37 -382h88l-4 -40h-212z" />
    <glyph glyph-name="ordmasculine" unicode="&#xba;" horiz-adv-x="361" 
d="M59 526q0 76 39 130t118 54q53 0 84.5 -35t31.5 -105q0 -78 -40 -129t-112 -51q-54 0 -87.5 32.5t-33.5 103.5zM107 530q0 -44 18 -72t56 -28q53 0 78 43.5t25 94.5q0 50 -21.5 76t-52.5 26q-50 0 -76.5 -44.5t-26.5 -95.5z" />
    <glyph glyph-name="guillemotright" unicode="&#xbb;" horiz-adv-x="463" 
d="M101 422l128 -151l-4 -36l-152 -137l-32 32l138 125l-115 135zM277 422l128 -151l-4 -36l-152 -137l-32 32l138 125l-115 135z" />
    <glyph glyph-name="onequarter" unicode="&#xbc;" horiz-adv-x="834" 
d="M676 172l21 190h-2l-174 -190h155zM662 40l10 92h-204l3 38l227 252h49l-23 -250h73l-3 -40h-74l-10 -92h51l-3 -40h-139l3 40h40zM168 -27l462 775l37 -21l-462 -775zM72 284l4 40h76l35 334l-119 -65l-13 36l142 77h40l-37 -382h88l-4 -40h-212z" />
    <glyph glyph-name="onehalf" unicode="&#xbd;" horiz-adv-x="834" 
d="M168 -27l462 775l37 -21l-462 -775zM72 284l4 40h76l35 334l-119 -65l-13 36l142 77h40l-37 -382h88l-4 -40h-212zM501 0l3 37l87.5 81l70 69.5t61.5 75t18 53.5q0 32 -20.5 53t-52.5 21q-44 0 -66 -19.5t-36 -58.5h-44q9 47 46 82.5t105 35.5q57 0 86.5 -33t29.5 -73
q0 -37 -26.5 -82.5t-111.5 -121.5l-90 -80h228l-3 -40h-285z" />
    <glyph glyph-name="threequarters" unicode="&#xbe;" horiz-adv-x="834" 
d="M676 172l21 190h-2l-174 -190h155zM662 40l10 92h-204l3 38l227 252h49l-23 -250h73l-3 -40h-74l-10 -92h51l-3 -40h-139l3 40h40zM168 -27l462 775l37 -21l-462 -775zM30 295l3 44q33 -23 112 -23q57 0 88.5 24.5t31.5 64.5q0 27 -12 44t-36 24t-45 9t-54 2l3 40h13
q59 0 95.5 27.5t36.5 62.5q0 25 -18.5 42.5t-55.5 17.5q-71 0 -88 -61h-44q0 2 2 11t11 25t22.5 30t40.5 24.5t61 10.5q58 0 86 -27t28 -64q0 -47 -32 -75.5t-84 -37.5v-2q118 -11 118 -98q0 -55 -44 -94.5t-129 -39.5q-50 0 -110 19z" />
    <glyph glyph-name="questiondown" unicode="&#xbf;" horiz-adv-x="481" 
d="M240 282l40 31q44 -47 44 -91q0 -9 -2 -18t-4 -15.5t-7 -14.5t-8.5 -13t-11.5 -12.5t-11 -11t-13 -10.5l-13 -9l-14 -9.5t-13 -8.5l-68 -45q-91 -60 -91 -139q0 -56 38.5 -87.5t100.5 -31.5q64 0 107 19l10 -45q-66 -22 -124 -22q-89 0 -136.5 46.5t-47.5 113.5
q0 59 30.5 102t64.5 66l68 46l55 38t26 25.5t12 31.5q0 14 -5 25t-15 23.5t-12 15.5zM333 491q0 -22 -12 -37t-32 -15q-19 0 -30.5 14t-11.5 33q0 20 13 33t30 13q20 0 31.5 -11.5t11.5 -29.5z" />
    <glyph glyph-name="Agrave" unicode="&#xc0;" horiz-adv-x="759" 
d="M9 0l4 44h70l301 661h56l184 -661h84l-4 -44h-206l4 44h65l-65 240h-260l-107 -240h84l-4 -44h-206zM490 328l-69 259q-12 47 -15 70h-2q-10 -30 -27 -70l-115 -259h228zM332 891l124 -120l-34 -29l-130 121z" />
    <glyph glyph-name="Aacute" unicode="&#xc1;" horiz-adv-x="759" 
d="M9 0l4 44h70l301 661h56l184 -661h84l-4 -44h-206l4 44h65l-65 240h-260l-107 -240h84l-4 -44h-206zM490 328l-69 259q-12 47 -15 70h-2q-10 -30 -27 -70l-115 -259h228zM547 864l-149 -122l-33 28l142 121z" />
    <glyph glyph-name="Acircumflex" unicode="&#xc2;" horiz-adv-x="759" 
d="M9 0l4 44h70l301 661h56l184 -661h84l-4 -44h-206l4 44h65l-65 240h-260l-107 -240h84l-4 -44h-206zM490 328l-69 259q-12 47 -15 70h-2q-10 -30 -27 -70l-115 -259h228zM278 786l129 101h42l113 -101l-40 -28l-98 93l-112 -93z" />
    <glyph glyph-name="Atilde" unicode="&#xc3;" horiz-adv-x="759" 
d="M9 0l4 44h70l301 661h56l184 -661h84l-4 -44h-206l4 44h65l-65 240h-260l-107 -240h84l-4 -44h-206zM490 328l-69 259q-12 47 -15 70h-2q-10 -30 -27 -70l-115 -259h228zM537 846l36 -27q-35 -64 -88 -64q-24 0 -67 29q-41 28 -58 28q-13 0 -23.5 -9.5t-15 -17.5
t-11.5 -25l-41 18q10 31 33.5 56.5t54.5 25.5q33 0 73 -28q41 -29 55 -29q16 0 27 10.5t25 32.5z" />
    <glyph glyph-name="Adieresis" unicode="&#xc4;" horiz-adv-x="759" 
d="M9 0l4 44h70l301 661h56l184 -661h84l-4 -44h-206l4 44h65l-65 240h-260l-107 -240h84l-4 -44h-206zM490 328l-69 259q-12 47 -15 70h-2q-10 -30 -27 -70l-115 -259h228zM324 778q-38 0 -38 36q0 17 10.5 31.5t33.5 14.5q15 0 24.5 -10.5t9.5 -26.5q0 -13 -9.5 -29
t-30.5 -16zM522 778q-38 0 -38 36q0 17 10.5 31.5t33.5 14.5q15 0 24.5 -10.5t9.5 -26.5q0 -13 -9.5 -29t-30.5 -16z" />
    <glyph glyph-name="Aring" unicode="&#xc5;" horiz-adv-x="759" 
d="M9 0l4 44h70l301 661h56l184 -661h84l-4 -44h-206l4 44h65l-65 240h-260l-107 -240h84l-4 -44h-206zM490 328l-69 259q-12 47 -15 70h-2q-10 -30 -27 -70l-115 -259h228zM376 812q0 -21 12 -35.5t33 -14.5q25 0 37 18.5t12 41.5q0 51 -43 51q-23 0 -37 -18t-14 -43z
M336 808q0 39 26 70t69 31q34 0 56.5 -22t22.5 -62q0 -45 -27 -72t-68 -27q-36 0 -57.5 24t-21.5 58z" />
    <glyph glyph-name="AE" unicode="&#xc6;" horiz-adv-x="944" 
d="M-1 0l4 44h64l399 656h425l-12 -143h-44l4 99h-236l-25 -286h247l-4 -44h-246l-26 -282h281l14 98h44l-13 -142h-451l4 44h69l26 282h-232l-169 -282h84l-4 -44h-203zM526 370l25 286h-64l-172 -286h211z" />
    <glyph glyph-name="Ccedilla" unicode="&#xc7;" horiz-adv-x="648" 
d="M567 146l-10 -131q-74 -25 -162 -29l-8 -50q85 0 85 -63q0 -34 -29 -60t-80 -26q-36 0 -81 15l3 43q42 -14 77 -14q54 0 54 38q0 18 -16 26.5t-36 8.5q-6 0 -21 -3l8 85q-79 5 -137.5 35t-90.5 77.5t-47 101.5t-15 116q0 43 8 90t33 104t64 100.5t107 73.5t156 30
q69 0 168 -29l-4 -132h-48l4 99q-60 18 -123 18q-69 0 -124 -22.5t-89 -58.5t-56.5 -84.5t-31 -96.5t-8.5 -99q0 -133 72.5 -206t199.5 -73q70 0 124 21l10 95h44z" />
    <glyph glyph-name="Egrave" unicode="&#xc8;" horiz-adv-x="556" 
d="M32 0l4 44h68l54 612h-83l4 44h434l-12 -142h-44l4 98h-251l-24 -271h257l-3 -44h-258l-26 -297h281l14 98h44l-13 -142h-450zM230 891l124 -120l-34 -29l-130 121z" />
    <glyph glyph-name="Eacute" unicode="&#xc9;" horiz-adv-x="556" 
d="M32 0l4 44h68l54 612h-83l4 44h434l-12 -142h-44l4 98h-251l-24 -271h257l-3 -44h-258l-26 -297h281l14 98h44l-13 -142h-450zM445 864l-149 -122l-33 28l142 121z" />
    <glyph glyph-name="Ecircumflex" unicode="&#xca;" horiz-adv-x="556" 
d="M32 0l4 44h68l54 612h-83l4 44h434l-12 -142h-44l4 98h-251l-24 -271h257l-3 -44h-258l-26 -297h281l14 98h44l-13 -142h-450zM176 786l129 101h42l113 -101l-40 -28l-98 93l-112 -93z" />
    <glyph glyph-name="Edieresis" unicode="&#xcb;" horiz-adv-x="556" 
d="M32 0l4 44h68l54 612h-83l4 44h434l-12 -142h-44l4 98h-251l-24 -271h257l-3 -44h-258l-26 -297h281l14 98h44l-13 -142h-450zM222 778q-38 0 -38 36q0 17 10.5 31.5t33.5 14.5q15 0 24.5 -10.5t9.5 -26.5q0 -13 -9.5 -29t-30.5 -16zM420 778q-38 0 -38 36
q0 17 10.5 31.5t33.5 14.5q15 0 24.5 -10.5t9.5 -26.5q0 -13 -9.5 -29t-30.5 -16z" />
    <glyph glyph-name="Igrave" unicode="&#xcc;" horiz-adv-x="314" 
d="M32 0l4 44h68l54 612h-83l4 44h203l-4 -44h-68l-54 -612h83l-4 -44h-203zM109 891l124 -120l-34 -29l-130 121z" />
    <glyph glyph-name="Iacute" unicode="&#xcd;" horiz-adv-x="314" 
d="M32 0l4 44h68l54 612h-83l4 44h203l-4 -44h-68l-54 -612h83l-4 -44h-203zM324 864l-149 -122l-33 28l142 121z" />
    <glyph glyph-name="Icircumflex" unicode="&#xce;" horiz-adv-x="314" 
d="M32 0l4 44h68l54 612h-83l4 44h203l-4 -44h-68l-54 -612h83l-4 -44h-203zM55 786l129 101h42l113 -101l-40 -28l-98 93l-112 -93z" />
    <glyph glyph-name="Idieresis" unicode="&#xcf;" horiz-adv-x="314" 
d="M32 0l4 44h68l54 612h-83l4 44h203l-4 -44h-68l-54 -612h83l-4 -44h-203zM101 778q-38 0 -38 36q0 17 10.5 31.5t33.5 14.5q15 0 24.5 -10.5t9.5 -26.5q0 -13 -9.5 -29t-30.5 -16zM299 778q-38 0 -38 36q0 17 10.5 31.5t33.5 14.5q15 0 24.5 -10.5t9.5 -26.5
q0 -13 -9.5 -29t-30.5 -16z" />
    <glyph glyph-name="Eth" unicode="&#xd0;" horiz-adv-x="722" 
d="M210 656l-24 -271h205l-4 -44h-205l-26 -297h142q184 0 265 146q55 98 55 215q0 104 -50 168q-34 44 -79.5 63.5t-124.5 19.5h-154zM32 0l4 44h68l26 297h-74l4 44h74l24 271h-83l4 44h262q100 0 150 -16t83 -43q100 -81 100 -243q0 -142 -76 -251q-102 -147 -302 -147
h-264z" />
    <glyph glyph-name="Ntilde" unicode="&#xd1;" horiz-adv-x="759" 
d="M24 0l4 44h71l51 612h-80l4 44h120l343 -572l8.5 -15t8.5 -16t6 -11h2l50 570h-89l4 44h208l-4 -44h-71l-57 -656h-48l-343 573q-11 20 -17 35h-2l-46 -564h89l-4 -44h-208zM537 846l36 -27q-35 -64 -88 -64q-24 0 -67 29q-41 28 -58 28q-13 0 -23.5 -9.5t-15 -17.5
t-11.5 -25l-41 18q10 31 33.5 56.5t54.5 25.5q33 0 73 -28q41 -29 55 -29q16 0 27 10.5t25 32.5z" />
    <glyph glyph-name="Ograve" unicode="&#xd2;" horiz-adv-x="722" 
d="M117 302q0 -117 45 -183q60 -89 175 -89q59 0 115 31t88 83q36 59 50.5 118.5t14.5 146.5q0 116 -53.5 188.5t-160.5 72.5q-62 0 -110.5 -23.5t-78.5 -60t-50 -86.5t-27.5 -98.5t-7.5 -99.5zM61 302q0 192 93 302t240 110q128 0 197.5 -84t69.5 -226q0 -80 -18.5 -152
t-55.5 -133t-102.5 -97t-150.5 -36q-136 0 -204.5 88t-68.5 228zM313 891l124 -120l-34 -29l-130 121z" />
    <glyph glyph-name="Oacute" unicode="&#xd3;" horiz-adv-x="722" 
d="M117 302q0 -117 45 -183q60 -89 175 -89q59 0 115 31t88 83q36 59 50.5 118.5t14.5 146.5q0 116 -53.5 188.5t-160.5 72.5q-62 0 -110.5 -23.5t-78.5 -60t-50 -86.5t-27.5 -98.5t-7.5 -99.5zM61 302q0 192 93 302t240 110q128 0 197.5 -84t69.5 -226q0 -80 -18.5 -152
t-55.5 -133t-102.5 -97t-150.5 -36q-136 0 -204.5 88t-68.5 228zM528 864l-149 -122l-33 28l142 121z" />
    <glyph glyph-name="Ocircumflex" unicode="&#xd4;" horiz-adv-x="722" 
d="M117 302q0 -117 45 -183q60 -89 175 -89q59 0 115 31t88 83q36 59 50.5 118.5t14.5 146.5q0 116 -53.5 188.5t-160.5 72.5q-62 0 -110.5 -23.5t-78.5 -60t-50 -86.5t-27.5 -98.5t-7.5 -99.5zM61 302q0 192 93 302t240 110q128 0 197.5 -84t69.5 -226q0 -80 -18.5 -152
t-55.5 -133t-102.5 -97t-150.5 -36q-136 0 -204.5 88t-68.5 228zM259 786l129 101h42l113 -101l-40 -28l-98 93l-112 -93z" />
    <glyph glyph-name="Otilde" unicode="&#xd5;" horiz-adv-x="722" 
d="M117 302q0 -117 45 -183q60 -89 175 -89q59 0 115 31t88 83q36 59 50.5 118.5t14.5 146.5q0 116 -53.5 188.5t-160.5 72.5q-62 0 -110.5 -23.5t-78.5 -60t-50 -86.5t-27.5 -98.5t-7.5 -99.5zM61 302q0 192 93 302t240 110q128 0 197.5 -84t69.5 -226q0 -80 -18.5 -152
t-55.5 -133t-102.5 -97t-150.5 -36q-136 0 -204.5 88t-68.5 228zM518 846l36 -27q-35 -64 -88 -64q-24 0 -67 29q-41 28 -58 28q-13 0 -23.5 -9.5t-15 -17.5t-11.5 -25l-41 18q10 31 33.5 56.5t54.5 25.5q33 0 73 -28q41 -29 55 -29q16 0 27 10.5t25 32.5z" />
    <glyph glyph-name="Odieresis" unicode="&#xd6;" horiz-adv-x="722" 
d="M117 302q0 -117 45 -183q60 -89 175 -89q59 0 115 31t88 83q36 59 50.5 118.5t14.5 146.5q0 116 -53.5 188.5t-160.5 72.5q-62 0 -110.5 -23.5t-78.5 -60t-50 -86.5t-27.5 -98.5t-7.5 -99.5zM61 302q0 192 93 302t240 110q128 0 197.5 -84t69.5 -226q0 -80 -18.5 -152
t-55.5 -133t-102.5 -97t-150.5 -36q-136 0 -204.5 88t-68.5 228zM305 778q-38 0 -38 36q0 17 10.5 31.5t33.5 14.5q15 0 24.5 -10.5t9.5 -26.5q0 -13 -9.5 -29t-30.5 -16zM503 778q-38 0 -38 36q0 17 10.5 31.5t33.5 14.5q15 0 24.5 -10.5t9.5 -26.5q0 -13 -9.5 -29
t-30.5 -16z" />
    <glyph glyph-name="multiply" unicode="&#xd7;" horiz-adv-x="600" 
d="M75 61l191 191l-191 191l34 34l191 -191l191 191l34 -34l-191 -191l191 -191l-34 -34l-191 191l-191 -191z" />
    <glyph glyph-name="Oslash" unicode="&#xd8;" horiz-adv-x="722" 
d="M172 106l350 522q-51 42 -131 42q-62 0 -110.5 -23.5t-78.5 -60t-50 -86.5t-27.5 -98.5t-7.5 -99.5q0 -117 45 -183q5 -7 10 -13zM51 -75l91 136q-81 82 -81 241q0 192 93 302t240 110q90 0 155 -45l87 129l35 -23l-89 -134q79 -84 79 -237q0 -80 -18.5 -152t-55.5 -133
t-102.5 -97t-150.5 -36q-96 0 -160 47l-88 -131zM552 597l-350 -521q57 -46 135 -46q59 0 115 31t88 83q36 59 50.5 118.5t14.5 146.5q0 120 -53 188z" />
    <glyph glyph-name="Ugrave" unicode="&#xd9;" horiz-adv-x="722" 
d="M61 656l4 44h202l-4 -44h-67l-30 -324q-10 -107 -10 -153q0 -149 175 -149q33 0 61 5t48.5 12t37 20.5t27.5 24.5t19.5 30t13 31t8 34t4.5 32l3 31l35 406h-89l4 44h202l-4 -44h-69l-35 -412q-12 -131 -57 -180q-73 -78 -212 -78q-224 0 -224 195q0 19 10 137l30 338h-83
zM313 891l124 -120l-34 -29l-130 121z" />
    <glyph glyph-name="Uacute" unicode="&#xda;" horiz-adv-x="722" 
d="M61 656l4 44h202l-4 -44h-67l-30 -324q-10 -107 -10 -153q0 -149 175 -149q33 0 61 5t48.5 12t37 20.5t27.5 24.5t19.5 30t13 31t8 34t4.5 32l3 31l35 406h-89l4 44h202l-4 -44h-69l-35 -412q-12 -131 -57 -180q-73 -78 -212 -78q-224 0 -224 195q0 19 10 137l30 338h-83
zM528 864l-149 -122l-33 28l142 121z" />
    <glyph glyph-name="Ucircumflex" unicode="&#xdb;" horiz-adv-x="722" 
d="M61 656l4 44h202l-4 -44h-67l-30 -324q-10 -107 -10 -153q0 -149 175 -149q33 0 61 5t48.5 12t37 20.5t27.5 24.5t19.5 30t13 31t8 34t4.5 32l3 31l35 406h-89l4 44h202l-4 -44h-69l-35 -412q-12 -131 -57 -180q-73 -78 -212 -78q-224 0 -224 195q0 19 10 137l30 338h-83
zM259 786l129 101h42l113 -101l-40 -28l-98 93l-112 -93z" />
    <glyph glyph-name="Udieresis" unicode="&#xdc;" horiz-adv-x="722" 
d="M61 656l4 44h202l-4 -44h-67l-30 -324q-10 -107 -10 -153q0 -149 175 -149q33 0 61 5t48.5 12t37 20.5t27.5 24.5t19.5 30t13 31t8 34t4.5 32l3 31l35 406h-89l4 44h202l-4 -44h-69l-35 -412q-12 -131 -57 -180q-73 -78 -212 -78q-224 0 -224 195q0 19 10 137l30 338h-83
zM305 778q-38 0 -38 36q0 17 10.5 31.5t33.5 14.5q15 0 24.5 -10.5t9.5 -26.5q0 -13 -9.5 -29t-30.5 -16zM503 778q-38 0 -38 36q0 17 10.5 31.5t33.5 14.5q15 0 24.5 -10.5t9.5 -26.5q0 -13 -9.5 -29t-30.5 -16z" />
    <glyph glyph-name="Yacute" unicode="&#xdd;" horiz-adv-x="667" 
d="M209 0l4 44h69l22 253l-200 359h-82l4 44h202l-4 -44h-65q4 -4 16 -24l161 -292l208 292q10 16 20 24h-85l4 44h205l-4 -44h-71l-257 -357l-22 -255h84l-4 -44h-205zM501 864l-149 -122l-33 28l142 121z" />
    <glyph glyph-name="Thorn" unicode="&#xde;" horiz-adv-x="537" 
d="M199 526l-28 -317q32 -4 65 -4q58 0 100.5 16.5t64.5 44t32 57t10 61.5q0 142 -167 142h-77zM32 0l4 44h68l54 612h-83l4 44h211l-4 -44h-76l-8 -86h67q83 0 134 -23q92 -41 92 -157q0 -103 -65 -164t-194 -61q-43 0 -69 4l-11 -125h91l-4 -44h-211z" />
    <glyph glyph-name="germandbls" unicode="&#xdf;" horiz-adv-x="593" 
d="M-136 -246l4 44q46 -17 80 -17q70 0 99 48.5t36 154.5l39 556q8 113 65 175t163 62q86 0 133 -37t47 -91q0 -38 -22 -71.5t-53.5 -57t-63 -44.5t-53.5 -44.5t-22 -47.5q0 -28 23.5 -48.5t56.5 -35.5t66.5 -32.5t57 -48t23.5 -73.5q0 -72 -51.5 -114t-118.5 -42
q-81 0 -140 21l4 122h48l-4 -86q37 -13 81 -13q34 0 59 8.5t38 20t20.5 28t9.5 28.5t2 25q0 33 -23.5 56t-56.5 38l-66.5 31t-57 44t-23.5 67q0 35 22 64t53.5 50l63 42t53.5 49t22 61q0 44 -40 65.5t-90 21.5q-46 0 -79.5 -16.5t-51.5 -38t-29 -57t-14.5 -58t-5.5 -56.5
l-34 -492q-3 -37 -4 -52.5t-5 -48.5t-9.5 -48.5l-14.5 -40.5t-22 -37.5t-30.5 -26t-42 -19t-54.5 -5.5q-35 0 -88 17z" />
    <glyph glyph-name="agrave" unicode="&#xe0;" horiz-adv-x="537" 
d="M347 0l25 228q1 8 11 56h-2q-14 -52 -15 -56q-14 -42 -31.5 -79.5t-42 -75.5t-58.5 -60.5t-71 -22.5q-111 0 -111 186q0 68 15 128t45 110.5t83 80t122 29.5q49 0 97 -19h29q-11 -54 -20 -165l-24 -296h82l-4 -44h-130zM384 434l5 31q-48 19 -84 19q-96 0 -151 -90
q-50 -86 -50 -217q0 -139 66 -139q59 0 121 101t93 295zM221 745l124 -120l-34 -29l-130 121z" />
    <glyph glyph-name="aacute" unicode="&#xe1;" horiz-adv-x="537" 
d="M347 0l25 228q1 8 11 56h-2q-14 -52 -15 -56q-14 -42 -31.5 -79.5t-42 -75.5t-58.5 -60.5t-71 -22.5q-111 0 -111 186q0 68 15 128t45 110.5t83 80t122 29.5q49 0 97 -19h29q-11 -54 -20 -165l-24 -296h82l-4 -44h-130zM384 434l5 31q-48 19 -84 19q-96 0 -151 -90
q-50 -86 -50 -217q0 -139 66 -139q59 0 121 101t93 295zM436 718l-149 -122l-33 28l142 121z" />
    <glyph glyph-name="acircumflex" unicode="&#xe2;" horiz-adv-x="537" 
d="M347 0l25 228q1 8 11 56h-2q-14 -52 -15 -56q-14 -42 -31.5 -79.5t-42 -75.5t-58.5 -60.5t-71 -22.5q-111 0 -111 186q0 68 15 128t45 110.5t83 80t122 29.5q49 0 97 -19h29q-11 -54 -20 -165l-24 -296h82l-4 -44h-130zM384 434l5 31q-48 19 -84 19q-96 0 -151 -90
q-50 -86 -50 -217q0 -139 66 -139q59 0 121 101t93 295zM167 640l129 101h42l113 -101l-40 -28l-98 93l-112 -93z" />
    <glyph glyph-name="atilde" unicode="&#xe3;" horiz-adv-x="537" 
d="M347 0l25 228q1 8 11 56h-2q-14 -52 -15 -56q-14 -42 -31.5 -79.5t-42 -75.5t-58.5 -60.5t-71 -22.5q-111 0 -111 186q0 68 15 128t45 110.5t83 80t122 29.5q49 0 97 -19h29q-11 -54 -20 -165l-24 -296h82l-4 -44h-130zM384 434l5 31q-48 19 -84 19q-96 0 -151 -90
q-50 -86 -50 -217q0 -139 66 -139q59 0 121 101t93 295zM426 700l36 -27q-35 -64 -88 -64q-24 0 -67 29q-41 28 -58 28q-13 0 -23.5 -9.5t-15 -17.5t-11.5 -25l-41 18q10 31 33.5 56.5t54.5 25.5q33 0 73 -28q41 -29 55 -29q16 0 27 10.5t25 32.5z" />
    <glyph glyph-name="adieresis" unicode="&#xe4;" horiz-adv-x="537" 
d="M347 0l25 228q1 8 11 56h-2q-14 -52 -15 -56q-14 -42 -31.5 -79.5t-42 -75.5t-58.5 -60.5t-71 -22.5q-111 0 -111 186q0 68 15 128t45 110.5t83 80t122 29.5q49 0 97 -19h29q-11 -54 -20 -165l-24 -296h82l-4 -44h-130zM384 434l5 31q-48 19 -84 19q-96 0 -151 -90
q-50 -86 -50 -217q0 -139 66 -139q59 0 121 101t93 295zM213 632q-38 0 -38 36q0 17 10.5 31.5t33.5 14.5q15 0 24.5 -10.5t9.5 -26.5q0 -13 -9.5 -29t-30.5 -16zM411 632q-38 0 -38 36q0 17 10.5 31.5t33.5 14.5q15 0 24.5 -10.5t9.5 -26.5q0 -13 -9.5 -29t-30.5 -16z" />
    <glyph glyph-name="aring" unicode="&#xe5;" horiz-adv-x="537" 
d="M347 0l25 228q1 8 11 56h-2q-14 -52 -15 -56q-14 -42 -31.5 -79.5t-42 -75.5t-58.5 -60.5t-71 -22.5q-111 0 -111 186q0 68 15 128t45 110.5t83 80t122 29.5q49 0 97 -19h29q-11 -54 -20 -165l-24 -296h82l-4 -44h-130zM384 434l5 31q-48 19 -84 19q-96 0 -151 -90
q-50 -86 -50 -217q0 -139 66 -139q59 0 121 101t93 295zM265 666q0 -21 12 -35.5t33 -14.5q25 0 37 18.5t12 41.5q0 51 -43 51q-23 0 -37 -18t-14 -43zM225 662q0 39 26 70t69 31q34 0 56.5 -22t22.5 -62q0 -45 -26.5 -72t-68.5 -27q-36 0 -57.5 24t-21.5 58z" />
    <glyph glyph-name="ae" unicode="&#xe6;" horiz-adv-x="722" 
d="M352 298l31 151q-50 31 -101 31q-47 0 -85.5 -30.5t-59.5 -83.5q-33 -82 -33 -180q0 -74 21 -111t52 -37q52 0 102.5 77.5t72.5 182.5zM551 480q-59 0 -97 -38q-24 -24 -34 -65t-18 -125q98 9 166 47.5t68 105.5q0 33 -20.5 54t-64.5 21zM658 75l-8 -53q-73 -32 -139 -32
q-47 0 -80 16.5t-48.5 43t-22 51.5t-6.5 51q0 20 4 44h-2q-7 -28 -21.5 -59.5t-37 -66.5t-56.5 -57.5t-72 -22.5q-33 0 -57 18.5t-36.5 48.5t-18 61.5t-5.5 65.5q0 159 79 259q64 81 158 81q65 0 136 -57q53 57 137 57q60 0 93 -31t33 -81q0 -43 -19.5 -77.5t-49 -56
t-69 -36.5t-75.5 -21.5t-73 -8.5q0 -31 1 -48.5t7.5 -45.5t18.5 -44t37 -28t60 -12q56 0 132 41z" />
    <glyph glyph-name="ccedilla" unicode="&#xe7;" horiz-adv-x="407" 
d="M112 -198l3 43q42 -14 77 -14q54 0 54 38q0 18 -16 26.5t-36 8.5q-6 0 -21 -3l8 93q-55 8 -90 44t-47.5 81t-12.5 100q0 130 62 217.5t182 87.5q45 0 107 -17l-12 -121h-44l4 87q-18 7 -51 7q-99 0 -147.5 -74.5t-48.5 -182.5q0 -81 31.5 -133t104.5 -52q59 0 135 42
l-4 -52q-58 -34 -125 -38l-8 -54q85 0 85 -63q0 -34 -29 -60t-80 -26q-36 0 -81 15z" />
    <glyph glyph-name="egrave" unicode="&#xe8;" horiz-adv-x="444" 
d="M372 81l-4 -51q-70 -40 -147 -40q-97 0 -136.5 56t-39.5 159q0 58 14 112.5t42 102t76.5 76t110.5 28.5q58 0 90.5 -29.5t32.5 -80.5q0 -50 -31 -90t-81 -63.5t-100 -37t-102 -19.5q0 -24 1 -39t7.5 -43t19.5 -44.5t39.5 -30t63.5 -13.5q60 0 144 47zM359 410
q0 27 -18.5 48.5t-62.5 21.5q-76 0 -124.5 -65.5t-56.5 -166.5q112 9 187 53t75 109zM194 745l124 -120l-34 -29l-130 121z" />
    <glyph glyph-name="eacute" unicode="&#xe9;" horiz-adv-x="444" 
d="M372 81l-4 -51q-70 -40 -147 -40q-97 0 -136.5 56t-39.5 159q0 58 14 112.5t42 102t76.5 76t110.5 28.5q58 0 90.5 -29.5t32.5 -80.5q0 -50 -31 -90t-81 -63.5t-100 -37t-102 -19.5q0 -24 1 -39t7.5 -43t19.5 -44.5t39.5 -30t63.5 -13.5q60 0 144 47zM359 410
q0 27 -18.5 48.5t-62.5 21.5q-76 0 -124.5 -65.5t-56.5 -166.5q112 9 187 53t75 109zM409 718l-149 -122l-33 28l142 121z" />
    <glyph glyph-name="ecircumflex" unicode="&#xea;" horiz-adv-x="444" 
d="M372 81l-4 -51q-70 -40 -147 -40q-97 0 -136.5 56t-39.5 159q0 58 14 112.5t42 102t76.5 76t110.5 28.5q58 0 90.5 -29.5t32.5 -80.5q0 -50 -31 -90t-81 -63.5t-100 -37t-102 -19.5q0 -24 1 -39t7.5 -43t19.5 -44.5t39.5 -30t63.5 -13.5q60 0 144 47zM359 410
q0 27 -18.5 48.5t-62.5 21.5q-76 0 -124.5 -65.5t-56.5 -166.5q112 9 187 53t75 109zM140 640l129 101h42l113 -101l-40 -28l-98 93l-112 -93z" />
    <glyph glyph-name="edieresis" unicode="&#xeb;" horiz-adv-x="444" 
d="M372 81l-4 -51q-70 -40 -147 -40q-97 0 -136.5 56t-39.5 159q0 58 14 112.5t42 102t76.5 76t110.5 28.5q58 0 90.5 -29.5t32.5 -80.5q0 -50 -31 -90t-81 -63.5t-100 -37t-102 -19.5q0 -24 1 -39t7.5 -43t19.5 -44.5t39.5 -30t63.5 -13.5q60 0 144 47zM359 410
q0 27 -18.5 48.5t-62.5 21.5q-76 0 -124.5 -65.5t-56.5 -166.5q112 9 187 53t75 109zM186 632q-38 0 -38 36q0 17 10.5 31.5t33.5 14.5q15 0 24.5 -10.5t9.5 -26.5q0 -13 -9.5 -29t-30.5 -16zM384 632q-38 0 -38 36q0 17 10.5 31.5t33.5 14.5q15 0 24.5 -10.5t9.5 -26.5
q0 -13 -9.5 -29t-30.5 -16z" />
    <glyph glyph-name="igrave" unicode="&#xec;" 
d="M92 0l42 470h-85l4 44h133l-42 -470h85l-4 -44h-133zM91 745l124 -120l-34 -29l-130 121z" />
    <glyph glyph-name="iacute" unicode="&#xed;" 
d="M92 0l42 470h-85l4 44h133l-42 -470h85l-4 -44h-133zM306 718l-149 -122l-33 28l142 121z" />
    <glyph glyph-name="icircumflex" unicode="&#xee;" 
d="M92 0l42 470h-85l4 44h133l-42 -470h85l-4 -44h-133zM27 640l129 101h42l113 -101l-40 -28l-98 93l-112 -93z" />
    <glyph glyph-name="idieresis" unicode="&#xef;" 
d="M92 0l42 470h-85l4 44h133l-42 -470h85l-4 -44h-133zM83 632q-38 0 -38 36q0 17 10.5 31.5t33.5 14.5q15 0 24.5 -10.5t9.5 -26.5q0 -13 -9.5 -29t-30.5 -16zM281 632q-38 0 -38 36q0 17 10.5 31.5t33.5 14.5q15 0 24.5 -10.5t9.5 -26.5q0 -13 -9.5 -29t-30.5 -16z" />
    <glyph glyph-name="eth" unicode="&#xf0;" horiz-adv-x="481" 
d="M153 632l108 52q-33 35 -88 69l42 24q51 -31 91 -71l103 49l27 -30l-102 -49q56 -64 79 -156t23 -226q0 -132 -60 -218t-167 -86q-78 0 -128 55t-50 175q0 78 22 144t76.5 113t134.5 47q71 0 106 -56l2 2q-17 105 -84 184l-108 -52zM83 217q0 -80 30 -131.5t98 -51.5
q47 0 82.5 24.5t54 64t27.5 81.5t9 86q0 95 -35.5 142.5t-93.5 47.5q-45 0 -79.5 -24t-54 -63.5t-29 -84t-9.5 -91.5z" />
    <glyph glyph-name="ntilde" unicode="&#xf1;" horiz-adv-x="556" 
d="M31 470l4 44h140l-20 -175q-2 -21 -5 -41t-7 -43t-6 -36h2q2 7 5.5 21.5t5.5 21.5q11 38 28.5 78t45.5 84t68.5 72t85.5 28q86 0 86 -121q0 -73 -38 -359h83l-4 -44h-135q46 312 46 400q0 76 -50 76q-19 0 -42 -11.5t-53 -45t-57 -84t-52 -138t-39 -197.5h-48
q15 114 25 222l22 248h-91zM425 700l36 -27q-35 -64 -88 -64q-24 0 -67 29q-41 28 -58 28q-13 0 -23.5 -9.5t-15 -17.5t-11.5 -25l-41 18q10 31 33.5 56.5t54.5 25.5q33 0 73 -28q41 -29 55 -29q16 0 27 10.5t25 32.5z" />
    <glyph glyph-name="ograve" unicode="&#xf2;" horiz-adv-x="481" 
d="M31 220q0 78 22 144t76.5 113t134.5 47q77 0 124.5 -58t47.5 -172q0 -132 -60 -218t-167 -86q-78 0 -128 55t-50 175zM83 217q0 -79 31 -131t97 -52q47 0 82.5 24.5t54 64t27.5 81.5t9 86q0 95 -35.5 142.5t-93.5 47.5q-45 0 -79.5 -24t-54 -63.5t-29 -84t-9.5 -91.5z
M193 745l124 -120l-34 -29l-130 121z" />
    <glyph glyph-name="oacute" unicode="&#xf3;" horiz-adv-x="481" 
d="M31 220q0 78 22 144t76.5 113t134.5 47q77 0 124.5 -58t47.5 -172q0 -132 -60 -218t-167 -86q-78 0 -128 55t-50 175zM83 217q0 -79 31 -131t97 -52q47 0 82.5 24.5t54 64t27.5 81.5t9 86q0 95 -35.5 142.5t-93.5 47.5q-45 0 -79.5 -24t-54 -63.5t-29 -84t-9.5 -91.5z
M408 718l-149 -122l-33 28l142 121z" />
    <glyph glyph-name="ocircumflex" unicode="&#xf4;" horiz-adv-x="481" 
d="M31 220q0 78 22 144t76.5 113t134.5 47q77 0 124.5 -58t47.5 -172q0 -132 -60 -218t-167 -86q-78 0 -128 55t-50 175zM83 217q0 -79 31 -131t97 -52q47 0 82.5 24.5t54 64t27.5 81.5t9 86q0 95 -35.5 142.5t-93.5 47.5q-45 0 -79.5 -24t-54 -63.5t-29 -84t-9.5 -91.5z
M139 640l129 101h42l113 -101l-40 -28l-98 93l-112 -93z" />
    <glyph glyph-name="otilde" unicode="&#xf5;" horiz-adv-x="481" 
d="M31 220q0 78 22 144t76.5 113t134.5 47q77 0 124.5 -58t47.5 -172q0 -132 -60 -218t-167 -86q-78 0 -128 55t-50 175zM83 217q0 -79 31 -131t97 -52q47 0 82.5 24.5t54 64t27.5 81.5t9 86q0 95 -35.5 142.5t-93.5 47.5q-45 0 -79.5 -24t-54 -63.5t-29 -84t-9.5 -91.5z
M398 700l36 -27q-35 -64 -88 -64q-24 0 -67 29q-41 28 -58 28q-13 0 -23.5 -9.5t-15 -17.5t-11.5 -25l-41 18q10 31 33.5 56.5t54.5 25.5q33 0 73 -28q41 -29 55 -29q16 0 27 10.5t25 32.5z" />
    <glyph glyph-name="odieresis" unicode="&#xf6;" horiz-adv-x="481" 
d="M31 220q0 78 22 144t76.5 113t134.5 47q77 0 124.5 -58t47.5 -172q0 -132 -60 -218t-167 -86q-78 0 -128 55t-50 175zM83 217q0 -79 31 -131t97 -52q47 0 82.5 24.5t54 64t27.5 81.5t9 86q0 95 -35.5 142.5t-93.5 47.5q-45 0 -79.5 -24t-54 -63.5t-29 -84t-9.5 -91.5z
M185 632q-38 0 -38 36q0 17 10.5 31.5t33.5 14.5q15 0 24.5 -10.5t9.5 -26.5q0 -13 -9.5 -29t-30.5 -16zM383 632q-38 0 -38 36q0 17 10.5 31.5t33.5 14.5q15 0 24.5 -10.5t9.5 -26.5q0 -13 -9.5 -29t-30.5 -16z" />
    <glyph glyph-name="divide" unicode="&#xf7;" horiz-adv-x="600" 
d="M47 229v48h506v-48h-506zM244 462q0 23 16.5 39.5t39.5 16.5t39.5 -16.5t16.5 -39.5t-16.5 -39.5t-39.5 -16.5t-39.5 16.5t-16.5 39.5zM244 44q0 23 16.5 39.5t39.5 16.5t39.5 -16.5t16.5 -39.5t-16.5 -39.5t-39.5 -16.5t-39.5 16.5t-16.5 39.5z" />
    <glyph glyph-name="oslash" unicode="&#xf8;" horiz-adv-x="481" 
d="M107 100l230 346q-31 34 -82 34q-45 0 -79.5 -24t-54 -63.5t-29 -84t-9.5 -91.5q0 -72 24 -117zM359 414l-230 -346q31 -34 82 -34q47 0 82.5 24.5t54 64t27.5 81.5t9 86q0 76 -25 124zM0 -59l76 113q-45 57 -45 166q0 78 22 144t76.5 113t134.5 47q61 0 102 -35l71 106
l30 -20l-76 -113q45 -59 45 -168q0 -132 -60 -218t-167 -86q-66 0 -107 37l-72 -108z" />
    <glyph glyph-name="ugrave" unicode="&#xf9;" horiz-adv-x="574" 
d="M530 44l-4 -44h-140l20 171q3 23 10 64t9 55h-2q-5 -26 -17 -63q-9 -30 -26.5 -65.5t-45.5 -76.5t-68 -68t-83 -27q-86 0 -86 121q0 73 38 359h-83l4 44h135q-46 -312 -46 -400q0 -76 50 -76q19 0 42 11.5t53 45t57 84t52 138t39 197.5h48q-15 -114 -25 -222l-22 -248h91
zM239 745l124 -120l-34 -29l-130 121z" />
    <glyph glyph-name="uacute" unicode="&#xfa;" horiz-adv-x="574" 
d="M530 44l-4 -44h-140l20 171q3 23 10 64t9 55h-2q-5 -26 -17 -63q-9 -30 -26.5 -65.5t-45.5 -76.5t-68 -68t-83 -27q-86 0 -86 121q0 73 38 359h-83l4 44h135q-46 -312 -46 -400q0 -76 50 -76q19 0 42 11.5t53 45t57 84t52 138t39 197.5h48q-15 -114 -25 -222l-22 -248h91
zM454 718l-149 -122l-33 28l142 121z" />
    <glyph glyph-name="ucircumflex" unicode="&#xfb;" horiz-adv-x="574" 
d="M530 44l-4 -44h-140l20 171q3 23 10 64t9 55h-2q-5 -26 -17 -63q-9 -30 -26.5 -65.5t-45.5 -76.5t-68 -68t-83 -27q-86 0 -86 121q0 73 38 359h-83l4 44h135q-46 -312 -46 -400q0 -76 50 -76q19 0 42 11.5t53 45t57 84t52 138t39 197.5h48q-15 -114 -25 -222l-22 -248h91
zM175 640l129 101h42l113 -101l-40 -28l-98 93l-112 -93z" />
    <glyph glyph-name="udieresis" unicode="&#xfc;" horiz-adv-x="574" 
d="M530 44l-4 -44h-140l20 171q3 23 10 64t9 55h-2q-5 -26 -17 -63q-9 -30 -26.5 -65.5t-45.5 -76.5t-68 -68t-83 -27q-86 0 -86 121q0 73 38 359h-83l4 44h135q-46 -312 -46 -400q0 -76 50 -76q19 0 42 11.5t53 45t57 84t52 138t39 197.5h48q-15 -114 -25 -222l-22 -248h91
zM221 632q-38 0 -38 36q0 17 10.5 31.5t33.5 14.5q15 0 24.5 -10.5t9.5 -26.5q0 -13 -9.5 -29t-30.5 -16zM419 632q-38 0 -38 36q0 17 10.5 31.5t33.5 14.5q15 0 24.5 -10.5t9.5 -26.5q0 -13 -9.5 -29t-30.5 -16z" />
    <glyph glyph-name="yacute" unicode="&#xfd;" horiz-adv-x="519" 
d="M22 470l4 44h116l102 -404q6 -26 14 -71h2q7 22 23 66l138 365h-87l4 44h140l-4 -32q-13 -40 -35.5 -100l-66.5 -171.5l-72 -183.5q-64 -166 -118 -228t-138 -62q-30 0 -49 7l7 44q22 -7 44 -7q28 0 50 9t37.5 21.5t33 41t29.5 54l33 72.5l-132 491h-75zM427 718
l-149 -122l-33 28l142 121z" />
    <glyph glyph-name="thorn" unicode="&#xfe;" horiz-adv-x="537" 
d="M433 347q0 133 -74 133q-63 0 -131.5 -117t-83.5 -237q-1 -12 -4.5 -37t-5.5 -37q59 -18 89 -18q57 0 99.5 28.5t65.5 75.5t34 99.5t11 109.5zM-11 -251l4 44h69l83 932h-96l4 44h146l-34 -367q-5 -60 -24 -165h2q2 6 6.5 25.5t7.5 30.5q32 99 87 165t127 66q34 0 58 -18
t35.5 -48.5t16 -60.5t4.5 -63q0 -83 -27 -158.5t-87 -128.5t-142 -53q-59 0 -98 13l-21 -214h86l-4 -44h-203z" />
    <glyph glyph-name="ydieresis" unicode="&#xff;" horiz-adv-x="519" 
d="M22 470l4 44h116l102 -404q6 -26 14 -71h2q7 22 23 66l138 365h-87l4 44h140l-4 -32q-13 -40 -35.5 -100l-66.5 -171.5l-72 -183.5q-64 -166 -118 -228t-138 -62q-30 0 -49 7l7 44q22 -7 44 -7q28 0 50 9t37.5 21.5t33 41t29.5 54l33 72.5l-132 491h-75zM184 632
q-38 0 -38 36q0 17 10.5 31.5t33.5 14.5q15 0 24.5 -10.5t9.5 -26.5q0 -13 -9.5 -29t-30.5 -16zM382 632q-38 0 -38 36q0 17 10.5 31.5t33.5 14.5q15 0 24.5 -10.5t9.5 -26.5q0 -13 -9.5 -29t-30.5 -16z" />
    <glyph glyph-name="dotlessi" unicode="&#x131;" 
d="M92 0l42 470h-85l4 44h133l-42 -470h85l-4 -44h-133z" />
    <glyph glyph-name="Lslash" unicode="&#x141;" horiz-adv-x="500" 
d="M32 0l4 44h68l22 247l-78 -53l4 51l79 53l27 314h-83l4 44h203l-4 -44h-68l-24 -276l177 121l-4 -51l-178 -121l-25 -285h250l14 100h44l-16 -144h-416z" />
    <glyph glyph-name="lslash" unicode="&#x142;" horiz-adv-x="259" 
d="M75 0l33 380l-80 -60l4 52l81 60l26 293h-92l4 44h140l-26 -299l80 60l-4 -52l-81 -60l-33 -374h85l-4 -44h-133z" />
    <glyph glyph-name="OE" unicode="&#x152;" horiz-adv-x="944" 
d="M486 44l54 616q-11 0 -56 3t-68 3q-64 0 -116 -21q-87 -35 -135 -123.5t-48 -207.5q0 -57 11 -102.5t26.5 -73.5t41.5 -48.5t46.5 -30t52 -15t47 -6t41.5 -0.5q57 0 103 6zM883 142l-13 -142h-331q-48 0 -118 -4q-34 -2 -53 -2q-307 0 -307 314q0 173 94.5 285.5
t255.5 112.5q37 0 71 -3t75 -3h344l-12 -142h-44l4 98h-257l-24 -271h262l-4 -44h-262l-26 -297h287l14 98h44z" />
    <glyph glyph-name="oe" unicode="&#x153;" horiz-adv-x="741" 
d="M655 403q0 29 -21 53t-63 24q-58 0 -97.5 -36.5t-54 -85.5t-14.5 -106q41 3 79.5 11t79.5 24.5t66 46t25 69.5zM669 73l-5 -50q-80 -33 -144 -33q-76 0 -115 43t-39 89h-2q-8 -45 -48 -88.5t-104 -43.5q-77 0 -127.5 54t-50.5 169q0 71 21 139.5t61 111.5q56 60 145 60
q65 0 97.5 -43t35.5 -91h2q48 134 181 134q62 0 96 -31t34 -80q0 -53 -30 -93.5t-78.5 -62t-96.5 -32.5t-97 -13q0 -19 0.5 -29.5t2.5 -32.5t6.5 -35t13.5 -30t22 -27t34 -17t47 -7q54 0 138 39zM86 217q0 -80 29.5 -131.5t95.5 -51.5q49 0 89 39.5t49 111.5q12 96 12 156
q0 65 -28.5 102t-81.5 37q-57 0 -96 -42.5t-54 -99t-15 -121.5z" />
    <glyph glyph-name="Scaron" unicode="&#x160;" horiz-adv-x="537" 
d="M423 561v90q-45 15 -119 19q-94 0 -138.5 -41.5t-44.5 -104.5q0 -50 27.5 -74.5t78.5 -42.5l116 -42q67 -25 104 -63.5t37 -105.5q0 -83 -64.5 -146.5t-190.5 -63.5q-82 0 -195 34l11 135h40l-3 -100q69 -25 141 -25q105 0 155 48t50 115q0 29 -10.5 51t-34.5 38t-39 23
t-48 19l-78 29q-73 27 -113 62.5t-40 99.5q0 92 64.5 145.5t175.5 53.5q83 0 166 -28l-8 -125h-40zM460 859l-129 -101h-42l-113 101l40 28l98 -93l112 93z" />
    <glyph glyph-name="scaron" unicode="&#x161;" horiz-adv-x="444" 
d="M37 20v124h48v-88q10 -7 40.5 -14.5t60.5 -7.5q65 0 101 26.5t36 73.5q0 34 -21 55t-80 44q-99 39 -131.5 64.5t-32.5 82.5q0 68 50 106t137 38q59 0 130 -23v-119h-48v87q-43 15 -87 15q-54 0 -92 -24.5t-38 -75.5q0 -32 23.5 -51.5t79.5 -40.5q45 -17 65.5 -26.5
t47.5 -27.5t38 -41t11 -55q0 -65 -48 -108.5t-140 -43.5q-87 0 -150 30zM388 713l-129 -101h-42l-113 101l40 28l98 -93l112 93z" />
    <glyph glyph-name="Ydieresis" unicode="&#x178;" horiz-adv-x="667" 
d="M209 0l4 44h69l22 253l-200 359h-82l4 44h202l-4 -44h-65q4 -4 16 -24l161 -292l208 292q10 16 20 24h-85l4 44h205l-4 -44h-71l-257 -357l-22 -255h84l-4 -44h-205zM278 778q-38 0 -38 36q0 17 10.5 31.5t33.5 14.5q15 0 24.5 -10.5t9.5 -26.5q0 -13 -9.5 -29t-30.5 -16
zM476 778q-38 0 -38 36q0 17 10.5 31.5t33.5 14.5q15 0 24.5 -10.5t9.5 -26.5q0 -13 -9.5 -29t-30.5 -16z" />
    <glyph glyph-name="Zcaron" unicode="&#x17d;" horiz-adv-x="611" 
d="M28 0l3 36l458 589q13 17 30 31l-2 2q-7 -2 -26 -2h-342l-13 -98h-44l11 142h480l-3 -36l-462 -596q-3 -3 -23 -26q28 2 41 2h354l16 100h44l-15 -144h-507zM497 859l-129 -101h-42l-113 101l40 28l98 -93l112 93z" />
    <glyph glyph-name="zcaron" unicode="&#x17e;" horiz-adv-x="481" 
d="M31 0l4 42l308 396q13 18 29 32h-269l-11 -80h-40l11 124h374l-4 -33l-308 -400q-16 -21 -32 -37h284l12 80h40l-12 -124h-386zM397 713l-129 -101h-42l-113 101l40 28l98 -93l112 93z" />
    <glyph glyph-name="florin" unicode="&#x192;" horiz-adv-x="556" 
d="M133 367l4 44h108l8 86q11 114 64 163.5t147 49.5q54 0 90 -14l-4 -44q-39 14 -89 14q-74 0 -112.5 -42.5t-47.5 -134.5l-8 -78h157l-4 -44h-156l-23 -294q-11 -150 -55 -204q-52 -64 -139 -64q-51 0 -71 10l4 44q32 -10 55 -10q89 0 125 74q21 43 33 175l23 269h-109z
" />
    <glyph glyph-name="circumflex" unicode="&#x2c6;" 
d="M37 640l129 101h42l113 -101l-40 -28l-98 93l-112 -93z" />
    <glyph glyph-name="caron" unicode="&#x2c7;" 
d="M330 713l-129 -101h-42l-113 101l40 28l98 -93l112 93z" />
    <glyph glyph-name="uni02C9" unicode="&#x2c9;" 
d="M65 646l4 44h224l-4 -44h-224z" />
    <glyph glyph-name="breve" unicode="&#x2d8;" 
d="M52 707l44 23q29 -77 86 -77q64 0 97 73l44 -19q-45 -98 -136 -98q-98 0 -135 98z" />
    <glyph glyph-name="dotaccent" unicode="&#x2d9;" 
d="M182 632q-38 0 -38 36q0 17 10.5 31.5t33.5 14.5q15 0 24.5 -10.5t9.5 -26.5q0 -13 -9.5 -29t-30.5 -16z" />
    <glyph glyph-name="ring" unicode="&#x2da;" 
d="M135 666q0 -21 12 -35.5t33 -14.5q25 0 37 18.5t12 41.5q0 51 -43 51q-23 0 -37 -18t-14 -43zM95 662q0 39 26 70t69 31q34 0 56.5 -22t22.5 -62q0 -45 -26.5 -72t-68.5 -27q-36 0 -57.5 24t-21.5 58z" />
    <glyph glyph-name="ogonek" unicode="&#x2db;" 
d="M294 -138l-4 -36q-43 -39 -102 -39q-31 0 -52.5 16.5t-21.5 53.5q0 68 80 143h36q-60 -68 -60 -119q0 -50 48 -50q43 0 76 31z" />
    <glyph glyph-name="tilde" unicode="&#x2dc;" 
d="M296 700l36 -27q-35 -64 -88 -64q-24 0 -67 29q-41 28 -58 28q-13 0 -23.5 -9.5t-15 -17.5t-11.5 -25l-41 18q10 31 33.5 56.5t54.5 25.5q33 0 73 -28q41 -29 55 -29q16 0 27 10.5t25 32.5z" />
    <glyph glyph-name="hungarumlaut" unicode="&#x2dd;" 
d="M221 718l-149 -122l-33 28l142 121zM391 718l-149 -122l-33 28l142 121z" />
    <glyph glyph-name="uni03A9" unicode="&#x3a9;" horiz-adv-x="729" 
d="M190 41v3q-58 53 -91 136.5t-24 186.5q13 151 107 244.5t221 93.5t200.5 -97t61.5 -238q-9 -107 -58.5 -192.5t-114.5 -133.5v-3h158l-3 -41h-229l2 30q74 46 130 133.5t66 199.5q4 52 -7 104t-36.5 96.5t-70.5 72.5t-103 28q-111 0 -187.5 -87.5t-87.5 -214.5
q-9 -107 32 -198t104 -134l-2 -30h-229l4 41h157z" />
    <glyph glyph-name="uni03BC" unicode="&#x3bc;" horiz-adv-x="574" 
d="M530 44l-4 -44h-140l20 171q3 23 10 64t9 55h-2q-5 -26 -17 -63q-9 -30 -26.5 -65.5t-45.5 -76.5t-68 -68t-83 -27q-41 0 -55 29h-2l-32 -270h-48q33 309 89 721h-83l4 44h135q-46 -312 -46 -400q0 -76 50 -76q19 0 42 11.5t53 45t57 84t52 138t39 197.5h48
q-15 -114 -25 -222l-22 -248h91z" />
    <glyph glyph-name="pi" unicode="&#x3c0;" horiz-adv-x="556" 
d="M543 471h-86l-29 -325q-8 -102 3 -146h-47q-14 28 -5 139l29 332h-203q-16 -115 -52 -261.5t-68 -209.5h-48q35 73 69.5 213.5t49.5 257.5q-86 0 -120 -13l-7 32q45 24 135 24h389z" />
    <glyph glyph-name="endash" unicode="&#x2013;" horiz-adv-x="500" 
d="M-8 238l8 44h500l-8 -44h-500z" />
    <glyph glyph-name="emdash" unicode="&#x2014;" horiz-adv-x="1000" 
d="M-8 238l8 44h1000l-8 -44h-1000z" />
    <glyph glyph-name="quoteleft" unicode="&#x2018;" 
d="M220 777l17 -31q-84 -35 -84 -90q0 -19 15.5 -38.5t15.5 -37.5q0 -20 -13 -30t-30 -10q-26 0 -40 20t-14 54q0 64 37 100.5t96 62.5z" />
    <glyph glyph-name="quoteright" unicode="&#x2019;" 
d="M89 540l-17 31q84 35 84 90q0 19 -15.5 38.5t-15.5 37.5q0 20 13 30t30 10q26 0 40 -20t14 -54q0 -64 -37 -100.5t-96 -62.5z" />
    <glyph glyph-name="quotesinglbase" unicode="&#x201a;" 
d="M36 -153l-17 31q84 35 84 90q0 19 -15.5 38.5t-15.5 37.5q0 20 13 30t30 10q26 0 40 -20t14 -54q0 -64 -37 -100.5t-96 -62.5z" />
    <glyph glyph-name="quotedblleft" unicode="&#x201c;" horiz-adv-x="389" 
d="M204 777l17 -31q-84 -35 -84 -90q0 -19 15.5 -38.5t15.5 -37.5q0 -20 -13 -30t-30 -10q-26 0 -40 20t-14 54q0 64 37 100.5t96 62.5zM397 777l17 -31q-84 -35 -84 -90q0 -19 15.5 -38.5t15.5 -37.5q0 -20 -13 -30t-30 -10q-26 0 -40 20t-14 54q0 64 37 100.5t96 62.5z
" />
    <glyph glyph-name="quotedblright" unicode="&#x201d;" horiz-adv-x="389" 
d="M68 540l-17 31q84 35 84 90q0 19 -15.5 38.5t-15.5 37.5q0 20 13 30t30 10q26 0 40 -20t14 -54q0 -64 -37 -100.5t-96 -62.5zM261 540l-17 31q84 35 84 90q0 19 -15.5 38.5t-15.5 37.5q0 20 13 30t30 10q26 0 40 -20t14 -54q0 -64 -37 -100.5t-96 -62.5z" />
    <glyph glyph-name="quotedblbase" unicode="&#x201e;" horiz-adv-x="389" 
d="M-4 -153l-17 31q84 35 84 90q0 19 -15.5 38.5t-15.5 37.5q0 20 13 30t30 10q26 0 40 -20t14 -54q0 -64 -37 -100.5t-96 -62.5zM181 -153l-17 31q84 35 84 90q0 19 -15.5 38.5t-15.5 37.5q0 20 13 30t30 10q26 0 40 -20t14 -54q0 -64 -37 -100.5t-96 -62.5z" />
    <glyph glyph-name="dagger" unicode="&#x2020;" horiz-adv-x="556" 
d="M54 455l4 44h200l16 201h52l-16 -201h200l-4 -44h-200l-52 -648h-52l52 648h-200z" />
    <glyph glyph-name="daggerdbl" unicode="&#x2021;" horiz-adv-x="556" 
d="M204 -193l20 245h-200l4 44h199l27 329h-200l4 44h199l19 231h52l-19 -231h201l-4 -44h-200l-27 -329h201l-4 -44h-200l-20 -245h-52z" />
    <glyph glyph-name="bullet" unicode="&#x2022;" horiz-adv-x="500" 
d="M75 350q0 73 51 124t124 51t124 -51t51 -124t-51 -124t-124 -51t-124 51t-51 124z" />
    <glyph glyph-name="ellipsis" unicode="&#x2026;" horiz-adv-x="1000" 
d="M104 35q0 22 12 37t32 15q19 0 30.5 -14t11.5 -33q0 -20 -13 -33t-30 -13q-20 0 -31.5 11.5t-11.5 29.5zM437 35q0 22 12 37t32 15q19 0 30.5 -14t11.5 -33q0 -20 -13 -33t-30 -13q-20 0 -31.5 11.5t-11.5 29.5zM770 35q0 22 12 37t32 15q19 0 30.5 -14t11.5 -33
q0 -20 -13 -33t-30 -13q-20 0 -31.5 11.5t-11.5 29.5z" />
    <glyph glyph-name="perthousand" unicode="&#x2030;" horiz-adv-x="1093" 
d="M793 136q0 -46 22 -74t67 -28q38 0 68.5 31.5t30.5 96.5q0 45 -20.5 72.5t-63.5 27.5t-73.5 -29t-30.5 -97zM741 136q0 73 42.5 121.5t116.5 48.5q61 0 97 -37.5t36 -104.5q0 -78 -44.5 -126t-111.5 -48q-66 0 -101 41t-35 105zM112 540q0 -46 22 -74t67 -28
q38 0 68.5 31.5t30.5 96.5q0 45 -20.5 72.5t-63.5 27.5t-73.5 -29t-30.5 -97zM60 540q0 73 42.5 121.5t116.5 48.5q61 0 97 -37.5t36 -104.5q0 -78 -44.5 -126t-111.5 -48q-66 0 -101 41t-35 105zM406 136q0 73 42.5 121.5t116.5 48.5q61 0 97 -37.5t36 -104.5
q0 -78 -44.5 -126t-111.5 -48q-66 0 -101 41t-35 105zM458 136q0 -46 22 -74t67 -28q38 0 68.5 31.5t30.5 96.5q0 45 -20.5 72.5t-63.5 27.5t-73.5 -29t-30.5 -97zM37 -19l681 767l32 -29l-681 -767z" />
    <glyph glyph-name="guilsinglleft" unicode="&#x2039;" horiz-adv-x="296" 
d="M184 98l-128 151l4 36l152 137l32 -32l-138 -125l115 -135z" />
    <glyph glyph-name="guilsinglright" unicode="&#x203a;" horiz-adv-x="296" 
d="M106 422l128 -151l-4 -36l-152 -137l-32 32l138 125l-115 135z" />
    <glyph glyph-name="fraction" unicode="&#x2044;" horiz-adv-x="167" 
d="M-166 -27l462 775l37 -21l-462 -775z" />
    <glyph glyph-name="Euro" unicode="&#x20ac;" horiz-adv-x="556" 
d="M547 684l-6 -132h-43l3 98q-51 20 -102 20q-100 0 -158.5 -64.5t-82.5 -169.5h347l-26 -42h-328q-5 -38 -5 -68h310l-26 -42h-284q4 -52 17 -95t37 -80.5t64.5 -58.5t94.5 -21q60 0 156 30l-3 -46q-86 -28 -162 -28q-121 0 -187.5 86t-73.5 213h-64l26 42h38q2 45 5 68
h-70l26 42h52q26 121 99.5 198.5t189.5 77.5q81 0 156 -28z" />
    <glyph glyph-name="afii61289" unicode="&#x2113;" horiz-adv-x="471" 
d="M403 134l26 -20q-73 -119 -187 -119q-78 0 -112 55t-28 139q0 10 1 14l-30.5 -23.5l-34.5 -26.5l-16 31q64 49 85 69l25 283q11 125 57 178.5t104 53.5q57 0 83 -43t20 -111q-16 -170 -245 -376l-2 -28q-8 -90 23 -133t82 -43q46 0 85.5 30t63.5 70zM178 543l-22 -252
q91 89 143 165.5t58 153.5q10 119 -70 119q-36 0 -68.5 -45.5t-40.5 -140.5z" />
    <glyph glyph-name="trademark" unicode="&#x2122;" horiz-adv-x="990" 
d="M208 288v368h-136v44h320v-44h-136v-368h-48zM468 288v412h82l134 -339l130 339h82v-412h-48v368h-2l-149 -368h-30l-149 368h-2v-368h-48z" />
    <glyph glyph-name="Omega" unicode="&#x2126;" horiz-adv-x="729" 
d="M190 41v3q-58 53 -91 136.5t-24 186.5q13 151 107 244.5t221 93.5t200.5 -97t61.5 -238q-9 -107 -58.5 -192.5t-114.5 -133.5v-3h158l-3 -41h-229l2 30q74 46 130 133.5t66 199.5q4 52 -7 104t-36.5 96.5t-70.5 72.5t-103 28q-111 0 -187.5 -87.5t-87.5 -214.5
q-9 -107 32 -198t104 -134l-2 -30h-229l4 41h157z" />
    <glyph glyph-name="estimated" unicode="&#x212e;" horiz-adv-x="904" 
d="M870 340h-648q-5 0 -5 -4v-196q0 -12 8 -23q103 -106 245 -106q154 0 258 119h58q-55 -64 -138.5 -101.5t-178.5 -37.5q-165 0 -282 105t-117 254t117 254.5t282 105.5q166 0 283.5 -105.5t117.5 -254.5v-10zM723 365v198q0 14 -10 23q-104 102 -243 102
q-141 0 -244 -105q-9 -11 -9 -25v-193q0 -6 5 -6h497q4 0 4 6z" />
    <glyph glyph-name="partialdiff" unicode="&#x2202;" horiz-adv-x="533" 
d="M136 689l-18 34q70 54 163 54q47 0 87.5 -23t71 -67t44.5 -117.5t6 -166.5q-16 -178 -91 -293.5t-196 -115.5q-89 0 -131 66.5t-34 160.5q10 110 79 180t154 70q64 0 107.5 -35t58.5 -70h1q1 7 3 24.5t3 24.5q12 145 -38.5 233.5t-131.5 88.5q-75 0 -138 -48zM210 34h1
q76 0 134 79t80 196q-12 44 -52.5 83t-99.5 39q-68 0 -123.5 -61t-62.5 -147q-7 -83 26.5 -136t96.5 -53z" />
    <glyph glyph-name="Delta" unicode="&#x2206;" horiz-adv-x="644" 
d="M8 0l3 39l322 675h54l202 -674l-4 -40h-577zM60 40h476l-126 425l-27.5 89.5t-28.5 99.5h-4q-8 -22 -40 -89.5l-39 -82.5z" />
    <glyph glyph-name="product" unicode="&#x220f;" horiz-adv-x="723" 
d="M696 649h-114v-745h-47v745h-313v-745h-47v745h-114v44h635v-44z" />
    <glyph glyph-name="summation" unicode="&#x2211;" horiz-adv-x="585" 
d="M562 -96h-505v34l283 359l-269 362v34h476v-43h-406v-3l256 -344l-274 -349v-3h439v-47z" />
    <glyph glyph-name="minus" unicode="&#x2212;" horiz-adv-x="600" 
d="M47 229v48h506v-48h-506z" />
    <glyph glyph-name="uni2215" unicode="&#x2215;" horiz-adv-x="167" 
d="M-166 -27l462 775l37 -21l-462 -775z" />
    <glyph glyph-name="uni2219" unicode="&#x2219;" 
d="M83 292q0 23 16.5 39.5t39.5 16.5t39.5 -16.5t16.5 -39.5t-16.5 -39.5t-39.5 -16.5t-39.5 16.5t-16.5 39.5z" />
    <glyph glyph-name="radical" unicode="&#x221a;" horiz-adv-x="595" 
d="M593 820l-221 -973h-48l-166 474l-74 -28l-13 33l119 45l141 -398l8 -31.5t8 -33.5h1q1 8 3 18.5t5 24t4 20.5l194 849h39z" />
    <glyph glyph-name="infinity" unicode="&#x221e;" horiz-adv-x="787" 
d="M735 289v-1q0 -66 -44 -108.5t-105 -42.5q-45 0 -83.5 28t-101.5 94q-27 -30 -42 -45t-41 -36.5t-52.5 -31t-55.5 -9.5q-60 0 -102.5 43.5t-42.5 104.5q0 65 43 108.5t108 43.5q51 0 94 -32.5t94 -91.5l35 38.5t32 31t38.5 30t38.5 16.5t46 8q64 0 102.5 -41.5
t38.5 -106.5zM215 172h1q19 0 37.5 6.5t38 21.5t30.5 25t32 32l26 27q-57 67 -86 88q-42 31 -86 31q-48 0 -76 -35t-28 -84q0 -48 31 -80t80 -32zM590 403h-1q-25 0 -51.5 -14.5t-42.5 -29t-40.5 -40l-30.5 -31.5q61 -65 95 -90.5t72 -25.5q48 0 76.5 34t28.5 80
q0 55 -30 86t-76 31z" />
    <glyph glyph-name="integral" unicode="&#x222b;" horiz-adv-x="373" 
d="M360 828l-12 -35q-15 11 -37 11q-32 0 -51 -22q-37 -42 -37 -183q0 -76 6.5 -255t6.5 -256q0 -138 -47 -201q-30 -41 -84 -41q-35 0 -59 17l12 36q26 -13 46 -13q29 0 48 24q38 47 38 180q0 77 -6.5 258t-6.5 256q0 152 50 203q34 35 82 35q28 0 51 -14z" />
    <glyph glyph-name="approxequal" unicode="&#x2248;" horiz-adv-x="580" 
d="M507 418l23 -20q-47 -90 -125 -90q-28 0 -51.5 9.5t-68.5 33.5q-62 34 -97 34q-55 0 -103 -76l-24 19q47 92 134 92q17 0 35 -5t29 -10.5t28.5 -15.5l22.5 -13l16.5 -8.5l16.5 -8.5t14 -6.5t16.5 -6t16 -3t19.5 -1.5q31 0 53 18t45 58zM507 256l23 -20q-47 -90 -125 -90
q-28 0 -51.5 9.5t-68.5 33.5q-60 34 -97 34q-56 0 -103 -76l-24 19q47 92 133 92q17 0 36 -5t29 -10t28.5 -15.5t22.5 -12.5q3 -1 11 -5.5t11 -6l10 -5t10.5 -5t10 -4t11 -3.5l11 -2.5t12.5 -2t12 -0.5q31 0 53.5 18t44.5 57z" />
    <glyph glyph-name="notequal" unicode="&#x2260;" horiz-adv-x="589" 
d="M417 497l-49 -103h168v-36h-183l-72 -152h255v-35h-270l-57 -121l-29 15l50 106h-158v35h174l71 152h-245v36h260l56 118z" />
    <glyph glyph-name="lessequal" unicode="&#x2264;" horiz-adv-x="595" 
d="M540 93l-456 226v37l455 226v-44l-413 -198v-3l414 -200v-44zM542 14h-465v37h465v-37z" />
    <glyph glyph-name="greaterequal" unicode="&#x2265;" horiz-adv-x="595" 
d="M84 582l456 -226v-37l-456 -226v44l413 199v2l-413 200v44zM542 14h-464v37h464v-37z" />
    <glyph glyph-name="lozenge" unicode="&#x25ca;" horiz-adv-x="598" 
d="M540 346l-204 -390h-40l-203 390l204 391h40zM494 345l-158 301q-11 22 -19 48h-2q-11 -31 -20 -48l-156 -298l159 -302q13 -29 18 -47h3q7 25 18 46z" />
    <glyph glyph-name="A.sc" unicode="&#xe000;" horiz-adv-x="519" 
d="M177 262h153l-47 184q-6 23 -8 56h-2q-6 -27 -19 -58zM-28 0l4 44h56l219 498h52l138 -498h65l-4 -44h-192l4 44h71l-45 178h-180l-76 -178h77l-4 -44h-185z" />
    <glyph glyph-name="AE.sc" unicode="&#xe001;" horiz-adv-x="685" 
d="M-28 0l4 44h55l317 494h334l-3 -124h-41l-3 80h-166l-18 -208h179l-4 -44h-179l-18 -198h192l14 86h41l-18 -130h-353l4 44h68l18 198h-183l-126 -198h75l-4 -44h-185zM399 286l18 208h-45l-132 -208h159z" />
    <glyph glyph-name="Aacute.sc" unicode="&#xe002;" horiz-adv-x="519" 
d="M177 262h153l-47 184q-6 23 -8 56h-2q-6 -27 -19 -58zM-28 0l4 44h56l219 498h52l138 -498h65l-4 -44h-192l4 44h71l-45 178h-180l-76 -178h77l-4 -44h-185zM427 718l-149 -122l-33 28l142 121z" />
    <glyph glyph-name="Acircumflex.sc" unicode="&#xe003;" horiz-adv-x="519" 
d="M177 262h153l-47 184q-6 23 -8 56h-2q-6 -27 -19 -58zM-28 0l4 44h56l219 498h52l138 -498h65l-4 -44h-192l4 44h71l-45 178h-180l-76 -178h77l-4 -44h-185zM158 640l129 101h42l113 -101l-40 -28l-98 93l-112 -93z" />
    <glyph glyph-name="Adieresis.sc" unicode="&#xe004;" horiz-adv-x="519" 
d="M177 262h153l-47 184q-6 23 -8 56h-2q-6 -27 -19 -58zM-28 0l4 44h56l219 498h52l138 -498h65l-4 -44h-192l4 44h71l-45 178h-180l-76 -178h77l-4 -44h-185zM204 632q-38 0 -38 36q0 17 10.5 31.5t33.5 14.5q15 0 24.5 -10.5t9.5 -26.5q0 -13 -9.5 -29t-30.5 -16z
M402 632q-38 0 -38 36q0 17 10.5 31.5t33.5 14.5q15 0 24.5 -10.5t9.5 -26.5q0 -13 -9.5 -29t-30.5 -16z" />
    <glyph glyph-name="Agrave.sc" unicode="&#xe005;" horiz-adv-x="519" 
d="M177 262h153l-47 184q-6 23 -8 56h-2q-6 -27 -19 -58zM-28 0l4 44h56l219 498h52l138 -498h65l-4 -44h-192l4 44h71l-45 178h-180l-76 -178h77l-4 -44h-185zM212 745l124 -120l-34 -29l-130 121z" />
    <glyph glyph-name="Aring.sc" unicode="&#xe006;" horiz-adv-x="519" 
d="M177 262h153l-47 184q-6 23 -8 56h-2q-6 -27 -19 -58zM-28 0l4 44h56l219 498h52l138 -498h65l-4 -44h-192l4 44h71l-45 178h-180l-76 -178h77l-4 -44h-185zM226 666q0 -21 12 -35.5t33 -14.5q25 0 37 18.5t12 41.5q0 51 -43 51q-23 0 -37 -18t-14 -43zM186 662
q0 39 26 70t69 31q34 0 56.5 -22t22.5 -62q0 -45 -27 -72t-68 -27q-36 0 -57.5 24t-21.5 58z" />
    <glyph glyph-name="Atilde.sc" unicode="&#xe007;" horiz-adv-x="519" 
d="M177 262h153l-47 184q-6 23 -8 56h-2q-6 -27 -19 -58zM-28 0l4 44h56l219 498h52l138 -498h65l-4 -44h-192l4 44h71l-45 178h-180l-76 -178h77l-4 -44h-185zM417 700l36 -27q-35 -64 -88 -64q-24 0 -67 29q-41 28 -58 28q-13 0 -23.5 -9.5t-15 -17.5t-11.5 -25l-41 18
q10 31 33.5 56.5t54.5 25.5q33 0 73 -28q41 -29 55 -29q16 0 27 10.5t25 32.5z" />
    <glyph glyph-name="B.sc" unicode="&#xe008;" horiz-adv-x="481" 
d="M173 258l-19 -214h90q59 0 90.5 34.5t31.5 82.5q0 97 -121 97h-72zM194 494l-16 -192h49q58 0 93.5 34.5t35.5 82.5q0 75 -89 75h-73zM30 0l4 44h68l40 450h-83l4 44h222q56 0 87.5 -31.5t31.5 -84.5q0 -98 -107 -134v-2q56 -3 88.5 -36t32.5 -89q0 -73 -45 -117
t-124 -44h-219z" />
    <glyph glyph-name="C.sc" unicode="&#xe009;" horiz-adv-x="500" 
d="M438 129l-12 -115q-54 -23 -140 -23q-112 0 -173 66.5t-61 181.5q0 145 78 226.5t199 81.5q64 0 135 -22l-4 -117h-42v82q-55 13 -93 13q-104 0 -162.5 -67.5t-58.5 -182.5q0 -99 43.5 -156.5t152.5 -57.5q48 0 86 9l12 81h40z" />
    <glyph glyph-name="Ccedilla.sc" unicode="&#xe00a;" horiz-adv-x="500" 
d="M464 525l-4 -117h-42v82q-55 13 -93 13q-104 0 -162.5 -67.5t-58.5 -182.5q0 -99 43.5 -156.5t152.5 -57.5q48 0 86 9l12 81h40l-12 -115q-54 -23 -140 -23q-4 0 -6 1l-7 -56q85 0 85 -63q0 -34 -29 -60t-80 -26q-36 0 -81 15l3 43q42 -14 77 -14q54 0 54 38
q0 18 -16 26.5t-36 8.5q-6 0 -21 -3l7 95q-89 14 -136.5 78t-47.5 165q0 145 78 226.5t199 81.5q64 0 135 -22z" />
    <glyph glyph-name="D.sc" unicode="&#xe00b;" horiz-adv-x="593" 
d="M30 0l4 44h68l40 450h-83l4 44h252q225 0 225 -238q0 -129 -72.5 -214.5t-192.5 -85.5h-245zM194 494l-40 -450h99q58 0 94 13.5t70 47.5q32 31 51.5 83.5t19.5 107.5q0 198 -182 198h-112z" />
    <glyph glyph-name="E.sc" unicode="&#xe00c;" horiz-adv-x="500" 
d="M35 0l4 44h68l40 450h-83l4 44h359l-2 -124h-42l-2 80h-182l-18 -198h178l-4 -44h-178l-18 -208h192l14 86h41l-18 -130h-353z" />
    <glyph glyph-name="Eacute.sc" unicode="&#xe00d;" horiz-adv-x="500" 
d="M35 0l4 44h68l40 450h-83l4 44h359l-2 -124h-42l-2 80h-182l-18 -198h178l-4 -44h-178l-18 -208h192l14 86h41l-18 -130h-353zM437 718l-149 -122l-33 28l142 121z" />
    <glyph glyph-name="Ecircumflex.sc" unicode="&#xe00e;" horiz-adv-x="500" 
d="M35 0l4 44h68l40 450h-83l4 44h359l-2 -124h-42l-2 80h-182l-18 -198h178l-4 -44h-178l-18 -208h192l14 86h41l-18 -130h-353zM168 640l129 101h42l113 -101l-40 -28l-98 93l-112 -93z" />
    <glyph glyph-name="Edieresis.sc" unicode="&#xe00f;" horiz-adv-x="500" 
d="M35 0l4 44h68l40 450h-83l4 44h359l-2 -124h-42l-2 80h-182l-18 -198h178l-4 -44h-178l-18 -208h192l14 86h41l-18 -130h-353zM214 632q-38 0 -38 36q0 17 10.5 31.5t33.5 14.5q15 0 24.5 -10.5t9.5 -26.5q0 -13 -9.5 -29t-30.5 -16zM412 632q-38 0 -38 36
q0 17 10.5 31.5t33.5 14.5q15 0 24.5 -10.5t9.5 -26.5q0 -13 -9.5 -29t-30.5 -16z" />
    <glyph glyph-name="Egrave.sc" unicode="&#xe010;" horiz-adv-x="500" 
d="M35 0l4 44h68l40 450h-83l4 44h359l-2 -124h-42l-2 80h-182l-18 -198h178l-4 -44h-178l-18 -208h192l14 86h41l-18 -130h-353zM222 745l124 -120l-34 -29l-130 121z" />
    <glyph glyph-name="Eth.sc" unicode="&#xe011;" horiz-adv-x="593" 
d="M30 0l4 44h68l19 214h-75l4 44h75l17 192h-83l4 44h252q225 0 225 -238q0 -129 -72.5 -214.5t-192.5 -85.5h-245zM194 494l-17 -192h143l-4 -44h-143l-19 -214h99q58 0 94 13.5t70 47.5q32 31 51.5 83.5t19.5 107.5q0 198 -182 198h-112z" />
    <glyph glyph-name="F.sc" unicode="&#xe012;" horiz-adv-x="463" 
d="M35 0l4 44h68l40 450h-83l4 44h355l-4 -124h-41l-2 80h-177l-18 -208h185l-4 -44h-185l-18 -198h83l-4 -44h-203z" />
    <glyph glyph-name="G.sc" unicode="&#xe013;" horiz-adv-x="556" 
d="M470 528v-120h-42l-4 83q-44 12 -99 12q-104 0 -162.5 -67.5t-58.5 -182.5q0 -99 43.5 -156.5t152.5 -57.5q56 0 95 13l9 121h-81l4 44h193l-4 -44h-62l-13 -154q-64 -28 -155 -28q-112 0 -173 66.5t-61 181.5q0 145 78 226.5t199 81.5q67 0 141 -19z" />
    <glyph glyph-name="H.sc" unicode="&#xe014;" horiz-adv-x="630" 
d="M35 0l4 44h68l40 450h-83l4 44h203l-4 -44h-68l-18 -208h272l18 208h-83l4 44h203l-4 -44h-68l-40 -450h83l-4 -44h-203l4 44h68l18 198h-272l-18 -198h83l-4 -44h-203z" />
    <glyph glyph-name="I.sc" unicode="&#xe015;" horiz-adv-x="296" 
d="M30 0l4 44h68l40 450h-83l4 44h203l-4 -44h-68l-40 -450h83l-4 -44h-203z" />
    <glyph glyph-name="Iacute.sc" unicode="&#xe016;" horiz-adv-x="296" 
d="M30 0l4 44h68l40 450h-83l4 44h203l-4 -44h-68l-40 -450h83l-4 -44h-203zM315 718l-149 -122l-33 28l142 121z" />
    <glyph glyph-name="Icircumflex.sc" unicode="&#xe017;" horiz-adv-x="296" 
d="M30 0l4 44h68l40 450h-83l4 44h203l-4 -44h-68l-40 -450h83l-4 -44h-203zM36 640l129 101h42l113 -101l-40 -28l-98 93l-112 -93z" />
    <glyph glyph-name="Idieresis.sc" unicode="&#xe018;" horiz-adv-x="296" 
d="M30 0l4 44h68l40 450h-83l4 44h203l-4 -44h-68l-40 -450h83l-4 -44h-203zM92 632q-38 0 -38 36q0 17 10.5 31.5t33.5 14.5q15 0 24.5 -10.5t9.5 -26.5q0 -13 -9.5 -29t-30.5 -16zM290 632q-38 0 -38 36q0 17 10.5 31.5t33.5 14.5q15 0 24.5 -10.5t9.5 -26.5
q0 -13 -9.5 -29t-30.5 -16z" />
    <glyph glyph-name="Igrave.sc" unicode="&#xe019;" horiz-adv-x="296" 
d="M30 0l4 44h68l40 450h-83l4 44h203l-4 -44h-68l-40 -450h83l-4 -44h-203zM100 745l124 -120l-34 -29l-130 121z" />
    <glyph glyph-name="J.sc" unicode="&#xe01a;" 
d="M-32 -147l-16 40q91 43 120.5 96.5t39.5 164.5l30 340h-83l4 44h203l-4 -44h-68l-29 -332q-4 -51 -8.5 -80t-17 -67.5t-32 -63.5t-54.5 -51t-85 -47z" />
    <glyph glyph-name="K.sc" unicode="&#xe01b;" horiz-adv-x="537" 
d="M35 0l4 44h68l40 450h-83l4 44h203l-4 -44h-68l-19 -209l238 209h-80l4 44h185l-4 -44h-43l-252 -220l215 -230h59l-4 -44h-192l4 44h70l-201 220l-20 -220h83l-4 -44h-203z" />
    <glyph glyph-name="L.sc" unicode="&#xe01c;" horiz-adv-x="407" 
d="M30 0l4 44h68l40 450h-83l4 44h203l-4 -44h-68l-40 -450h192l14 86h41l-18 -130h-353z" />
    <glyph glyph-name="Lslash.sc" unicode="&#xe01d;" horiz-adv-x="407" 
d="M30 0l4 44h68l15 169l-76 -49l4 48l76 49l21 233h-83l4 44h203l-4 -44h-68l-18 -198l148 94l-4 -48l-148 -94l-18 -204h192l14 86h41l-18 -130h-353z" />
    <glyph glyph-name="M.sc" unicode="&#xe01e;" horiz-adv-x="741" 
d="M40 0l4 44h68l40 450h-83l4 44h138l137 -424q12 -41 16 -66h2q7 32 22 66l192 424h123l-4 -44h-68l-28 -450h83l-4 -44h-199l4 44h64l28 347q4 44 8 62l-2 2q-12 -41 -21 -58l-180 -397h-48l-125 391q-13 38 -14 64h-2q0 -29 -3 -57l-32 -354h83l-4 -44h-199z" />
    <glyph glyph-name="N.sc" unicode="&#xe01f;" horiz-adv-x="648" 
d="M40 0l4 44h68l40 450h-83l4 44h130l239 -400q21 -35 35 -74h2q0 49 2 80l28 350h-83l4 44h199l-4 -44h-68l-44 -494h-48l-243 410q-22 36 -29 62h-2q0 -56 -1 -67l-26 -361h83l-4 -44h-203z" />
    <glyph glyph-name="Ntilde.sc" unicode="&#xe020;" horiz-adv-x="648" 
d="M40 0l4 44h68l40 450h-83l4 44h130l239 -400q21 -35 35 -74h2q0 49 2 80l28 350h-83l4 44h199l-4 -44h-68l-44 -494h-48l-243 410q-22 36 -29 62h-2q0 -56 -1 -67l-26 -361h83l-4 -44h-203zM471 700l36 -27q-35 -64 -88 -64q-24 0 -67 29q-41 28 -58 28q-13 0 -23.5 -9.5
t-15 -17.5t-11.5 -25l-41 18q10 31 33.5 56.5t54.5 25.5q33 0 73 -28q41 -29 55 -29q16 0 27 10.5t25 32.5z" />
    <glyph glyph-name="O.sc" unicode="&#xe021;" horiz-adv-x="574" 
d="M522 300q0 -149 -76 -229t-182 -80q-97 0 -154.5 67.5t-57.5 178.5q0 152 74.5 231t179.5 79q102 0 159 -67.5t57 -179.5zM470 288q0 98 -41.5 154.5t-129.5 56.5t-141.5 -72.5t-53.5 -181.5q0 -94 42.5 -150t128.5 -56q90 0 142.5 69.5t52.5 179.5z" />
    <glyph glyph-name="OE.sc" unicode="&#xe022;" horiz-adv-x="759" 
d="M378 44l40 450q-38 4 -86 4q-110 0 -169 -75.5t-59 -182.5q0 -98 50.5 -149t161.5 -51q34 0 62 4zM677 130l-18 -130h-283q-14 0 -45 -1t-47 -1q-120 0 -176 62.5t-56 169.5q0 48 9.5 92t32 84t55 69.5t82 47t110.5 17.5q17 0 43.5 -1t38.5 -1h275l-2 -124h-42l-2 80
h-182l-18 -198h178l-4 -44h-178l-18 -208h192l14 86h41z" />
    <glyph glyph-name="Oacute.sc" unicode="&#xe023;" horiz-adv-x="574" 
d="M522 300q0 -149 -76 -229t-182 -80q-97 0 -154.5 67.5t-57.5 178.5q0 152 74.5 231t179.5 79q102 0 159 -67.5t57 -179.5zM470 288q0 98 -41.5 154.5t-129.5 56.5t-141.5 -72.5t-53.5 -181.5q0 -94 42.5 -150t128.5 -56q90 0 142.5 69.5t52.5 179.5zM454 718l-149 -122
l-33 28l142 121z" />
    <glyph glyph-name="Ocircumflex.sc" unicode="&#xe024;" horiz-adv-x="574" 
d="M522 300q0 -149 -76 -229t-182 -80q-97 0 -154.5 67.5t-57.5 178.5q0 152 74.5 231t179.5 79q102 0 159 -67.5t57 -179.5zM470 288q0 98 -41.5 154.5t-129.5 56.5t-141.5 -72.5t-53.5 -181.5q0 -94 42.5 -150t128.5 -56q90 0 142.5 69.5t52.5 179.5zM185 640l129 101h42
l113 -101l-40 -28l-98 93l-112 -93z" />
    <glyph glyph-name="Odieresis.sc" unicode="&#xe025;" horiz-adv-x="574" 
d="M522 300q0 -149 -76 -229t-182 -80q-97 0 -154.5 67.5t-57.5 178.5q0 152 74.5 231t179.5 79q102 0 159 -67.5t57 -179.5zM470 288q0 98 -41.5 154.5t-129.5 56.5t-141.5 -72.5t-53.5 -181.5q0 -94 42.5 -150t128.5 -56q90 0 142.5 69.5t52.5 179.5zM231 632
q-38 0 -38 36q0 17 10.5 31.5t33.5 14.5q15 0 24.5 -10.5t9.5 -26.5q0 -13 -9.5 -29t-30.5 -16zM429 632q-38 0 -38 36q0 17 10.5 31.5t33.5 14.5q15 0 24.5 -10.5t9.5 -26.5q0 -13 -9.5 -29t-30.5 -16z" />
    <glyph glyph-name="Ograve.sc" unicode="&#xe026;" horiz-adv-x="574" 
d="M522 300q0 -149 -76 -229t-182 -80q-97 0 -154.5 67.5t-57.5 178.5q0 152 74.5 231t179.5 79q102 0 159 -67.5t57 -179.5zM470 288q0 98 -41.5 154.5t-129.5 56.5t-141.5 -72.5t-53.5 -181.5q0 -94 42.5 -150t128.5 -56q90 0 142.5 69.5t52.5 179.5zM239 745l124 -120
l-34 -29l-130 121z" />
    <glyph glyph-name="Oslash.sc" unicode="&#xe027;" horiz-adv-x="574" 
d="M435 432l-268 -356q40 -37 108 -37q90 0 142.5 69.5t52.5 179.5q0 92 -35 144zM139 108l269 355q-41 36 -109 36q-88 0 -141.5 -72.5t-53.5 -181.5q0 -86 35 -137zM37 -28l69 92q-54 65 -54 173q0 152 74.5 231t179.5 79q79 0 133 -42l65 86l33 -25l-69 -91
q54 -64 54 -175q0 -149 -76 -229t-182 -80q-74 0 -128 43l-66 -87z" />
    <glyph glyph-name="Otilde.sc" unicode="&#xe028;" horiz-adv-x="574" 
d="M522 300q0 -149 -76 -229t-182 -80q-97 0 -154.5 67.5t-57.5 178.5q0 152 74.5 231t179.5 79q102 0 159 -67.5t57 -179.5zM470 288q0 98 -41.5 154.5t-129.5 56.5t-141.5 -72.5t-53.5 -181.5q0 -94 42.5 -150t128.5 -56q90 0 142.5 69.5t52.5 179.5zM444 700l36 -27
q-35 -64 -88 -64q-24 0 -67 29q-41 28 -58 28q-13 0 -23.5 -9.5t-15 -17.5t-11.5 -25l-41 18q10 31 33.5 56.5t54.5 25.5q33 0 73 -28q41 -29 55 -29q16 0 27 10.5t25 32.5z" />
    <glyph glyph-name="P.sc" unicode="&#xe029;" horiz-adv-x="444" 
d="M30 0l4 44h68l40 450h-83l4 44h188q81 0 122 -36t41 -99q0 -89 -52 -133t-124 -44h-68l-16 -182h83l-4 -44h-203zM194 494l-20 -228h65q62 0 92.5 36t30.5 96q0 45 -25 70.5t-74 25.5h-69z" />
    <glyph glyph-name="Q.sc" unicode="&#xe02a;" horiz-adv-x="574" 
d="M559 -92l-3 -44q-44 -7 -52 -7q-46 0 -99.5 31t-101.5 66t-73 40q-83 11 -130.5 77t-47.5 166q0 152 74.5 231t179.5 79q102 0 159 -67.5t57 -179.5q0 -130 -58.5 -207.5t-146.5 -93.5v-2q25 -4 56 -28.5t65.5 -46t72.5 -21.5q17 0 48 7zM470 288q0 98 -41.5 154.5
t-129.5 56.5t-141.5 -72.5t-53.5 -181.5q0 -94 42.5 -150t128.5 -56q90 0 142.5 69.5t52.5 179.5z" />
    <glyph glyph-name="R.sc" unicode="&#xe02b;" horiz-adv-x="500" 
d="M30 0l4 44h68l40 450h-83l4 44h200q80 0 113.5 -34.5t33.5 -101.5q0 -122 -139 -151v-2q22 -6 42 -39l72 -115q19 -32 32 -41.5t32 -9.5h32l-4 -44h-58q-22 0 -35.5 9t-27.5 34l-92 159q-17 28 -31 36t-49 8h-12l-18 -202h83l-4 -44h-203zM194 494l-19 -208h64
q58 0 90.5 36t32.5 85q0 87 -97 87h-71z" />
    <glyph glyph-name="S.sc" unicode="&#xe02c;" horiz-adv-x="463" 
d="M402 414h-42l-2 76q-48 13 -90 13q-65 0 -97 -29t-32 -69t27.5 -64t66.5 -36.5t78 -27t66.5 -46t27.5 -82.5q0 -68 -52.5 -113t-146.5 -45q-72 0 -148 27l2 118h42l2 -85q48 -16 99 -16q68 0 109 31t41 84q0 37 -27.5 60.5t-66.5 36.5t-78 27.5t-66.5 45.5t-27.5 79
q0 68 50.5 108t132.5 40q63 0 134 -24z" />
    <glyph glyph-name="Scaron.sc" unicode="&#xe02d;" horiz-adv-x="463" 
d="M402 414h-42l-2 76q-48 13 -90 13q-65 0 -97 -29t-32 -69t27.5 -64t66.5 -36.5t78 -27t66.5 -46t27.5 -82.5q0 -68 -52.5 -113t-146.5 -45q-72 0 -148 27l2 118h42l2 -85q48 -16 99 -16q68 0 109 31t41 84q0 37 -27.5 60.5t-66.5 36.5t-78 27.5t-66.5 45.5t-27.5 79
q0 68 50.5 108t132.5 40q63 0 134 -24zM398 713l-129 -101h-42l-113 101l40 28l98 -93l112 93z" />
    <glyph glyph-name="T.sc" unicode="&#xe02e;" horiz-adv-x="481" 
d="M468 538v-124h-42l-4 80h-144l-40 -450h83l-4 -44h-203l4 44h68l40 450h-147l-16 -80h-44l18 124h431z" />
    <glyph glyph-name="Thorn.sc" unicode="&#xe02f;" horiz-adv-x="444" 
d="M30 0l4 44h68l40 450h-83l4 44h203l-4 -44h-68l-5 -52h53q81 0 122 -36t41 -99q0 -89 -52 -133t-124 -44h-67l-8 -86h83l-4 -44h-203zM185 398l-20 -228h65q62 0 92.5 36t30.5 96q0 45 -25 70.5t-74 25.5h-69z" />
    <glyph glyph-name="U.sc" unicode="&#xe030;" horiz-adv-x="611" 
d="M586 538l-4 -44h-61l-29 -326q-8 -92 -57 -134.5t-140 -42.5q-190 0 -190 137q0 28 30 366h-83l4 44h203l-4 -44h-68q-30 -344 -30 -362q0 -46 35.5 -71.5t102.5 -25.5q137 0 149 136l29 323h-83l4 44h192z" />
    <glyph glyph-name="Uacute.sc" unicode="&#xe031;" horiz-adv-x="611" 
d="M586 538l-4 -44h-61l-29 -326q-8 -92 -57 -134.5t-140 -42.5q-190 0 -190 137q0 28 30 366h-83l4 44h203l-4 -44h-68q-30 -344 -30 -362q0 -46 35.5 -71.5t102.5 -25.5q137 0 149 136l29 323h-83l4 44h192zM473 718l-149 -122l-33 28l142 121z" />
    <glyph glyph-name="Ucircumflex.sc" unicode="&#xe032;" horiz-adv-x="611" 
d="M586 538l-4 -44h-61l-29 -326q-8 -92 -57 -134.5t-140 -42.5q-190 0 -190 137q0 28 30 366h-83l4 44h203l-4 -44h-68q-30 -344 -30 -362q0 -46 35.5 -71.5t102.5 -25.5q137 0 149 136l29 323h-83l4 44h192zM194 640l129 101h42l113 -101l-40 -28l-98 93l-112 -93z" />
    <glyph glyph-name="Udieresis.sc" unicode="&#xe033;" horiz-adv-x="611" 
d="M586 538l-4 -44h-61l-29 -326q-8 -92 -57 -134.5t-140 -42.5q-190 0 -190 137q0 28 30 366h-83l4 44h203l-4 -44h-68q-30 -344 -30 -362q0 -46 35.5 -71.5t102.5 -25.5q137 0 149 136l29 323h-83l4 44h192zM240 632q-38 0 -38 36q0 17 10.5 31.5t33.5 14.5
q15 0 24.5 -10.5t9.5 -26.5q0 -13 -9.5 -29t-30.5 -16zM438 632q-38 0 -38 36q0 17 10.5 31.5t33.5 14.5q15 0 24.5 -10.5t9.5 -26.5q0 -13 -9.5 -29t-30.5 -16z" />
    <glyph glyph-name="Ugrave.sc" unicode="&#xe034;" horiz-adv-x="611" 
d="M586 538l-4 -44h-61l-29 -326q-8 -92 -57 -134.5t-140 -42.5q-190 0 -190 137q0 28 30 366h-83l4 44h203l-4 -44h-68q-30 -344 -30 -362q0 -46 35.5 -71.5t102.5 -25.5q137 0 149 136l29 323h-83l4 44h192zM258 745l124 -120l-34 -29l-130 121z" />
    <glyph glyph-name="V.sc" unicode="&#xe035;" horiz-adv-x="500" 
d="M-1 494l4 44h189l-4 -44h-71l106 -383q9 -30 12 -67h2q5 24 21 67l160 383h-80l4 44h189l-4 -44h-57l-212 -498h-52l-141 498h-66z" />
    <glyph glyph-name="W.sc" unicode="&#xe036;" horiz-adv-x="759" 
d="M280 494l4 44h196l-4 -44h-78l97 -383q10 -40 12 -67h2q8 35 18 62l150 388h-80l4 44h189l-4 -44h-57l-204 -498h-48l-88 336h-2l-143 -336h-48l-131 498h-66l4 44h189l-4 -44h-71l94 -376q12 -46 12 -74h2q10 38 27 75l121 274l-27 101h-66z" />
    <glyph glyph-name="X.sc" unicode="&#xe037;" horiz-adv-x="519" 
d="M-13 0l4 44h54l184 234l-131 216h-63l4 44h192l-4 -44h-77q17 -20 26 -35l83 -141l109 141q19 24 34 33v2h-83l4 44h185l-4 -44h-54l-169 -216l144 -234h63l-4 -44h-192l4 44h77q-14 12 -27 34l-95 160l-120 -159q-18 -25 -34 -33v-2h83l-4 -44h-189z" />
    <glyph glyph-name="Y.sc" unicode="&#xe038;" horiz-adv-x="481" 
d="M132 0l4 44h68l17 185l-153 265h-64l4 44h192l-4 -44h-80q16 -14 31 -40l105 -181l120 180q20 31 34 39v2h-83l4 44h185l-4 -44h-54l-181 -264l-17 -186h83l-4 -44h-203z" />
    <glyph glyph-name="Yacute.sc" unicode="&#xe039;" horiz-adv-x="481" 
d="M132 0l4 44h68l17 185l-153 265h-64l4 44h192l-4 -44h-80q16 -14 31 -40l105 -181l120 180q20 31 34 39v2h-83l4 44h185l-4 -44h-54l-181 -264l-17 -186h83l-4 -44h-203zM408 718l-149 -122l-33 28l142 121z" />
    <glyph glyph-name="Ydieresis.sc" unicode="&#xe03a;" horiz-adv-x="481" 
d="M132 0l4 44h68l17 185l-153 265h-64l4 44h192l-4 -44h-80q16 -14 31 -40l105 -181l120 180q20 31 34 39v2h-83l4 44h185l-4 -44h-54l-181 -264l-17 -186h83l-4 -44h-203zM165 632q-38 0 -38 36q0 17 10.5 31.5t33.5 14.5q15 0 24.5 -10.5t9.5 -26.5q0 -13 -9.5 -29
t-30.5 -16zM363 632q-38 0 -38 36q0 17 10.5 31.5t33.5 14.5q15 0 24.5 -10.5t9.5 -26.5q0 -13 -9.5 -29t-30.5 -16z" />
    <glyph glyph-name="Z.sc" unicode="&#xe03b;" horiz-adv-x="463" 
d="M101 412h-41l12 126h372l-4 -39l-323 -411q-23 -30 -43 -42v-2h283l16 83h41l-16 -127h-379l4 44l321 410q24 30 39 38v2h-272z" />
    <glyph glyph-name="Zcaron.sc" unicode="&#xe03c;" horiz-adv-x="463" 
d="M101 412h-41l12 126h372l-4 -39l-323 -411q-23 -30 -43 -42v-2h283l16 83h41l-16 -127h-379l4 44l321 410q24 30 39 38v2h-272zM388 713l-129 -101h-42l-113 101l40 28l98 -93l112 93z" />
    <glyph glyph-name="f_i.sc" unicode="&#xe03d;" horiz-adv-x="759" 
d="M35 0l4 44h68l40 450h-83l4 44h355l-4 -124h-41l-2 80h-177l-18 -208h185l-4 -44h-185l-18 -198h83l-4 -44h-203zM493 0l4 44h68l40 450h-83l4 44h203l-4 -44h-68l-40 -450h83l-4 -44h-203z" />
    <glyph glyph-name="f_l.sc" unicode="&#xe03e;" horiz-adv-x="870" 
d="M35 0l4 44h68l40 450h-83l4 44h355l-4 -124h-41l-2 80h-177l-18 -208h185l-4 -44h-185l-18 -198h83l-4 -44h-203zM493 0l4 44h68l40 450h-83l4 44h203l-4 -44h-68l-40 -450h192l14 86h41l-18 -130h-353z" />
    <glyph glyph-name="germandbls.sc" unicode="&#xe03f;" horiz-adv-x="926" 
d="M402 414h-42l-2 76q-48 13 -90 13q-65 0 -97 -29t-32 -69t27.5 -64t66.5 -36.5t78 -27t66.5 -46t27.5 -82.5q0 -68 -52.5 -113t-146.5 -45q-72 0 -148 27l2 118h42l2 -85q48 -16 99 -16q68 0 109 31t41 84q0 37 -27.5 60.5t-66.5 36.5t-78 27.5t-66.5 45.5t-27.5 79
q0 68 50.5 108t132.5 40q63 0 134 -24zM865 414h-42l-2 76q-48 13 -90 13q-65 0 -97 -29t-32 -69t27.5 -64t66.5 -36.5t78 -27t66.5 -46t27.5 -82.5q0 -68 -52.5 -113t-146.5 -45q-72 0 -148 27l2 118h42l2 -85q48 -16 99 -16q68 0 109 31t41 84q0 37 -27.5 60.5t-66.5 36.5
t-78 27.5t-66.5 45.5t-27.5 79q0 68 50.5 108t132.5 40q63 0 134 -24z" />
    <glyph glyph-name="zero.taboldstyle" unicode="&#xf643;" horiz-adv-x="556" 
d="M296 524q54 0 95.5 -21.5t66 -57.5t36.5 -79t12 -91q0 -53 -14.5 -102.5t-43 -91.5t-77 -67.5t-111.5 -25.5q-54 0 -95.5 21.5t-66 57.5t-36.5 79t-12 91q0 53 14.5 102.5t43 91.5t77 67.5t111.5 25.5zM102 236q0 -94 43 -149t120 -55q86 0 137.5 67t51.5 178
q0 94 -43 148.5t-120 54.5q-86 0 -137.5 -67t-51.5 -177z" />
    <glyph glyph-name="one.taboldstyle" unicode="&#xf644;" horiz-adv-x="556" 
d="M125 0l4 44h104l38 424h-104l4 44h260l-4 -44h-104l-38 -424h104l-4 -44h-260z" />
    <glyph glyph-name="two.taboldstyle" unicode="&#xf645;" horiz-adv-x="556" 
d="M74 0l4 48q192 129 259.5 199t67.5 131q0 42 -29.5 70t-81.5 28q-60 0 -93.5 -28.5t-47.5 -87.5h-52q29 164 199 164q75 0 116 -40.5t41 -103.5q0 -77 -74.5 -154.5t-247.5 -179.5v-2h323l-4 -44h-380z" />
    <glyph glyph-name="three.taboldstyle" unicode="&#xf646;" horiz-adv-x="556" 
d="M162 155l5 44q92 0 165.5 45t73.5 128q0 47 -33 75.5t-85 28.5q-57 0 -96 -28.5t-50 -74.5h-52q31 151 204 151q76 0 120 -41t44 -106q0 -62 -44 -119t-137 -73v-2q81 -5 131 -51t50 -118q0 -85 -64 -149.5t-186 -64.5q-98 0 -180 38l6 50q81 -40 169 -40q95 0 149 47
t54 120q0 65 -56.5 102.5t-169.5 37.5h-18z" />
    <glyph glyph-name="four.taboldstyle" unicode="&#xf647;" horiz-adv-x="556" 
d="M325 91l28 314q3 33 8 55l-2 2q-13 -32 -36 -60l-219 -270q-23 -27 -41 -39v-2h262zM299 -192l22 239h-308l4 40l344 425h52l-37 -421h156l-4 -44h-156l-21 -239h-52z" />
    <glyph glyph-name="five.taboldstyle" unicode="&#xf648;" horiz-adv-x="556" 
d="M115 199l28 313h334l-4 -44h-285l-20 -221q151 -3 229 -52t78 -156q0 -98 -74 -168.5t-188 -70.5q-87 0 -143 21l5 47q52 -24 125 -24q104 0 163.5 53t59.5 138q0 94 -74 128.5t-234 35.5z" />
    <glyph glyph-name="six.taboldstyle" unicode="&#xf649;" horiz-adv-x="556" 
d="M523 705l-9 -45q-34 10 -86 10q-262 0 -323 -335l2 -2q73 95 188 95q92 0 142 -57.5t50 -143.5q0 -100 -57 -169.5t-156 -69.5q-107 0 -164 80t-57 202q0 116 40.5 215t127 164t203.5 65q36 0 99 -9zM105 284v-28q0 -100 46 -162t128 -62q72 0 114 53.5t42 136.5
q0 66 -37 112t-117 46q-101 0 -176 -96z" />
    <glyph glyph-name="seven.taboldstyle" unicode="&#xf64a;" horiz-adv-x="556" 
d="M483 512l-4 -38l-81.5 -147.5l-88 -160t-84 -139t-97.5 -133t-100 -94.5l-28 33q68 57 130.5 140t102.5 156.5l95.5 173.5t100.5 165h-357l4 44h407z" />
    <glyph glyph-name="eight.taboldstyle" unicode="&#xf64b;" horiz-adv-x="556" 
d="M106 540q0 76 56 125t148 49q94 0 138.5 -45t44.5 -103q0 -121 -164 -198q99 -47 135.5 -89t36.5 -104q0 -78 -56.5 -132.5t-176.5 -54.5q-108 0 -160.5 49.5t-52.5 128.5q0 63 46 110.5t143 89.5q-78 39 -108 78t-30 96zM445 561q0 45 -36 79t-99 34q-72 0 -114 -40
t-42 -91q0 -92 136 -153q155 70 155 171zM107 163q0 -135 170 -135q84 0 130 39.5t46 104.5q0 45 -33.5 82.5t-139.5 90.5q-102 -51 -137.5 -93.5t-35.5 -88.5z" />
    <glyph glyph-name="nine.taboldstyle" unicode="&#xf64c;" horiz-adv-x="556" 
d="M23 -180l9 42q40 -10 87 -10q64 0 116.5 21.5t87 55.5t59 79.5t36 91t14.5 91.5l-2 2q-28 -46 -74.5 -70.5t-99.5 -24.5q-80 0 -139 54.5t-59 154.5q0 94 61 155.5t156 61.5q36 0 70 -13t66.5 -42t52.5 -87t20 -137q0 -200 -99.5 -318.5t-257.5 -118.5q-56 0 -104 12z
M110 309q0 -77 44 -120t117 -43q48 0 92 25t69 67v22q0 107 -46 163.5t-120 56.5q-65 0 -110.5 -47.5t-45.5 -123.5z" />
    <glyph glyph-name="dollar.taboldstyle" unicode="&#xf653;" horiz-adv-x="556" 
d="M215 -144l12 134q-60 3 -115.5 14t-77.5 22l11 134h44l-3 -100q27 -10 74 -18t71 -8l28 309q-110 33 -150.5 74.5t-40.5 101.5q0 42 15 76t38.5 54t54.5 34t59 19.5t57 7.5l11 124h44l-11 -124q95 -5 157 -30l-6 -124h-41v92q-58 18 -114 18l-25 -282l62.5 -22.5t53 -25
t46 -33.5t27 -44t11.5 -60q0 -96 -69.5 -148.5t-166.5 -60.5l-12 -134h-44zM264 396l24 270q-68 -2 -116 -40t-48 -102q0 -50 31 -74.5t109 -53.5zM302 329l-27 -295q71 8 123.5 48t52.5 114q0 52 -33.5 77.5t-115.5 55.5z" />
    <glyph glyph-name="cent.taboldstyle" unicode="&#xf654;" horiz-adv-x="556" 
d="M258 37l39 443q-75 -10 -115 -85.5t-40 -178.5q0 -71 28.5 -119.5t87.5 -59.5zM243 -131l11 121q-78 8 -121 68t-43 158q0 79 20 140t52.5 95.5t67.5 52t71 20.5l9 107h40l-9 -107q68 0 132 -20l-12 -118h-44l4 82q-42 12 -84 12l-39 -446q35 0 75 13t68 32l-7 -54
q-63 -35 -140 -35l-11 -121h-40z" />
    <glyph glyph-name="breve.sc" unicode="&#xf6f4;" 
d="M52 707l44 23q29 -77 86 -77q64 0 97 73l44 -19q-45 -98 -136 -98q-98 0 -135 98z" />
    <glyph glyph-name="caron.sc" unicode="&#xf6f5;" 
d="M330 713l-129 -101h-42l-113 101l40 28l98 -93l112 93z" />
    <glyph glyph-name="circumflex.sc" unicode="&#xf6f6;" 
d="M37 640l129 101h42l113 -101l-40 -28l-98 93l-112 -93z" />
    <glyph glyph-name="dotaccent.sc" unicode="&#xf6f7;" 
d="M182 632q-38 0 -38 36q0 17 10.5 31.5t33.5 14.5q15 0 24.5 -10.5t9.5 -26.5q0 -13 -9.5 -29t-30.5 -16z" />
    <glyph glyph-name="hungarumlaut.sc" unicode="&#xf6f8;" 
d="M221 718l-149 -122l-33 28l142 121zM391 718l-149 -122l-33 28l142 121z" />
    <glyph glyph-name="lslash.sc" unicode="&#xf6f9;" horiz-adv-x="407" 
d="M30 0l4 44h68l15 169l-76 -49l4 48l76 49l21 233h-83l4 44h203l-4 -44h-68l-18 -198l148 94l-4 -48l-148 -94l-18 -204h192l14 86h41l-18 -130h-353z" />
    <glyph glyph-name="oe.sc" unicode="&#xf6fa;" horiz-adv-x="759" 
d="M378 44l40 450q-38 4 -86 4q-110 0 -169 -75.5t-59 -182.5q0 -98 50.5 -149t161.5 -51q34 0 62 4zM677 130l-18 -130h-283q-14 0 -45 -1t-47 -1q-120 0 -176 62.5t-56 169.5q0 48 9.5 92t32 84t55 69.5t82 47t110.5 17.5q17 0 43.5 -1t38.5 -1h275l-2 -124h-42l-2 80
h-182l-18 -198h178l-4 -44h-178l-18 -208h192l14 86h41z" />
    <glyph glyph-name="ogonek.sc" unicode="&#xf6fb;" 
d="M294 -138l-4 -36q-43 -39 -102 -39q-31 0 -52.5 16.5t-21.5 53.5q0 68 80 143h36q-60 -68 -60 -119q0 -50 48 -50q43 0 76 31z" />
    <glyph glyph-name="ring.sc" unicode="&#xf6fc;" 
d="M135 666q0 -21 12 -35.5t33 -14.5q25 0 37 18.5t12 41.5q0 51 -43 51q-23 0 -37 -18t-14 -43zM95 662q0 39 26 70t69 31q34 0 56.5 -22t22.5 -62q0 -45 -26.5 -72t-68.5 -27q-36 0 -57.5 24t-21.5 58z" />
    <glyph glyph-name="scaron.sc" unicode="&#xf6fd;" horiz-adv-x="463" 
d="M402 414h-42l-2 76q-48 13 -90 13q-65 0 -97 -29t-32 -69t27.5 -64t66.5 -36.5t78 -27t66.5 -46t27.5 -82.5q0 -68 -52.5 -113t-146.5 -45q-72 0 -148 27l2 118h42l2 -85q48 -16 99 -16q68 0 109 31t41 84q0 37 -27.5 60.5t-66.5 36.5t-78 27.5t-66.5 45.5t-27.5 79
q0 68 50.5 108t132.5 40q63 0 134 -24zM398 713l-129 -101h-42l-113 101l40 28l98 -93l112 93z" />
    <glyph glyph-name="tilde.sc" unicode="&#xf6fe;" 
d="M296 700l36 -27q-35 -64 -88 -64q-24 0 -67 29q-41 28 -58 28q-13 0 -23.5 -9.5t-15 -17.5t-11.5 -25l-41 18q10 31 33.5 56.5t54.5 25.5q33 0 73 -28q41 -29 55 -29q16 0 27 10.5t25 32.5z" />
    <glyph glyph-name="zcaron.sc" unicode="&#xf6ff;" horiz-adv-x="463" 
d="M101 412h-41l12 126h372l-4 -39l-323 -411q-23 -30 -43 -42v-2h283l16 83h41l-16 -127h-379l4 44l321 410q24 30 39 38v2h-272zM388 713l-129 -101h-42l-113 101l40 28l98 -93l112 93z" />
    <glyph glyph-name="exclam.sc" unicode="&#xf721;" horiz-adv-x="296" 
d="M78 35q0 22 12 37t32 15q19 0 30.5 -14t11.5 -33q0 -20 -13 -33t-30 -13q-20 0 -31.5 11.5t-11.5 29.5zM117 236l40 533h56l-52 -533h-44z" />
    <glyph glyph-name="ampersand.sc" unicode="&#xf726;" horiz-adv-x="685" 
d="M675 302l-4 -44h-61q-7 -39 -20 -74t-38 -71t-58 -62.5t-83 -43t-110 -16.5q-107 0 -185 71t-78 198q0 116 60 190t145 74q44 0 70.5 -25.5t26.5 -64.5q0 -34 -21 -72l2 -2l250 231l31 -30l-474 -435q67 -91 188 -91q94 0 161.5 62t84.5 161h-93l4 44h202zM105 165
l108 101q53 49 70 77.5t17 67.5q0 69 -69 69q-55 0 -100 -58.5t-45 -156.5q0 -61 19 -100z" />
    <glyph glyph-name="question.sc" unicode="&#xf73f;" horiz-adv-x="481" 
d="M194 244l-40 -31q-44 47 -44 91q0 9 2 18t4 15.5t7 14.5t8.5 13t11.5 12.5t11 11t13 10.5l13 9l14 9.5t13 8.5l68 45q91 60 91 139q0 56 -38.5 87.5t-100.5 31.5q-64 0 -107 -19l-10 45q66 22 124 22q89 0 136.5 -46.5t47.5 -113.5q0 -59 -30.5 -102t-64.5 -66l-68 -46
l-55 -38t-26 -25.5t-12 -31.5q0 -14 5 -25t15 -23.5t12 -15.5zM101 35q0 22 12 37t32 15q19 0 30.5 -14t11.5 -33q0 -20 -13 -33t-30 -13q-20 0 -31.5 11.5t-11.5 29.5z" />
    <glyph glyph-name="grave.sc" unicode="&#xf760;" 
d="M91 745l124 -120l-34 -29l-130 121z" />
    <glyph glyph-name="a.sc" unicode="&#xf761;" horiz-adv-x="519" 
d="M177 262h153l-47 184q-6 23 -8 56h-2q-6 -27 -19 -58zM-28 0l4 44h56l219 498h52l138 -498h65l-4 -44h-192l4 44h71l-45 178h-180l-76 -178h77l-4 -44h-185z" />
    <glyph glyph-name="b.sc" unicode="&#xf762;" horiz-adv-x="481" 
d="M173 258l-19 -214h90q59 0 90.5 34.5t31.5 82.5q0 97 -121 97h-72zM194 494l-16 -192h49q58 0 93.5 34.5t35.5 82.5q0 75 -89 75h-73zM30 0l4 44h68l40 450h-83l4 44h222q56 0 87.5 -31.5t31.5 -84.5q0 -98 -107 -134v-2q56 -3 88.5 -36t32.5 -89q0 -73 -45 -117
t-124 -44h-219z" />
    <glyph glyph-name="c.sc" unicode="&#xf763;" horiz-adv-x="500" 
d="M438 129l-12 -115q-54 -23 -140 -23q-112 0 -173 66.5t-61 181.5q0 145 78 226.5t199 81.5q64 0 135 -22l-4 -117h-42v82q-55 13 -93 13q-104 0 -162.5 -67.5t-58.5 -182.5q0 -99 43.5 -156.5t152.5 -57.5q48 0 86 9l12 81h40z" />
    <glyph glyph-name="d.sc" unicode="&#xf764;" horiz-adv-x="593" 
d="M30 0l4 44h68l40 450h-83l4 44h252q225 0 225 -238q0 -129 -72.5 -214.5t-192.5 -85.5h-245zM194 494l-40 -450h99q58 0 94 13.5t70 47.5q32 31 51.5 83.5t19.5 107.5q0 198 -182 198h-112z" />
    <glyph glyph-name="e.sc" unicode="&#xf765;" horiz-adv-x="500" 
d="M35 0l4 44h68l40 450h-83l4 44h359l-2 -124h-42l-2 80h-182l-18 -198h178l-4 -44h-178l-18 -208h192l14 86h41l-18 -130h-353z" />
    <glyph glyph-name="f.sc" unicode="&#xf766;" horiz-adv-x="463" 
d="M35 0l4 44h68l40 450h-83l4 44h355l-4 -124h-41l-2 80h-177l-18 -208h185l-4 -44h-185l-18 -198h83l-4 -44h-203z" />
    <glyph glyph-name="g.sc" unicode="&#xf767;" horiz-adv-x="556" 
d="M470 528v-120h-42l-4 83q-44 12 -99 12q-104 0 -162.5 -67.5t-58.5 -182.5q0 -99 43.5 -156.5t152.5 -57.5q56 0 95 13l9 121h-81l4 44h193l-4 -44h-62l-13 -154q-64 -28 -155 -28q-112 0 -173 66.5t-61 181.5q0 145 78 226.5t199 81.5q67 0 141 -19z" />
    <glyph glyph-name="h.sc" unicode="&#xf768;" horiz-adv-x="630" 
d="M35 0l4 44h68l40 450h-83l4 44h203l-4 -44h-68l-18 -208h272l18 208h-83l4 44h203l-4 -44h-68l-40 -450h83l-4 -44h-203l4 44h68l18 198h-272l-18 -198h83l-4 -44h-203z" />
    <glyph glyph-name="i.sc" unicode="&#xf769;" horiz-adv-x="296" 
d="M30 0l4 44h68l40 450h-83l4 44h203l-4 -44h-68l-40 -450h83l-4 -44h-203z" />
    <glyph glyph-name="j.sc" unicode="&#xf76a;" 
d="M-32 -147l-16 40q91 43 120.5 96.5t39.5 164.5l30 340h-83l4 44h203l-4 -44h-68l-29 -332q-4 -51 -8.5 -80t-17 -67.5t-32 -63.5t-54.5 -51t-85 -47z" />
    <glyph glyph-name="k.sc" unicode="&#xf76b;" horiz-adv-x="537" 
d="M35 0l4 44h68l40 450h-83l4 44h203l-4 -44h-68l-19 -209l238 209h-80l4 44h185l-4 -44h-43l-252 -220l215 -230h59l-4 -44h-192l4 44h70l-201 220l-20 -220h83l-4 -44h-203z" />
    <glyph glyph-name="l.sc" unicode="&#xf76c;" horiz-adv-x="407" 
d="M30 0l4 44h68l40 450h-83l4 44h203l-4 -44h-68l-40 -450h192l14 86h41l-18 -130h-353z" />
    <glyph glyph-name="m.sc" unicode="&#xf76d;" horiz-adv-x="741" 
d="M40 0l4 44h68l40 450h-83l4 44h138l137 -424q12 -41 16 -66h2q7 32 22 66l192 424h123l-4 -44h-68l-28 -450h83l-4 -44h-199l4 44h64l28 347q4 44 8 62l-2 2q-12 -41 -21 -58l-180 -397h-48l-125 391q-13 38 -14 64h-2q0 -29 -3 -57l-32 -354h83l-4 -44h-199z" />
    <glyph glyph-name="n.sc" unicode="&#xf76e;" horiz-adv-x="648" 
d="M40 0l4 44h68l40 450h-83l4 44h130l239 -400q21 -35 35 -74h2q0 49 2 80l28 350h-83l4 44h199l-4 -44h-68l-44 -494h-48l-243 410q-22 36 -29 62h-2q0 -56 -1 -67l-26 -361h83l-4 -44h-203z" />
    <glyph glyph-name="o.sc" unicode="&#xf76f;" horiz-adv-x="574" 
d="M522 300q0 -149 -76 -229t-182 -80q-97 0 -154.5 67.5t-57.5 178.5q0 152 74.5 231t179.5 79q102 0 159 -67.5t57 -179.5zM470 288q0 98 -41.5 154.5t-129.5 56.5t-141.5 -72.5t-53.5 -181.5q0 -94 42.5 -150t128.5 -56q90 0 142.5 69.5t52.5 179.5z" />
    <glyph glyph-name="p.sc" unicode="&#xf770;" horiz-adv-x="444" 
d="M30 0l4 44h68l40 450h-83l4 44h188q81 0 122 -36t41 -99q0 -89 -52 -133t-124 -44h-68l-16 -182h83l-4 -44h-203zM194 494l-20 -228h65q62 0 92.5 36t30.5 96q0 45 -25 70.5t-74 25.5h-69z" />
    <glyph glyph-name="q.sc" unicode="&#xf771;" horiz-adv-x="574" 
d="M559 -92l-3 -44q-44 -7 -52 -7q-46 0 -99.5 31t-101.5 66t-73 40q-83 11 -130.5 77t-47.5 166q0 152 74.5 231t179.5 79q102 0 159 -67.5t57 -179.5q0 -130 -58.5 -207.5t-146.5 -93.5v-2q25 -4 56 -28.5t65.5 -46t72.5 -21.5q17 0 48 7zM470 288q0 98 -41.5 154.5
t-129.5 56.5t-141.5 -72.5t-53.5 -181.5q0 -94 42.5 -150t128.5 -56q90 0 142.5 69.5t52.5 179.5z" />
    <glyph glyph-name="r.sc" unicode="&#xf772;" horiz-adv-x="500" 
d="M30 0l4 44h68l40 450h-83l4 44h200q80 0 113.5 -34.5t33.5 -101.5q0 -122 -139 -151v-2q22 -6 42 -39l72 -115q19 -32 32 -41.5t32 -9.5h32l-4 -44h-58q-22 0 -35.5 9t-27.5 34l-92 159q-17 28 -31 36t-49 8h-12l-18 -202h83l-4 -44h-203zM194 494l-19 -208h64
q58 0 90.5 36t32.5 85q0 87 -97 87h-71z" />
    <glyph glyph-name="s.sc" unicode="&#xf773;" horiz-adv-x="463" 
d="M402 414h-42l-2 76q-48 13 -90 13q-65 0 -97 -29t-32 -69t27.5 -64t66.5 -36.5t78 -27t66.5 -46t27.5 -82.5q0 -68 -52.5 -113t-146.5 -45q-72 0 -148 27l2 118h42l2 -85q48 -16 99 -16q68 0 109 31t41 84q0 37 -27.5 60.5t-66.5 36.5t-78 27.5t-66.5 45.5t-27.5 79
q0 68 50.5 108t132.5 40q63 0 134 -24z" />
    <glyph glyph-name="t.sc" unicode="&#xf774;" horiz-adv-x="481" 
d="M468 538v-124h-42l-4 80h-144l-40 -450h83l-4 -44h-203l4 44h68l40 450h-147l-16 -80h-44l18 124h431z" />
    <glyph glyph-name="u.sc" unicode="&#xf775;" horiz-adv-x="611" 
d="M586 538l-4 -44h-61l-29 -326q-8 -92 -57 -134.5t-140 -42.5q-190 0 -190 137q0 28 30 366h-83l4 44h203l-4 -44h-68q-30 -344 -30 -362q0 -46 35.5 -71.5t102.5 -25.5q137 0 149 136l29 323h-83l4 44h192z" />
    <glyph glyph-name="v.sc" unicode="&#xf776;" horiz-adv-x="500" 
d="M-1 494l4 44h189l-4 -44h-71l106 -383q9 -30 12 -67h2q5 24 21 67l160 383h-80l4 44h189l-4 -44h-57l-212 -498h-52l-141 498h-66z" />
    <glyph glyph-name="w.sc" unicode="&#xf777;" horiz-adv-x="759" 
d="M280 494l4 44h196l-4 -44h-78l97 -383q10 -40 12 -67h2q8 35 18 62l150 388h-80l4 44h189l-4 -44h-57l-204 -498h-48l-88 336h-2l-143 -336h-48l-131 498h-66l4 44h189l-4 -44h-71l94 -376q12 -46 12 -74h2q10 38 27 75l121 274l-27 101h-66z" />
    <glyph glyph-name="x.sc" unicode="&#xf778;" horiz-adv-x="519" 
d="M-13 0l4 44h54l184 234l-131 216h-63l4 44h192l-4 -44h-77q17 -20 26 -35l83 -141l109 141q19 24 34 33v2h-83l4 44h185l-4 -44h-54l-169 -216l144 -234h63l-4 -44h-192l4 44h77q-14 12 -27 34l-95 160l-120 -159q-18 -25 -34 -33v-2h83l-4 -44h-189z" />
    <glyph glyph-name="y.sc" unicode="&#xf779;" horiz-adv-x="481" 
d="M132 0l4 44h68l17 185l-153 265h-64l4 44h192l-4 -44h-80q16 -14 31 -40l105 -181l120 180q20 31 34 39v2h-83l4 44h185l-4 -44h-54l-181 -264l-17 -186h83l-4 -44h-203z" />
    <glyph glyph-name="z.sc" unicode="&#xf77a;" horiz-adv-x="463" 
d="M101 412h-41l12 126h372l-4 -39l-323 -411q-23 -30 -43 -42v-2h283l16 83h41l-16 -127h-379l4 44l321 410q24 30 39 38v2h-272z" />
    <glyph glyph-name="exclamdown.sc" unicode="&#xf7a1;" horiz-adv-x="296" 
d="M212 491q0 -22 -12 -37t-32 -15q-19 0 -30.5 14t-11.5 33q0 20 13 33t30 13q20 0 31.5 -11.5t11.5 -29.5zM173 290l-40 -533h-56l52 533h44z" />
    <glyph glyph-name="dieresis.sc" unicode="&#xf7a8;" 
d="M83 632q-38 0 -38 36q0 17 10.5 31.5t33.5 14.5q15 0 24.5 -10.5t9.5 -26.5q0 -13 -9.5 -29t-30.5 -16zM281 632q-38 0 -38 36q0 17 10.5 31.5t33.5 14.5q15 0 24.5 -10.5t9.5 -26.5q0 -13 -9.5 -29t-30.5 -16z" />
    <glyph glyph-name="macron.sc" unicode="&#xf7af;" 
d="M65 646l4 44h224l-4 -44h-224z" />
    <glyph glyph-name="acute.sc" unicode="&#xf7b4;" 
d="M306 718l-149 -122l-33 28l142 121z" />
    <glyph glyph-name="cedilla.sc" unicode="&#xf7b8;" 
d="M57 -198l3 43q42 -14 77 -14q54 0 54 38q0 18 -16 26.5t-36 8.5q-6 0 -21 -3l8 99h44l-8 -64q85 0 85 -63q0 -34 -29 -60t-80 -26q-36 0 -81 15z" />
    <glyph glyph-name="questiondown.sc" unicode="&#xf7bf;" horiz-adv-x="481" 
d="M240 282l40 31q44 -47 44 -91q0 -9 -2 -18t-4 -15.5t-7 -14.5t-8.5 -13t-11.5 -12.5t-11 -11t-13 -10.5l-13 -9l-14 -9.5t-13 -8.5l-68 -45q-91 -60 -91 -139q0 -56 38.5 -87.5t100.5 -31.5q64 0 107 19l10 -45q-66 -22 -124 -22q-89 0 -136.5 46.5t-47.5 113.5
q0 59 30.5 102t64.5 66l68 46l55 38t26 25.5t12 31.5q0 14 -5 25t-15 23.5t-12 15.5zM333 491q0 -22 -12 -37t-32 -15q-19 0 -30.5 14t-11.5 33q0 20 13 33t30 13q20 0 31.5 -11.5t11.5 -29.5z" />
    <glyph glyph-name="agrave.sc" unicode="&#xf7e0;" horiz-adv-x="519" 
d="M177 262h153l-47 184q-6 23 -8 56h-2q-6 -27 -19 -58zM-28 0l4 44h56l219 498h52l138 -498h65l-4 -44h-192l4 44h71l-45 178h-180l-76 -178h77l-4 -44h-185zM212 745l124 -120l-34 -29l-130 121z" />
    <glyph glyph-name="aacute.sc" unicode="&#xf7e1;" horiz-adv-x="519" 
d="M177 262h153l-47 184q-6 23 -8 56h-2q-6 -27 -19 -58zM-28 0l4 44h56l219 498h52l138 -498h65l-4 -44h-192l4 44h71l-45 178h-180l-76 -178h77l-4 -44h-185zM427 718l-149 -122l-33 28l142 121z" />
    <glyph glyph-name="acircumflex.sc" unicode="&#xf7e2;" horiz-adv-x="519" 
d="M177 262h153l-47 184q-6 23 -8 56h-2q-6 -27 -19 -58zM-28 0l4 44h56l219 498h52l138 -498h65l-4 -44h-192l4 44h71l-45 178h-180l-76 -178h77l-4 -44h-185zM158 640l129 101h42l113 -101l-40 -28l-98 93l-112 -93z" />
    <glyph glyph-name="atilde.sc" unicode="&#xf7e3;" horiz-adv-x="519" 
d="M177 262h153l-47 184q-6 23 -8 56h-2q-6 -27 -19 -58zM-28 0l4 44h56l219 498h52l138 -498h65l-4 -44h-192l4 44h71l-45 178h-180l-76 -178h77l-4 -44h-185zM417 700l36 -27q-35 -64 -88 -64q-24 0 -67 29q-41 28 -58 28q-13 0 -23.5 -9.5t-15 -17.5t-11.5 -25l-41 18
q10 31 33.5 56.5t54.5 25.5q33 0 73 -28q41 -29 55 -29q16 0 27 10.5t25 32.5z" />
    <glyph glyph-name="adieresis.sc" unicode="&#xf7e4;" horiz-adv-x="519" 
d="M177 262h153l-47 184q-6 23 -8 56h-2q-6 -27 -19 -58zM-28 0l4 44h56l219 498h52l138 -498h65l-4 -44h-192l4 44h71l-45 178h-180l-76 -178h77l-4 -44h-185zM204 632q-38 0 -38 36q0 17 10.5 31.5t33.5 14.5q15 0 24.5 -10.5t9.5 -26.5q0 -13 -9.5 -29t-30.5 -16z
M402 632q-38 0 -38 36q0 17 10.5 31.5t33.5 14.5q15 0 24.5 -10.5t9.5 -26.5q0 -13 -9.5 -29t-30.5 -16z" />
    <glyph glyph-name="aring.sc" unicode="&#xf7e5;" horiz-adv-x="519" 
d="M177 262h153l-47 184q-6 23 -8 56h-2q-6 -27 -19 -58zM-28 0l4 44h56l219 498h52l138 -498h65l-4 -44h-192l4 44h71l-45 178h-180l-76 -178h77l-4 -44h-185zM226 666q0 -21 12 -35.5t33 -14.5q25 0 37 18.5t12 41.5q0 51 -43 51q-23 0 -37 -18t-14 -43zM186 662
q0 39 26 70t69 31q34 0 56.5 -22t22.5 -62q0 -45 -27 -72t-68 -27q-36 0 -57.5 24t-21.5 58z" />
    <glyph glyph-name="ae.sc" unicode="&#xf7e6;" horiz-adv-x="685" 
d="M-28 0l4 44h55l317 494h334l-3 -124h-41l-3 80h-166l-18 -208h179l-4 -44h-179l-18 -198h192l14 86h41l-18 -130h-353l4 44h68l18 198h-183l-126 -198h75l-4 -44h-185zM399 286l18 208h-45l-132 -208h159z" />
    <glyph glyph-name="ccedilla.sc" unicode="&#xf7e7;" horiz-adv-x="500" 
d="M464 525l-4 -117h-42v82q-55 13 -93 13q-104 0 -162.5 -67.5t-58.5 -182.5q0 -99 43.5 -156.5t152.5 -57.5q48 0 86 9l12 81h40l-12 -115q-54 -23 -140 -23q-4 0 -6 1l-7 -56q85 0 85 -63q0 -34 -29 -60t-80 -26q-36 0 -81 15l3 43q42 -14 77 -14q54 0 54 38
q0 18 -16 26.5t-36 8.5q-6 0 -21 -3l7 95q-89 14 -136.5 78t-47.5 165q0 145 78 226.5t199 81.5q64 0 135 -22z" />
    <glyph glyph-name="egrave.sc" unicode="&#xf7e8;" horiz-adv-x="500" 
d="M35 0l4 44h68l40 450h-83l4 44h359l-2 -124h-42l-2 80h-182l-18 -198h178l-4 -44h-178l-18 -208h192l14 86h41l-18 -130h-353zM222 745l124 -120l-34 -29l-130 121z" />
    <glyph glyph-name="eacute.sc" unicode="&#xf7e9;" horiz-adv-x="500" 
d="M35 0l4 44h68l40 450h-83l4 44h359l-2 -124h-42l-2 80h-182l-18 -198h178l-4 -44h-178l-18 -208h192l14 86h41l-18 -130h-353zM437 718l-149 -122l-33 28l142 121z" />
    <glyph glyph-name="ecircumflex.sc" unicode="&#xf7ea;" horiz-adv-x="500" 
d="M35 0l4 44h68l40 450h-83l4 44h359l-2 -124h-42l-2 80h-182l-18 -198h178l-4 -44h-178l-18 -208h192l14 86h41l-18 -130h-353zM168 640l129 101h42l113 -101l-40 -28l-98 93l-112 -93z" />
    <glyph glyph-name="edieresis.sc" unicode="&#xf7eb;" horiz-adv-x="500" 
d="M35 0l4 44h68l40 450h-83l4 44h359l-2 -124h-42l-2 80h-182l-18 -198h178l-4 -44h-178l-18 -208h192l14 86h41l-18 -130h-353zM214 632q-38 0 -38 36q0 17 10.5 31.5t33.5 14.5q15 0 24.5 -10.5t9.5 -26.5q0 -13 -9.5 -29t-30.5 -16zM412 632q-38 0 -38 36
q0 17 10.5 31.5t33.5 14.5q15 0 24.5 -10.5t9.5 -26.5q0 -13 -9.5 -29t-30.5 -16z" />
    <glyph glyph-name="igrave.sc" unicode="&#xf7ec;" horiz-adv-x="296" 
d="M30 0l4 44h68l40 450h-83l4 44h203l-4 -44h-68l-40 -450h83l-4 -44h-203zM100 745l124 -120l-34 -29l-130 121z" />
    <glyph glyph-name="iacute.sc" unicode="&#xf7ed;" horiz-adv-x="296" 
d="M30 0l4 44h68l40 450h-83l4 44h203l-4 -44h-68l-40 -450h83l-4 -44h-203zM315 718l-149 -122l-33 28l142 121z" />
    <glyph glyph-name="icircumflex.sc" unicode="&#xf7ee;" horiz-adv-x="296" 
d="M30 0l4 44h68l40 450h-83l4 44h203l-4 -44h-68l-40 -450h83l-4 -44h-203zM36 640l129 101h42l113 -101l-40 -28l-98 93l-112 -93z" />
    <glyph glyph-name="idieresis.sc" unicode="&#xf7ef;" horiz-adv-x="296" 
d="M30 0l4 44h68l40 450h-83l4 44h203l-4 -44h-68l-40 -450h83l-4 -44h-203zM92 632q-38 0 -38 36q0 17 10.5 31.5t33.5 14.5q15 0 24.5 -10.5t9.5 -26.5q0 -13 -9.5 -29t-30.5 -16zM290 632q-38 0 -38 36q0 17 10.5 31.5t33.5 14.5q15 0 24.5 -10.5t9.5 -26.5
q0 -13 -9.5 -29t-30.5 -16z" />
    <glyph glyph-name="eth.sc" unicode="&#xf7f0;" horiz-adv-x="593" 
d="M30 0l4 44h68l19 214h-75l4 44h75l17 192h-83l4 44h252q225 0 225 -238q0 -129 -72.5 -214.5t-192.5 -85.5h-245zM194 494l-17 -192h143l-4 -44h-143l-19 -214h99q58 0 94 13.5t70 47.5q32 31 51.5 83.5t19.5 107.5q0 198 -182 198h-112z" />
    <glyph glyph-name="ntilde.sc" unicode="&#xf7f1;" horiz-adv-x="648" 
d="M40 0l4 44h68l40 450h-83l4 44h130l239 -400q21 -35 35 -74h2q0 49 2 80l28 350h-83l4 44h199l-4 -44h-68l-44 -494h-48l-243 410q-22 36 -29 62h-2q0 -56 -1 -67l-26 -361h83l-4 -44h-203zM471 700l36 -27q-35 -64 -88 -64q-24 0 -67 29q-41 28 -58 28q-13 0 -23.5 -9.5
t-15 -17.5t-11.5 -25l-41 18q10 31 33.5 56.5t54.5 25.5q33 0 73 -28q41 -29 55 -29q16 0 27 10.5t25 32.5z" />
    <glyph glyph-name="ograve.sc" unicode="&#xf7f2;" horiz-adv-x="574" 
d="M522 300q0 -149 -76 -229t-182 -80q-97 0 -154.5 67.5t-57.5 178.5q0 152 74.5 231t179.5 79q102 0 159 -67.5t57 -179.5zM470 288q0 98 -41.5 154.5t-129.5 56.5t-141.5 -72.5t-53.5 -181.5q0 -94 42.5 -150t128.5 -56q90 0 142.5 69.5t52.5 179.5zM239 745l124 -120
l-34 -29l-130 121z" />
    <glyph glyph-name="oacute.sc" unicode="&#xf7f3;" horiz-adv-x="574" 
d="M522 300q0 -149 -76 -229t-182 -80q-97 0 -154.5 67.5t-57.5 178.5q0 152 74.5 231t179.5 79q102 0 159 -67.5t57 -179.5zM470 288q0 98 -41.5 154.5t-129.5 56.5t-141.5 -72.5t-53.5 -181.5q0 -94 42.5 -150t128.5 -56q90 0 142.5 69.5t52.5 179.5zM454 718l-149 -122
l-33 28l142 121z" />
    <glyph glyph-name="ocircumflex.sc" unicode="&#xf7f4;" horiz-adv-x="574" 
d="M522 300q0 -149 -76 -229t-182 -80q-97 0 -154.5 67.5t-57.5 178.5q0 152 74.5 231t179.5 79q102 0 159 -67.5t57 -179.5zM470 288q0 98 -41.5 154.5t-129.5 56.5t-141.5 -72.5t-53.5 -181.5q0 -94 42.5 -150t128.5 -56q90 0 142.5 69.5t52.5 179.5zM185 640l129 101h42
l113 -101l-40 -28l-98 93l-112 -93z" />
    <glyph glyph-name="otilde.sc" unicode="&#xf7f5;" horiz-adv-x="574" 
d="M522 300q0 -149 -76 -229t-182 -80q-97 0 -154.5 67.5t-57.5 178.5q0 152 74.5 231t179.5 79q102 0 159 -67.5t57 -179.5zM470 288q0 98 -41.5 154.5t-129.5 56.5t-141.5 -72.5t-53.5 -181.5q0 -94 42.5 -150t128.5 -56q90 0 142.5 69.5t52.5 179.5zM444 700l36 -27
q-35 -64 -88 -64q-24 0 -67 29q-41 28 -58 28q-13 0 -23.5 -9.5t-15 -17.5t-11.5 -25l-41 18q10 31 33.5 56.5t54.5 25.5q33 0 73 -28q41 -29 55 -29q16 0 27 10.5t25 32.5z" />
    <glyph glyph-name="odieresis.sc" unicode="&#xf7f6;" horiz-adv-x="574" 
d="M522 300q0 -149 -76 -229t-182 -80q-97 0 -154.5 67.5t-57.5 178.5q0 152 74.5 231t179.5 79q102 0 159 -67.5t57 -179.5zM470 288q0 98 -41.5 154.5t-129.5 56.5t-141.5 -72.5t-53.5 -181.5q0 -94 42.5 -150t128.5 -56q90 0 142.5 69.5t52.5 179.5zM231 632
q-38 0 -38 36q0 17 10.5 31.5t33.5 14.5q15 0 24.5 -10.5t9.5 -26.5q0 -13 -9.5 -29t-30.5 -16zM429 632q-38 0 -38 36q0 17 10.5 31.5t33.5 14.5q15 0 24.5 -10.5t9.5 -26.5q0 -13 -9.5 -29t-30.5 -16z" />
    <glyph glyph-name="oslash.sc" unicode="&#xf7f8;" horiz-adv-x="574" 
d="M435 432l-268 -356q40 -37 108 -37q90 0 142.5 69.5t52.5 179.5q0 92 -35 144zM139 108l269 355q-41 36 -109 36q-88 0 -141.5 -72.5t-53.5 -181.5q0 -86 35 -137zM37 -28l69 92q-54 65 -54 173q0 152 74.5 231t179.5 79q79 0 133 -42l65 86l33 -25l-69 -91
q54 -64 54 -175q0 -149 -76 -229t-182 -80q-74 0 -128 43l-66 -87z" />
    <glyph glyph-name="ugrave.sc" unicode="&#xf7f9;" horiz-adv-x="611" 
d="M586 538l-4 -44h-61l-29 -326q-8 -92 -57 -134.5t-140 -42.5q-190 0 -190 137q0 28 30 366h-83l4 44h203l-4 -44h-68q-30 -344 -30 -362q0 -46 35.5 -71.5t102.5 -25.5q137 0 149 136l29 323h-83l4 44h192zM258 745l124 -120l-34 -29l-130 121z" />
    <glyph glyph-name="uacute.sc" unicode="&#xf7fa;" horiz-adv-x="611" 
d="M586 538l-4 -44h-61l-29 -326q-8 -92 -57 -134.5t-140 -42.5q-190 0 -190 137q0 28 30 366h-83l4 44h203l-4 -44h-68q-30 -344 -30 -362q0 -46 35.5 -71.5t102.5 -25.5q137 0 149 136l29 323h-83l4 44h192zM473 718l-149 -122l-33 28l142 121z" />
    <glyph glyph-name="ucircumflex.sc" unicode="&#xf7fb;" horiz-adv-x="611" 
d="M586 538l-4 -44h-61l-29 -326q-8 -92 -57 -134.5t-140 -42.5q-190 0 -190 137q0 28 30 366h-83l4 44h203l-4 -44h-68q-30 -344 -30 -362q0 -46 35.5 -71.5t102.5 -25.5q137 0 149 136l29 323h-83l4 44h192zM194 640l129 101h42l113 -101l-40 -28l-98 93l-112 -93z" />
    <glyph glyph-name="udieresis.sc" unicode="&#xf7fc;" horiz-adv-x="611" 
d="M586 538l-4 -44h-61l-29 -326q-8 -92 -57 -134.5t-140 -42.5q-190 0 -190 137q0 28 30 366h-83l4 44h203l-4 -44h-68q-30 -344 -30 -362q0 -46 35.5 -71.5t102.5 -25.5q137 0 149 136l29 323h-83l4 44h192zM240 632q-38 0 -38 36q0 17 10.5 31.5t33.5 14.5
q15 0 24.5 -10.5t9.5 -26.5q0 -13 -9.5 -29t-30.5 -16zM438 632q-38 0 -38 36q0 17 10.5 31.5t33.5 14.5q15 0 24.5 -10.5t9.5 -26.5q0 -13 -9.5 -29t-30.5 -16z" />
    <glyph glyph-name="yacute.sc" unicode="&#xf7fd;" horiz-adv-x="481" 
d="M132 0l4 44h68l17 185l-153 265h-64l4 44h192l-4 -44h-80q16 -14 31 -40l105 -181l120 180q20 31 34 39v2h-83l4 44h185l-4 -44h-54l-181 -264l-17 -186h83l-4 -44h-203zM408 718l-149 -122l-33 28l142 121z" />
    <glyph glyph-name="thorn.sc" unicode="&#xf7fe;" horiz-adv-x="444" 
d="M30 0l4 44h68l40 450h-83l4 44h203l-4 -44h-68l-5 -52h53q81 0 122 -36t41 -99q0 -89 -52 -133t-124 -44h-67l-8 -86h83l-4 -44h-203zM185 398l-20 -228h65q62 0 92.5 36t30.5 96q0 45 -25 70.5t-74 25.5h-69z" />
    <glyph glyph-name="ydieresis.sc" unicode="&#xf7ff;" horiz-adv-x="481" 
d="M132 0l4 44h68l17 185l-153 265h-64l4 44h192l-4 -44h-80q16 -14 31 -40l105 -181l120 180q20 31 34 39v2h-83l4 44h185l-4 -44h-54l-181 -264l-17 -186h83l-4 -44h-203zM165 632q-38 0 -38 36q0 17 10.5 31.5t33.5 14.5q15 0 24.5 -10.5t9.5 -26.5q0 -13 -9.5 -29
t-30.5 -16zM363 632q-38 0 -38 36q0 17 10.5 31.5t33.5 14.5q15 0 24.5 -10.5t9.5 -26.5q0 -13 -9.5 -29t-30.5 -16z" />
    </font>
</defs>
</svg>
